<?xml version="1.0" encoding="UTF-8" standalone="no"?>
<!-- Created with Inkscape (http://www.inkscape.org/) -->

<svg
   width="35.132759mm"
   height="29.7171mm"
   viewBox="0 0 35.132759 29.7171"
   version="1.1"
   id="svg1741"
   inkscape:version="1.1.2 (b8e25be833, 2022-02-05)"
   sodipodi:docname="button_add.svg"
   xmlns:inkscape="http://www.inkscape.org/namespaces/inkscape"
   xmlns:sodipodi="http://sodipodi.sourceforge.net/DTD/sodipodi-0.dtd"
   xmlns="http://www.w3.org/2000/svg"
   xmlns:svg="http://www.w3.org/2000/svg">
  <sodipodi:namedview
     id="namedview1743"
     pagecolor="#ffffff"
     bordercolor="#999999"
     borderopacity="1"
     inkscape:pageshadow="0"
     inkscape:pageopacity="0"
     inkscape:pagecheckerboard="0"
     inkscape:document-units="mm"
     showgrid="false"
     inkscape:zoom="0.64052329"
     inkscape:cx="570.62718"
     inkscape:cy="302.87736"
     inkscape:window-width="1920"
     inkscape:window-height="1017"
     inkscape:window-x="-8"
     inkscape:window-y="-8"
     inkscape:window-maximized="1"
     inkscape:current-layer="layer1" />
  <defs
     id="defs1738" />
  <g
     inkscape:label="Слой 1"
     inkscape:groupmode="layer"
     id="layer1"
     transform="translate(45.655393,-68.16927)">
    <path
       id="path36505"
       style="display:inline;fill:#000000;fill-opacity:1;stroke:none;stroke-width:0.264583px;stroke-linecap:butt;stroke-linejoin:miter;stroke-opacity:1"
       d="m -45.046083,68.16927 c -0.004,0.1757 -0.008,0.3519 -0.0114,0.5276 1.02833,10.0222 0.40148,19.6499 -0.59791,29.1895 11.60947,-1.4902 23.21891,-1.677 34.82838,0 -1.67796,-9.8357 -1.73696,-19.5512 0.30438,-29.1114 -11.50782,1 -23.01571,1.009 -34.5235,-0.6057 z m 3.72692,4.0277 c 9.00451,1.072 17.76899,0.7073 26.50172,0.1519 -1.20359,6.6626 -1.6442,13.4893 -0.92398,20.5647 -8.90553,-0.2636 -17.68273,-0.3306 -26.04076,0.2268 0.69614,-6.7689 1.10781,-13.5584 0.45111,-20.4241 -0.0164,-0.1723 0.008,-0.3461 0.0119,-0.5193 z"
       sodipodi:nodetypes="ccccccccccsc" />
    <path
       style="display:inline;fill:#000000;fill-opacity:1;stroke:none;stroke-width:0.271438px;stroke-linecap:butt;stroke-linejoin:miter;stroke-opacity:1"
       d="m -30.723693,75.37747 0.0862,5.219 -5.33822,0.1373 v 3.9464 l 5.2893,-0.013 -0.0769,5.9927 4.53812,-0.1462 -0.23074,-5.7004 5.36008,-0.1675 -0.20821,-4.351 -5.38264,0.1337 v -5.1887 z"
       id="path36509"
       sodipodi:nodetypes="ccccccccccccc" />
  </g>
</svg>
