<?xml version="1.0" encoding="UTF-8" standalone="no"?>
<!-- Created with Inkscape (http://www.inkscape.org/) -->

<svg
   width="42.177601mm"
   height="42.38269mm"
   viewBox="0 0 42.177601 42.38269"
   version="1.1"
   id="svg21583"
   inkscape:version="1.1.2 (b8e25be833, 2022-02-05)"
   sodipodi:docname="company_logo.svg"
   xmlns:inkscape="http://www.inkscape.org/namespaces/inkscape"
   xmlns:sodipodi="http://sodipodi.sourceforge.net/DTD/sodipodi-0.dtd"
   xmlns="http://www.w3.org/2000/svg"
   xmlns:svg="http://www.w3.org/2000/svg">
  <sodipodi:namedview
     id="namedview21585"
     pagecolor="#ffffff"
     bordercolor="#999999"
     borderopacity="1"
     inkscape:pageshadow="0"
     inkscape:pageopacity="0"
     inkscape:pagecheckerboard="0"
     inkscape:document-units="mm"
     showgrid="false"
     inkscape:zoom="0.64052329"
     inkscape:cx="216.22945"
     inkscape:cy="174.85703"
     inkscape:window-width="1920"
     inkscape:window-height="1017"
     inkscape:window-x="-8"
     inkscape:window-y="-8"
     inkscape:window-maximized="1"
     inkscape:current-layer="layer1" />
  <defs
     id="defs21580" />
  <g
     inkscape:label="Слой 1"
     inkscape:groupmode="layer"
     id="layer1"
     transform="translate(-111.09479,-84.55553)">
    <path
       style="fill:#ffffff;fill-opacity:1;stroke:none;stroke-width:0.264583px;stroke-linecap:butt;stroke-linejoin:miter;stroke-opacity:1"
       d="m 115.72198,121.13543 31.80668,-31.60014 c 0.41307,0 1.10064,0.23052 1.10064,0.23052 l -0.51562,0.96164 -31.68708,31.32394 z"
       id="path19222"
       sodipodi:nodetypes="cccccc" />
    <path
       style="fill:#ffffff;fill-opacity:1;stroke:none;stroke-width:0.264583px;stroke-linecap:butt;stroke-linejoin:miter;stroke-opacity:1"
       d="m 131.46911,89.15619 v 32.93284 h 1.16835 V 88.8641 Z"
       id="path19884" />
    <path
       style="fill:#ffffff;fill-opacity:1;stroke:none;stroke-width:0.264583px;stroke-linecap:butt;stroke-linejoin:miter;stroke-opacity:1"
       d="m 148.81951,104.87066 h -32.94263 v 1.29085 h 33.0459 z"
       id="path19954" />
    <path
       id="path20022"
       style="fill:#ffffff;fill-opacity:1;stroke:none;stroke-width:0.319426px;stroke-linecap:butt;stroke-linejoin:miter;stroke-opacity:1"
       d="m 131.49005,99.13431 -6.03105,6.03105 6.71669,6.81028 6.46776,-6.46777 v -6.37356 z m 0.60766,1.16853 h 5.48764 v 5.11332 l -5.22312,5.22312 -5.24558,-5.35538 z" />
    <path
       id="rect18339"
       style="display:inline;fill:#ffffff;fill-opacity:1;fill-rule:evenodd;stroke-width:0.264999"
       d="M 114.89336,88.206938 V 123.0384 h 34.83095 V 88.206938 Z m 1.27507,1.361355 32.04506,0.09036 0.0645,32.057117 -32.17414,0.1549 z"
       sodipodi:nodetypes="cccccccccc" />
    <path
       id="circle18559"
       style="display:inline;fill:#ffffff;fill-opacity:1;fill-rule:evenodd;stroke-width:0.296761"
       d="m 115.6562,101.05856 a 4.5391031,4.5391031 0 0 0 -4.53935,4.53934 4.5391031,4.5391031 0 0 0 4.53935,4.53876 4.5391031,4.5391031 0 0 0 4.53876,-4.53876 4.5391031,4.5391031 0 0 0 -4.53876,-4.53934 z m -0.0145,0.96412 a 3.585024,3.585024 0 0 1 3.58506,3.58506 3.585024,3.585024 0 0 1 -3.58506,3.58506 3.585024,3.585024 0 0 1 -3.58507,-3.58506 3.585024,3.585024 0 0 1 3.58507,-3.58506 z" />
    <path
       id="circle18559-9"
       style="display:inline;fill:#ffffff;fill-opacity:1;fill-rule:evenodd;stroke-width:0.296761"
       d="m 131.90681,84.55553 a 4.5391031,4.5391031 0 0 0 -4.53934,4.53934 4.5391031,4.5391031 0 0 0 4.53934,4.53876 4.5391031,4.5391031 0 0 0 4.53876,-4.53876 4.5391031,4.5391031 0 0 0 -4.53876,-4.53934 z m -0.0145,0.96412 a 3.585024,3.585024 0 0 1 3.58506,3.58506 3.585024,3.585024 0 0 1 -3.58506,3.58506 3.585024,3.585024 0 0 1 -3.58506,-3.58506 3.585024,3.585024 0 0 1 3.58506,-3.58506 z" />
    <path
       id="circle18559-2"
       style="display:inline;fill:#ffffff;fill-opacity:1;fill-rule:evenodd;stroke-width:0.296761"
       d="m 148.57215,85.15067 a 4.5391031,4.5391031 0 0 0 -4.53934,4.53934 4.5391031,4.5391031 0 0 0 4.53934,4.53876 4.5391031,4.5391031 0 0 0 4.53876,-4.53876 4.5391031,4.5391031 0 0 0 -4.53876,-4.53934 z m -0.0145,0.96411 a 3.585024,3.585024 0 0 1 3.58506,3.58506 3.585024,3.585024 0 0 1 -3.58506,3.58507 3.585024,3.585024 0 0 1 -3.58506,-3.58507 3.585024,3.585024 0 0 1 3.58506,-3.58506 z" />
    <path
       id="circle18559-1"
       style="display:inline;fill:#ffffff;fill-opacity:1;fill-rule:evenodd;stroke-width:0.296761"
       d="m 148.73362,101.03164 a 4.5391031,4.5391031 0 0 0 -4.53934,4.53934 4.5391031,4.5391031 0 0 0 4.53934,4.53876 4.5391031,4.5391031 0 0 0 4.53877,-4.53876 4.5391031,4.5391031 0 0 0 -4.53877,-4.53934 z m -0.0145,0.96411 a 3.585024,3.585024 0 0 1 3.58507,3.58506 3.585024,3.585024 0 0 1 -3.58507,3.58507 3.585024,3.585024 0 0 1 -3.58506,-3.58507 3.585024,3.585024 0 0 1 3.58506,-3.58506 z" />
    <path
       id="circle18559-8"
       style="display:inline;fill:#ffffff;fill-opacity:1;fill-rule:evenodd;stroke-width:0.296761"
       d="m 131.9841,117.86012 a 4.5391031,4.5391031 0 0 0 -4.53934,4.53934 4.5391031,4.5391031 0 0 0 4.53934,4.53876 4.5391031,4.5391031 0 0 0 4.53876,-4.53876 4.5391031,4.5391031 0 0 0 -4.53876,-4.53934 z m -0.0145,0.96411 a 3.585024,3.585024 0 0 1 3.58506,3.58506 3.585024,3.585024 0 0 1 -3.58506,3.58507 3.585024,3.585024 0 0 1 -3.58506,-3.58507 3.585024,3.585024 0 0 1 3.58506,-3.58506 z" />
    <path
       id="circle18559-6"
       style="display:inline;fill:#ffffff;fill-opacity:1;fill-rule:evenodd;stroke-width:0.296761"
       d="m 115.63413,117.5045 a 4.5391031,4.5391031 0 0 0 -4.53934,4.53934 4.5391031,4.5391031 0 0 0 4.53934,4.53876 4.5391031,4.5391031 0 0 0 4.53877,-4.53876 4.5391031,4.5391031 0 0 0 -4.53877,-4.53934 z m -0.0145,0.96411 a 3.585024,3.585024 0 0 1 3.58507,3.58506 3.585024,3.585024 0 0 1 -3.58507,3.58507 3.585024,3.585024 0 0 1 -3.58506,-3.58507 3.585024,3.585024 0 0 1 3.58506,-3.58506 z" />
  </g>
</svg>
