<?xml version="1.0" encoding="UTF-8" standalone="no"?>
<!-- Created with Inkscape (http://www.inkscape.org/) -->

<svg
   width="25.228065mm"
   height="20.661722mm"
   viewBox="0 0 25.228065 20.661722"
   version="1.1"
   id="svg32325"
   inkscape:version="1.1.2 (b8e25be833, 2022-02-05)"
   sodipodi:docname="login_button_pressed.svg"
   xmlns:inkscape="http://www.inkscape.org/namespaces/inkscape"
   xmlns:sodipodi="http://sodipodi.sourceforge.net/DTD/sodipodi-0.dtd"
   xmlns="http://www.w3.org/2000/svg"
   xmlns:svg="http://www.w3.org/2000/svg">
  <sodipodi:namedview
     id="namedview32327"
     pagecolor="#ffffff"
     bordercolor="#999999"
     borderopacity="1"
     inkscape:pageshadow="0"
     inkscape:pageopacity="0"
     inkscape:pagecheckerboard="0"
     inkscape:document-units="mm"
     showgrid="false"
     inkscape:zoom="3.6233469"
     inkscape:cx="54.231628"
     inkscape:cy="44.158069"
     inkscape:window-width="1920"
     inkscape:window-height="1017"
     inkscape:window-x="-8"
     inkscape:window-y="-8"
     inkscape:window-maximized="1"
     inkscape:current-layer="layer1" />
  <defs
     id="defs32322" />
  <g
     inkscape:label="Слой 1"
     inkscape:groupmode="layer"
     id="layer1"
     transform="translate(-92.513225,-137.9626)">
    <path
       id="path21985"
       style="display:inline;fill:#000000;fill-opacity:1;stroke:none;stroke-width:0.264583px;stroke-linecap:butt;stroke-linejoin:miter;stroke-opacity:1"
       d="m 113.98985,137.9626 -16.284265,0.36535 -0.4377,15.11536 h 16.648585 z m -0.43821,0.43822 -0.29197,14.42185 -15.517395,-0.25528 0.51108,-13.72836 z" />
    <path
       style="display:inline;fill:#000000;fill-opacity:1;stroke:none;stroke-width:0.162959px;stroke-linecap:butt;stroke-linejoin:miter;stroke-opacity:1"
       d="m 92.513225,157.90148 c 0.84696,0.9479 24.868805,0.97955 25.228065,0 z"
       id="path20702-9-8"
       sodipodi:nodetypes="ccc" />
    <path
       style="display:inline;fill:#000000;fill-opacity:1;stroke:none;stroke-width:0.572805px;stroke-linecap:butt;stroke-linejoin:miter;stroke-opacity:1"
       d="m 105.78896,148.58937 c 2.30685,-2.223 1.67296,-2.79677 -0.58205,-3.19852 1.81391,1.17155 1.49355,1.81836 0.58205,3.19852 z"
       id="path22862"
       sodipodi:nodetypes="ccc" />
    <path
       style="display:inline;fill:#000000;fill-opacity:1;stroke:none;stroke-width:0.572805px;stroke-linecap:butt;stroke-linejoin:miter;stroke-opacity:1"
       d="m 105.78378,145.08808 c -1.322,-0.36001 -2.32537,-0.53242 -2.43729,1.90868 0.0235,2.86737 3.24981,2.07173 4.22847,1.08854 -1.95195,0.80424 -3.57569,1.1931 -3.90431,-1.16194 -0.13255,-2.17221 0.9061,-1.7455 2.11313,-1.83528 z"
       id="path23068"
       sodipodi:nodetypes="ccccc" />
    <path
       style="display:inline;fill:#000000;fill-opacity:1;stroke:none;stroke-width:0.572805px;stroke-linecap:butt;stroke-linejoin:miter;stroke-opacity:1"
       d="m 105.58786,146.37521 c -1.6035,-0.73826 -1.93768,-0.3433 -0.60751,1.53756 -0.31155,-0.94614 -0.22878,-1.55966 0.60751,-1.53756 z"
       id="path23844"
       sodipodi:nodetypes="ccc" />
    <path
       style="display:inline;fill:#000000;fill-opacity:1;stroke:none;stroke-width:0.572805px;stroke-linecap:butt;stroke-linejoin:miter;stroke-opacity:1"
       d="m 107.94189,148.33946 c 0.22168,-7.0682 -7.13409,-5.98928 -5.13007,0.3088 -1.07402,-4.70864 4.52492,-7.55362 5.13007,-0.3088 z"
       id="path24078"
       sodipodi:nodetypes="ccc" />
    <path
       style="display:inline;fill:#000000;fill-opacity:1;stroke:none;stroke-width:0.572805px;stroke-linecap:butt;stroke-linejoin:miter;stroke-opacity:1"
       d="m 102.02199,147.03936 c 0.63514,6.56434 6.19762,2.06266 6.48116,1.58541 -4.50558,2.76602 -5.62383,1.0205 -6.48116,-1.58541 z"
       id="path24502"
       sodipodi:nodetypes="ccc" />
    <path
       style="display:inline;fill:#000000;fill-opacity:1;stroke:none;stroke-width:0.572805px;stroke-linecap:butt;stroke-linejoin:miter;stroke-opacity:1"
       d="m 108.48976,149.44598 c 1.94284,-9.07711 -7.23731,-12.24057 -6.8733,-1.62118 0.59156,-8.58157 6.99863,-8.54109 6.8733,1.62118 z"
       id="path25295"
       sodipodi:nodetypes="ccc" />
    <path
       style="display:inline;fill:#000000;fill-opacity:1;stroke:none;stroke-width:0.572805px;stroke-linecap:butt;stroke-linejoin:miter;stroke-opacity:1"
       d="m 108.78018,144.65906 c -1.68467,-9.33185 -11.164175,-6.98196 -6.85569,6.22125 -3.317695,-10.94704 3.84657,-15.69208 6.85569,-6.22125 z"
       id="path25295-5"
       sodipodi:nodetypes="ccc" />
    <path
       style="display:inline;fill:#000000;fill-opacity:1;stroke:none;stroke-width:0.572805px;stroke-linecap:butt;stroke-linejoin:miter;stroke-opacity:1"
       d="m 102.2509,145.20158 c 1.84093,-4.7588 3.91465,-2.57726 3.9973,-1.92877 -2.64381,-1.55322 -2.933,0.86065 -3.9973,1.92877 z"
       id="path25885"
       sodipodi:nodetypes="ccc" />
    <path
       style="display:inline;fill:#000000;fill-opacity:1;stroke:none;stroke-width:0.572805px;stroke-linecap:butt;stroke-linejoin:miter;stroke-opacity:1"
       d="m 102.32008,150.15657 c 0.74224,1.28852 6.00166,5.17404 7.22106,-2.75329 -1.62619,5.8996 -4.79201,4.8324 -7.22106,2.75329 z"
       id="path26469"
       sodipodi:nodetypes="ccc" />
    <path
       style="display:inline;fill:#000000;fill-opacity:1;stroke:none;stroke-width:0.572805px;stroke-linecap:butt;stroke-linejoin:miter;stroke-opacity:1"
       d="m 101.35499,145.45738 c -0.0143,-2.5662 0.71903,-5.8236 4.27091,-4.92785 -4.5803,0.25707 -3.76676,3.91723 -4.27091,4.92785 z"
       id="path27735"
       sodipodi:nodetypes="ccc" />
  </g>
</svg>
