<?xml version="1.0" encoding="UTF-8" standalone="no"?>
<!-- Created with Inkscape (http://www.inkscape.org/) -->

<svg
   width="85.713631mm"
   height="62.171917mm"
   viewBox="0 0 85.713634 62.171917"
   version="1.1"
   id="svg6376"
   inkscape:version="1.1.2 (b8e25be833, 2022-02-05)"
   sodipodi:docname="login_page_mobile.svg"
   xmlns:inkscape="http://www.inkscape.org/namespaces/inkscape"
   xmlns:sodipodi="http://sodipodi.sourceforge.net/DTD/sodipodi-0.dtd"
   xmlns="http://www.w3.org/2000/svg"
   xmlns:svg="http://www.w3.org/2000/svg">
  <sodipodi:namedview
     id="namedview6378"
     pagecolor="#ffffff"
     bordercolor="#999999"
     borderopacity="1"
     inkscape:pageshadow="0"
     inkscape:pageopacity="0"
     inkscape:pagecheckerboard="0"
     inkscape:document-units="mm"
     showgrid="false"
     inkscape:zoom="1.4142136"
     inkscape:cx="85.913474"
     inkscape:cy="125.86501"
     inkscape:window-width="1920"
     inkscape:window-height="1017"
     inkscape:window-x="-8"
     inkscape:window-y="-8"
     inkscape:window-maximized="1"
     inkscape:current-layer="layer5" />
  <defs
     id="defs6373" />
  <g
     inkscape:groupmode="layer"
     id="layer5"
     inkscape:label="Слой 3"
     style="display:inline"
     transform="translate(-26.149308,-2.2675618)">
    <path
       id="path6530"
       style="fill:#000000;fill-opacity:1;stroke:none;stroke-width:0.999999px;stroke-linecap:butt;stroke-linejoin:miter;stroke-opacity:1"
       d="m 378.80078,8.5703126 c -55.32238,4.7594474 -16.68721,5.7864694 -74.16797,4.3105464 -3.85497,3.351668 -7.1787,7.088509 -12.36133,9.47461 -2.8907,-1.014692 -5.80643,-2.006743 -7.17578,-4.416016 -0.98215,3.472956 -2.62325,6.638789 -6.34765,8.832031 -0.103,-1.14445 -0.50153,-2.141178 -3.86328,-1.65625 -4.75337,-2.355919 -8.47308,-5.574517 -12.14454,-8.832031 -6.41874,0.209242 -12.66072,0.891985 -19.5957,-0.275391 -4.3572,5.86475 -6.01447,10.605839 -13.79883,17.939454 2.38436,-2.936654 4.51211,-5.731804 6.34766,-8.832032 -0.0469,-5.600577 -3.95331,-7.41552 -5.51953,-10.763672 -40.61725,0.09543 -16.58059,0.176007 -56.10742,-3.363281 -1.59351,1.540273 -3.20508,3.065003 -6.07032,3.587891 -2.90035,-0.389743 -3.52983,-1.915668 -3.86523,-3.587891 -18.47761,1.387361 -11.19588,1.924623 -29.41992,0.01563 -14.53475,3.465694 -27.55054,8.198262 -35.878908,16.835938 6.167068,1.045282 9.654188,3.738392 11.039068,7.726562 1.44083,11.747304 3.1014,23.5322 1.51757,34.775391 2.27765,5.918479 6.2613,9.399486 10.32422,12.767578 -1.41084,0.57857 -2.86083,1.068774 -3.51367,3.416016 0.57642,2.310493 1.14848,4.42228 2.24414,5.953125 -1.65222,3.271774 -2.67098,10.183659 -7.51367,13.464849 1.80471,33.33045 -1.24726,65.63896 -4.58594,98.45507 -4.40375,4.59595 -6.80233,9.99827 -7.60937,16.39258 13.79603,12.66164 27.4138,19.50635 58.54492,21.85742 16.57597,-2.98028 15.52725,-4.30549 35.38672,-8.85547 16.76871,1.51774 33.50576,3.22403 49.76367,7.80664 5.57215,-0.80284 11.34541,-1.4046 15.41601,-3.70899 0.86382,3.0976 4.31767,3.97565 6.83008,5.66016 77.05582,-5.32726 58.46422,-0.62264 133.28125,-2.96484 3.24718,-3.25217 7.78165,-5.61962 9.17188,-10.14844 -0.59369,2.77053 -1.28163,5.50828 -0.48829,8.7832 4.48967,-2.26538 8.79217,-5.52333 14.14844,-5.75781 -4.77139,-40.98379 -8.76524,-82.96744 -12.25,-125.60547 -6.38891,-3.14129 -10.54572,-1.82174 -15.52344,-2.14062 4.87431,-3.61747 9.48743,-4.36553 14.83399,-13.177733 -3.25818,-18.750151 0.44667,-42.914891 1.38086,-64.925781 C 404.38899,20.154499 392.0704,14.229211 378.80078,8.5703126 Z M 378.25,12.226563 c 19.15952,7.166374 19.68373,18.351232 20.56055,29.460937 2.84916,-4.394157 4.89679,-9.187932 9.79687,-12.556641 -2.03017,21.955361 -3.17602,43.27896 -1.58594,62.648438 -6.13848,7.985749 -11.67537,11.157913 -17.31836,15.179683 6.80969,0.4404 14.15705,0.5581 18.49024,2.48438 L 420.54492,231.5 c -3.40581,0.70454 -6.95912,2.51862 -10.625,5.17383 0.0113,-2.33595 0.18889,-4.40876 -0.41406,-7.72852 -4.03249,5.3396 -6.95527,6.79328 -10.28125,9.66016 -76.31418,1.5604 -57.90908,-1.65867 -131.6543,2.4707 -3.99289,-0.88383 -5.89148,-3.10115 -7.03711,-5.79687 -3.72977,2.4046 -10.52399,2.76736 -16.42187,3.72656 -14.82099,-4.00791 -31.24663,-6.73174 -49.7461,-7.79688 -40.83501,6.68809 -16.84922,6.1397 -37.44531,7.8379 -5.56171,-1.21451 -12.53387,-6.68182 -18.35547,-12.57422 l -7.11718,0.94336 3.95312,-5.98633 c -7.94887,-3.23345 -10.15696,-15.36385 -13.10937,-26.3418 l -10.64063,7.18359 c 2.76231,-31.83402 4.39482,-64.04458 5.60352,-96.39648 l 7.58008,-14.080078 -2.92579,-3.806641 4.58594,-4.683593 c -5.00941,-3.68288 -9.69834,-7.606124 -11.80664,-13.464844 l -0.40039,-34.134766 c -1.18414,-5.002588 -5.18228,-7.191535 -9.24609,-9.314453 6.72985,-5.937419 18.36641,-8.856705 29.73828,-11.9375 18.89541,1.747521 10.10368,-0.567091 26.45508,-0.636719 1.54558,1.678846 3.16504,3.233777 5.79492,3.105469 3.6906,-0.648866 5.78194,-1.937899 7.6582,-3.3125 52.83194,3.998122 14.71019,2.536755 54.31445,4.054687 2.73592,3.050877 3.955,5.595441 3.93164,7.726563 -0.71162,3.641656 -3.13419,7.093357 -5.45117,10.556641 4.42521,-4.210203 3.56429,-0.542267 16.42188,-17.31836 5.81407,0.229467 11.28718,1.537141 17.59375,0.207032 3.67903,3.880853 8.21365,5.956141 12.69531,8.142578 1.66532,-1.622335 2.85231,0.208776 4.07226,1.792968 2.56985,-1.897316 5.258,-2.671793 7.58985,-6.830078 2.13528,1.039816 3.79099,1.200351 6.62305,3.517578 7.42487,-3.853395 8.89147,-6.268625 12.9707,-9.314453 55.67248,-0.63151 17.86255,1.853222 72.80078,-3.917968 z m 17.12109,8.617187 c 4.54209,1.412728 8.14803,3.643367 11.22071,6.341797 -3.28309,1.841741 -4.30129,4.589739 -5.85547,7.123047 1.30394,-4.598976 -1.56726,-9.04808 -5.36524,-13.464844 z M 120.70313,198.88281 c 2.50903,8.91514 4.63381,18.02918 11.59179,24.63086 -2.2347,1.47006 -3.60701,3.88902 -4.00195,7.38281 2.57264,-2.25459 5.66509,-2.56438 8.9707,-2.07031 4.61485,5.70011 9.50166,7.57705 14.28125,10.97071 -16.75408,-4.13703 -34.60892,-5.10149 -47.00586,-21.78711 1.66838,-9.13124 9.91029,-13.39231 16.16407,-19.12696 z"
       sodipodi:nodetypes="ccccccccccccccccccccccccccccccccccccccccccccccccccccccccccccccccccccccccccccccccccccccccccc"
       transform="scale(0.26458333)" />
    <path
       style="fill:#000000;fill-opacity:1;stroke:none;stroke-width:0.303023px;stroke-linecap:butt;stroke-linejoin:miter;stroke-opacity:1"
       d="m 102.41889,13.782646 c 2.70588,-0.576109 1.88933,3.069414 0.25684,2.480681 -4.531038,-3.080806 -5.008038,-7.4043663 -6.897978,-8.7882283 -1.548053,-1.239815 -1.703583,0.290531 -0.60151,1.932983 -2.540003,-0.896451 -1.161213,-4.62402 1.24334,-2.24716 1.87774,2.817896 4.170258,7.5345763 6.013348,8.3805803 1.41948,0.479173 1.65482,-1.333256 -0.014,-1.758856 z"
       id="path14947-0"
       sodipodi:nodetypes="ccccccc" />
    <path
       style="fill:#000000;fill-opacity:1;stroke:none;stroke-width:0.303023px;stroke-linecap:butt;stroke-linejoin:miter;stroke-opacity:1"
       d="m 95.490312,14.41009 c 2.70588,-0.576109 1.88933,3.069414 0.25684,2.480681 -4.53104,-3.080806 -5.00804,-7.4043666 -6.89798,-8.7882276 -1.54805,-1.239815 -1.70358,0.290531 -0.60151,1.9329826 -2.54,-0.8964516 -1.16121,-4.6240196 1.24334,-2.2471596 1.87774,2.8178966 4.17026,7.5345756 6.01335,8.3805796 1.41948,0.479173 1.65482,-1.333256 -0.014,-1.758856 z"
       id="path14947-7-5"
       sodipodi:nodetypes="ccccccc" />
    <path
       style="fill:#000000;fill-opacity:1;stroke:none;stroke-width:0.264583px;stroke-linecap:butt;stroke-linejoin:miter;stroke-opacity:1"
       d="m 102.51527,8.5571867 c -0.67666,-2.685715 -5.184988,-0.894602 -2.02635,1.369159 -1.597618,-2.645649 0.82715,-2.568411 2.02635,-1.369159 z"
       id="path18959-8"
       sodipodi:nodetypes="ccc" />
    <path
       style="fill:#000000;fill-opacity:1;stroke:none;stroke-width:0.264583px;stroke-linecap:butt;stroke-linejoin:miter;stroke-opacity:1"
       d="m 88.627412,16.055898 c 0.67666,2.685716 5.185,0.894602 2.02636,-1.369159 1.59762,2.64565 -0.82716,2.568412 -2.02636,1.369159 z"
       id="path18959-4-6"
       sodipodi:nodetypes="ccc" />
    <path
       style="fill:#000000;fill-opacity:1;stroke:none;stroke-width:0.264583px;stroke-linecap:butt;stroke-linejoin:miter;stroke-opacity:1"
       d="m 103.05387,11.08506 -3.227138,0.07745 0.516338,0.903598 3.4595,-0.05163 z"
       id="path19775-49"
       sodipodi:nodetypes="ccccc" />
    <path
       style="fill:#000000;fill-opacity:1;stroke:none;stroke-width:0.264583px;stroke-linecap:butt;stroke-linejoin:miter;stroke-opacity:1"
       d="m 88.878402,11.587893 -3.22713,0.07745 0.51634,0.903598 3.45949,-0.05163 z"
       id="path19775-4-8"
       sodipodi:nodetypes="ccccc" />
    <path
       style="fill:#000000;fill-opacity:1;stroke:none;stroke-width:0.29448px;stroke-linecap:butt;stroke-linejoin:miter;stroke-opacity:1"
       d="m 97.314112,11.188345 -4.636603,0.113963 0.60312,0.994874 4.522813,-0.142907 z"
       id="path19775-7-8"
       sodipodi:nodetypes="ccccc" />
    <path
       style="display:inline;fill:#000000;fill-opacity:1;stroke:none;stroke-width:0.303023px;stroke-linecap:butt;stroke-linejoin:miter;stroke-opacity:1"
       d="m 34.455348,13.485067 c -2.70588,-0.576109 -1.88933,3.069414 -0.25684,2.480681 4.53104,-3.080806 5.00804,-7.4043661 6.89798,-8.7882281 1.54805,-1.239815 1.70358,0.290531 0.60151,1.932983 2.54,-0.896451 1.16121,-4.62402 -1.24334,-2.24716 -1.87774,2.817896 -4.17026,7.5345761 -6.01335,8.3805801 -1.41948,0.479173 -1.65482,-1.333256 0.014,-1.758856 z"
       id="path14947-0-9"
       sodipodi:nodetypes="ccccccc" />
    <path
       style="display:inline;fill:#000000;fill-opacity:1;stroke:none;stroke-width:0.303023px;stroke-linecap:butt;stroke-linejoin:miter;stroke-opacity:1"
       d="m 41.516216,13.980219 c -2.70588,-0.576109 -1.88933,3.069414 -0.25684,2.480681 4.53104,-3.080806 5.00804,-7.4043661 6.89798,-8.7882271 1.54805,-1.239815 1.70358,0.290531 0.60151,1.932983 2.54,-0.896452 1.16121,-4.62402 -1.24334,-2.24716 -1.87774,2.8178961 -4.17026,7.5345751 -6.01335,8.3805791 -1.41948,0.479173 -1.65482,-1.333256 0.014,-1.758856 z"
       id="path14947-7-5-1"
       sodipodi:nodetypes="ccccccc" />
    <path
       style="display:inline;fill:#000000;fill-opacity:1;stroke:none;stroke-width:0.264583px;stroke-linecap:butt;stroke-linejoin:miter;stroke-opacity:1"
       d="m 34.358968,8.2596079 c 0.67666,-2.685715 5.18499,-0.894602 2.02635,1.369159 1.59762,-2.645649 -0.82715,-2.568411 -2.02635,-1.369159 z"
       id="path18959-8-8"
       sodipodi:nodetypes="ccc" />
    <path
       style="display:inline;fill:#000000;fill-opacity:1;stroke:none;stroke-width:0.264583px;stroke-linecap:butt;stroke-linejoin:miter;stroke-opacity:1"
       d="m 48.379116,15.626027 c -0.67666,2.685716 -5.185,0.894602 -2.02636,-1.369159 -1.59762,2.64565 0.82716,2.568412 2.02636,1.369159 z"
       id="path18959-4-6-2"
       sodipodi:nodetypes="ccc" />
    <path
       style="display:inline;fill:#000000;fill-opacity:1;stroke:none;stroke-width:0.264583px;stroke-linecap:butt;stroke-linejoin:miter;stroke-opacity:1"
       d="m 33.820368,10.787481 3.22714,0.07745 -0.51634,0.903598 -3.4595,-0.05163 z"
       id="path19775-49-0"
       sodipodi:nodetypes="ccccc" />
    <path
       style="display:inline;fill:#000000;fill-opacity:1;stroke:none;stroke-width:0.264583px;stroke-linecap:butt;stroke-linejoin:miter;stroke-opacity:1"
       d="m 48.128126,11.158022 3.22713,0.07745 -0.51634,0.903598 -3.45949,-0.05163 z"
       id="path19775-4-8-7"
       sodipodi:nodetypes="ccccc" />
    <path
       style="display:inline;fill:#000000;fill-opacity:1;stroke:none;stroke-width:0.29448px;stroke-linecap:butt;stroke-linejoin:miter;stroke-opacity:1"
       d="m 39.560128,10.890766 4.6366,0.113963 -0.60312,0.994874 -4.52281,-0.142907 z"
       id="path19775-7-8-5"
       sodipodi:nodetypes="ccccc" />
    <path
       style="opacity:1;fill:#000000;fill-opacity:1;stroke:none;stroke-width:0.228056px;stroke-linecap:butt;stroke-linejoin:miter;stroke-opacity:1"
       d="m 44.520314,20.963491 c 2.656178,1.154442 45.128807,1.318386 49.016433,0.132292 z"
       id="path20702-2"
       sodipodi:nodetypes="ccc" />
    <path
       style="opacity:1;fill:#000000;fill-opacity:1;stroke:none;stroke-width:0.222325px;stroke-linecap:butt;stroke-linejoin:miter;stroke-opacity:1"
       d="m 45.607849,29.792563 c 1.576457,0.947905 46.288753,0.979557 46.957456,0 z"
       id="path20702-9"
       sodipodi:nodetypes="ccc" />
    <path
       id="path28119"
       style="display:inline;opacity:1;fill:#000000;fill-opacity:1;stroke:none;stroke-width:0.185407px;stroke-linecap:butt;stroke-linejoin:miter;stroke-opacity:1"
       d="m 85.103455,40.909032 c -1.43882,0.01194 -2.734213,0.644176 -3.915638,1.771507 -4.534617,0.14162 -4.992047,2.831414 -4.68696,5.997847 -0.113256,0.623539 0.004,1.200961 0.327722,1.737105 -0.481431,0.61168 -0.479989,1.310934 0,2.097418 1.273909,0.866154 1.021449,1.528929 1.048708,2.228867 -0.449868,0.613009 0.05855,1.269352 1.786355,3.51839 0.244803,0.894123 1.376119,2.386026 3.722264,2.217279 0.230019,-0.01654 2.993349,0.559714 3.570171,0.458811 1.625771,-0.09029 2.832494,-0.519634 3.965995,-1.310709 1.522742,-0.98177 4.113915,-1.446267 4.490306,-2.556766 0.295372,-1.110054 0.904595,-2.79923 0.589899,-4.096701 -0.174498,-0.714031 -0.186243,-1.563602 -0.852072,-1.868193 -0.09861,-1.104101 -0.396951,-2.014497 -1.114626,-3.113897 -0.4856,-1.277386 0.02431,-2.098313 -0.589892,-3.146487 -0.285671,-1.515607 -0.991253,-1.686764 -1.704153,-1.835242 -0.537659,-1.520975 -1.626287,-2.050247 -3.47421,-1.212751 -1.127676,-0.612457 -2.179413,-0.894652 -3.163869,-0.886478 z m -0.353432,0.725334 c 0.975566,-0.01228 1.912413,0.441211 2.687316,0.721711 -1.829977,-0.338535 -3.603657,-0.592626 -4.704704,0.162231 0.664293,-0.649085 1.349897,-0.87554 2.017388,-0.883942 z m 4.925237,0.267609 c 0.446354,-0.0011 0.823087,0.346644 1.238462,0.500454 -0.605225,-0.11963 -1.072829,-0.445687 -1.900423,-0.231759 0.241906,-0.19558 0.459074,-0.268198 0.661961,-0.268695 z m -9.647323,1.495931 c -1.362661,0.893128 -2.55913,1.952443 -3.012865,3.754493 -0.03335,-2.368982 1.361601,-3.199735 3.012865,-3.754493 z m 3.701261,0.418252 c -1.454543,0.445881 -2.529952,1.270897 -3.430031,2.271237 0.643485,-1.288181 1.797736,-2.033671 3.430031,-2.271237 z m 10.337535,10.171317 c -0.741816,2.217413 -3.733801,6.818602 -7.603867,5.211314 2.031296,0.159141 5.883702,-1.494193 7.603867,-5.211314 z"
       sodipodi:nodetypes="sccccccscccccccccssccssccsccccccccc" />
  </g>
  <g
     inkscape:groupmode="layer"
     id="layer4"
     inkscape:label="Слой 2"
     style="display:inline"
     transform="translate(-26.149308,-2.2675618)">
    <g
       inkscape:label="Слой 1"
       id="layer1-0"
       transform="matrix(0.19222733,-0.03726142,0.03726142,0.19222733,56.60408,35.92035)">
      <path
         style="fill:#ffffff;fill-opacity:1;stroke:none;stroke-width:0.264583px;stroke-linecap:butt;stroke-linejoin:miter;stroke-opacity:1"
         d="m 115.72198,121.13543 31.80668,-31.60014 c 0.41307,0 1.10064,0.23052 1.10064,0.23052 l -0.51562,0.96164 -31.68708,31.32394 z"
         id="path19222"
         sodipodi:nodetypes="cccccc" />
      <path
         style="fill:#ffffff;fill-opacity:1;stroke:none;stroke-width:0.264583px;stroke-linecap:butt;stroke-linejoin:miter;stroke-opacity:1"
         d="m 131.46911,89.15619 v 32.93284 h 1.16835 V 88.8641 Z"
         id="path19884" />
      <path
         style="fill:#ffffff;fill-opacity:1;stroke:none;stroke-width:0.264583px;stroke-linecap:butt;stroke-linejoin:miter;stroke-opacity:1"
         d="m 148.81951,104.87066 h -32.94263 v 1.29085 h 33.0459 z"
         id="path19954" />
      <path
         id="path20022"
         style="fill:#ffffff;fill-opacity:1;stroke:none;stroke-width:0.319426px;stroke-linecap:butt;stroke-linejoin:miter;stroke-opacity:1"
         d="m 131.49005,99.13431 -6.03105,6.03105 6.71669,6.81028 6.46776,-6.46777 v -6.37356 z m 0.60766,1.16853 h 5.48764 v 5.11332 l -5.22312,5.22312 -5.24558,-5.35538 z" />
      <path
         id="rect18339"
         style="display:inline;fill:#ffffff;fill-opacity:1;fill-rule:evenodd;stroke-width:0.264999"
         d="M 114.89336,88.206938 V 123.0384 h 34.83095 V 88.206938 Z m 1.27507,1.361355 32.04506,0.09036 0.0645,32.057117 -32.17414,0.1549 z"
         sodipodi:nodetypes="cccccccccc" />
      <path
         id="circle18559"
         style="display:inline;fill:#ffffff;fill-opacity:1;fill-rule:evenodd;stroke-width:0.296761"
         d="m 115.6562,101.05856 a 4.5391031,4.5391031 0 0 0 -4.53935,4.53934 4.5391031,4.5391031 0 0 0 4.53935,4.53876 4.5391031,4.5391031 0 0 0 4.53876,-4.53876 4.5391031,4.5391031 0 0 0 -4.53876,-4.53934 z m -0.0145,0.96412 a 3.585024,3.585024 0 0 1 3.58506,3.58506 3.585024,3.585024 0 0 1 -3.58506,3.58506 3.585024,3.585024 0 0 1 -3.58507,-3.58506 3.585024,3.585024 0 0 1 3.58507,-3.58506 z" />
      <path
         id="circle18559-9"
         style="display:inline;fill:#ffffff;fill-opacity:1;fill-rule:evenodd;stroke-width:0.296761"
         d="m 131.90681,84.55553 a 4.5391031,4.5391031 0 0 0 -4.53934,4.53934 4.5391031,4.5391031 0 0 0 4.53934,4.53876 4.5391031,4.5391031 0 0 0 4.53876,-4.53876 4.5391031,4.5391031 0 0 0 -4.53876,-4.53934 z m -0.0145,0.96412 a 3.585024,3.585024 0 0 1 3.58506,3.58506 3.585024,3.585024 0 0 1 -3.58506,3.58506 3.585024,3.585024 0 0 1 -3.58506,-3.58506 3.585024,3.585024 0 0 1 3.58506,-3.58506 z" />
      <path
         id="circle18559-2"
         style="display:inline;fill:#ffffff;fill-opacity:1;fill-rule:evenodd;stroke-width:0.296761"
         d="m 148.57215,85.15067 a 4.5391031,4.5391031 0 0 0 -4.53934,4.53934 4.5391031,4.5391031 0 0 0 4.53934,4.53876 4.5391031,4.5391031 0 0 0 4.53876,-4.53876 4.5391031,4.5391031 0 0 0 -4.53876,-4.53934 z m -0.0145,0.96411 a 3.585024,3.585024 0 0 1 3.58506,3.58506 3.585024,3.585024 0 0 1 -3.58506,3.58507 3.585024,3.585024 0 0 1 -3.58506,-3.58507 3.585024,3.585024 0 0 1 3.58506,-3.58506 z" />
      <path
         id="circle18559-1"
         style="display:inline;fill:#ffffff;fill-opacity:1;fill-rule:evenodd;stroke-width:0.296761"
         d="m 148.73362,101.03164 a 4.5391031,4.5391031 0 0 0 -4.53934,4.53934 4.5391031,4.5391031 0 0 0 4.53934,4.53876 4.5391031,4.5391031 0 0 0 4.53877,-4.53876 4.5391031,4.5391031 0 0 0 -4.53877,-4.53934 z m -0.0145,0.96411 a 3.585024,3.585024 0 0 1 3.58507,3.58506 3.585024,3.585024 0 0 1 -3.58507,3.58507 3.585024,3.585024 0 0 1 -3.58506,-3.58507 3.585024,3.585024 0 0 1 3.58506,-3.58506 z" />
      <path
         id="circle18559-8"
         style="display:inline;fill:#ffffff;fill-opacity:1;fill-rule:evenodd;stroke-width:0.296761"
         d="m 131.9841,117.86012 a 4.5391031,4.5391031 0 0 0 -4.53934,4.53934 4.5391031,4.5391031 0 0 0 4.53934,4.53876 4.5391031,4.5391031 0 0 0 4.53876,-4.53876 4.5391031,4.5391031 0 0 0 -4.53876,-4.53934 z m -0.0145,0.96411 a 3.585024,3.585024 0 0 1 3.58506,3.58506 3.585024,3.585024 0 0 1 -3.58506,3.58507 3.585024,3.585024 0 0 1 -3.58506,-3.58507 3.585024,3.585024 0 0 1 3.58506,-3.58506 z" />
      <path
         id="circle18559-6"
         style="display:inline;fill:#ffffff;fill-opacity:1;fill-rule:evenodd;stroke-width:0.296761"
         d="m 115.63413,117.5045 a 4.5391031,4.5391031 0 0 0 -4.53934,4.53934 4.5391031,4.5391031 0 0 0 4.53934,4.53876 4.5391031,4.5391031 0 0 0 4.53877,-4.53876 4.5391031,4.5391031 0 0 0 -4.53877,-4.53934 z m -0.0145,0.96411 a 3.585024,3.585024 0 0 1 3.58507,3.58506 3.585024,3.585024 0 0 1 -3.58507,3.58507 3.585024,3.585024 0 0 1 -3.58506,-3.58507 3.585024,3.585024 0 0 1 3.58506,-3.58506 z" />
    </g>
  </g>
</svg>
