<?xml version="1.0" encoding="UTF-8" standalone="no"?>
<!-- Created with Inkscape (http://www.inkscape.org/) -->

<svg
   width="134.13239mm"
   height="63.891705mm"
   viewBox="0 0 134.13239 63.891705"
   version="1.1"
   id="svg6376"
   inkscape:version="1.1.2 (b8e25be833, 2022-02-05)"
   sodipodi:docname="login_page.svg"
   xmlns:inkscape="http://www.inkscape.org/namespaces/inkscape"
   xmlns:sodipodi="http://sodipodi.sourceforge.net/DTD/sodipodi-0.dtd"
   xmlns="http://www.w3.org/2000/svg"
   xmlns:svg="http://www.w3.org/2000/svg">
  <sodipodi:namedview
     id="namedview6378"
     pagecolor="#ffffff"
     bordercolor="#999999"
     borderopacity="1"
     inkscape:pageshadow="0"
     inkscape:pageopacity="0"
     inkscape:pagecheckerboard="0"
     inkscape:document-units="mm"
     showgrid="false"
     inkscape:zoom="0.70710678"
     inkscape:cx="-72.831998"
     inkscape:cy="60.811183"
     inkscape:window-width="1920"
     inkscape:window-height="1017"
     inkscape:window-x="-8"
     inkscape:window-y="-8"
     inkscape:window-maximized="1"
     inkscape:current-layer="layer5" />
  <defs
     id="defs6373" />
  <g
     inkscape:groupmode="layer"
     id="layer5"
     inkscape:label="Слой 3"
     style="display:inline"
     transform="translate(-2.3368082,-0.54777018)">
    <path
       id="path6530"
       style="fill:#000000;fill-opacity:1;stroke:none;stroke-width:0.999999px;stroke-linecap:butt;stroke-linejoin:miter;stroke-opacity:1"
       d="M 471.80078,2.0703125 C 416.4784,6.8297597 362.11357,14.356782 304.63281,12.880859 c -3.85497,3.351668 -7.1787,7.088509 -12.36133,9.47461 -2.8907,-1.014692 -5.80643,-2.006743 -7.17578,-4.416016 -0.98215,3.472956 -2.62325,6.638789 -6.34765,8.832031 -0.103,-1.14445 -0.50153,-2.141178 -3.86328,-1.65625 -4.75337,-2.355919 -8.47308,-5.574517 -12.14454,-8.832031 -6.41874,0.209242 -12.66072,0.891985 -19.5957,-0.275391 -4.3572,5.86475 -6.01447,10.605839 -13.79883,17.939454 2.38436,-2.936654 4.51211,-5.731804 6.34766,-8.832032 -0.0469,-5.600577 -3.95331,-7.41552 -5.51953,-10.763672 -40.61725,0.09543 -81.08059,-0.323993 -120.60742,-3.863281 -1.59351,1.540273 -3.20508,3.065003 -6.07032,3.587891 -2.90035,-0.389743 -3.529835,-1.915668 -3.865231,-3.587891 C 81.15325,11.875642 62.934978,9.9129044 44.710938,8.0039062 30.176188,11.4696 17.160402,16.202168 8.8320312,24.839844 c 6.1670718,1.045282 9.6541828,3.738392 11.0390628,7.726562 1.440837,11.747304 3.101406,23.5322 1.517578,34.775391 2.277646,5.918479 6.261301,9.399486 10.324219,12.767578 -1.410842,0.57857 -2.860832,1.068774 -3.513672,3.416016 0.576423,2.310493 1.148476,4.42228 2.24414,5.953125 -1.652222,3.271774 -2.670984,10.183656 -7.513671,13.464844 1.804707,33.33045 -1.247257,65.63897 -4.585938,98.45508 -4.403748,4.59595 -6.802336,9.99827 -7.609375,16.39258 13.796034,12.66164 27.413804,19.50635 58.544922,21.85742 18.999572,1.38347 38.672603,2.34608 60.595703,1.90234 21.59692,-1e-4 43.19409,-2.98073 64.79102,-7.75781 16.76871,1.51774 33.50576,3.22403 49.76367,7.80664 5.57215,-0.80284 11.34541,-1.4046 15.41601,-3.70899 0.86382,3.0976 4.31767,3.97565 6.83008,5.66016 77.05582,-5.32726 151.46422,-7.12264 226.28125,-9.46484 3.24718,-3.25217 7.78165,-5.61962 9.17188,-10.14844 -0.59369,2.77053 -1.28163,5.50828 -0.48829,8.7832 4.48967,-2.26538 8.79217,-5.52333 14.14844,-5.75781 -4.77139,-40.98379 -8.76524,-82.96744 -12.25,-125.60547 -6.38891,-3.141292 -10.54572,-1.821744 -15.52344,-2.140623 4.87431,-3.617469 9.48743,-4.365532 14.83399,-13.177735 -3.25818,-18.750151 0.44667,-42.914891 1.38086,-64.925781 C 497.38899,13.654499 485.0704,7.7292109 471.80078,2.0703125 Z m -0.55078,3.65625 c 19.15952,7.1663745 19.68373,18.3512325 20.56055,29.4609375 2.84916,-4.394157 4.89679,-9.187932 9.79687,-12.556641 -2.03017,21.955361 -3.17602,43.27896 -1.58594,62.648438 -6.13848,7.985749 -11.67537,11.157911 -17.31836,15.179683 6.80969,0.4404 14.15705,0.5581 18.49024,2.48438 L 513.54492,225 c -3.40581,0.70454 -6.95912,2.51862 -10.625,5.17383 0.0113,-2.33595 0.18889,-4.40876 -0.41406,-7.72852 -4.03249,5.3396 -6.95527,6.79328 -10.28125,9.66016 -76.31418,1.5604 -150.90908,4.84133 -224.6543,8.9707 -3.99289,-0.88383 -5.89148,-3.10115 -7.03711,-5.79687 -3.72977,2.4046 -10.52399,2.76736 -16.42187,3.72656 -14.82099,-4.00791 -31.24663,-6.73174 -49.7461,-7.79688 -40.83501,6.68809 -82.22422,11.8897 -128.695308,3.4629 -5.561711,-1.21451 -11.283874,-5.30682 -17.105469,-11.19922 l -7.117187,0.94336 3.953125,-5.98633 c -7.948873,-3.23345 -10.156958,-15.36385 -13.109375,-26.3418 l -10.640625,7.18359 c 2.762307,-31.83402 4.394821,-64.04458 5.603515,-96.39648 l 7.580078,-14.080078 -2.925781,-3.806641 4.585938,-4.683593 C 31.484726,76.621808 26.795796,72.698564 24.6875,66.839844 L 24.287109,32.705078 c -1.184141,-5.002588 -5.182282,-7.191535 -9.246093,-9.314453 6.729852,-5.937419 18.366413,-8.856705 29.738281,-11.9375 18.895408,1.747521 35.603678,1.932909 51.955078,1.863281 1.545581,1.678846 3.165044,3.233777 5.794925,3.105469 3.6906,-0.648866 5.78194,-1.937899 7.6582,-3.3125 52.83194,3.998122 79.21019,3.036755 118.81445,4.554687 2.73592,3.050877 3.955,5.595441 3.93164,7.726563 -0.71162,3.641656 -3.13419,7.093357 -5.45117,10.556641 4.42521,-4.210203 3.56429,-0.542267 16.42188,-17.31836 5.81407,0.229467 11.28718,1.537141 17.59375,0.207032 3.67903,3.880853 8.21365,5.956141 12.69531,8.142578 1.66532,-1.622335 2.85231,0.208776 4.07226,1.792968 2.56985,-1.897316 5.258,-2.671793 7.58985,-6.830078 2.13528,1.039816 3.79099,1.200351 6.62305,3.517578 7.42487,-3.853395 8.89147,-6.268625 12.9707,-9.314453 C 361.1217,15.513021 416.31177,11.497753 471.25,5.7265625 Z m 17.12109,8.6171875 c 4.54209,1.412728 8.14803,3.643367 11.22071,6.341797 -3.28309,1.841741 -4.30129,4.589739 -5.85547,7.123047 1.30394,-4.598976 -1.56726,-9.04808 -5.36524,-13.464844 z M 30.703125,195.88281 c 2.509035,8.91514 4.633809,18.02918 11.591797,24.63086 -2.234699,1.47006 -3.607012,3.88902 -4.001953,7.38281 2.572637,-2.25459 5.665086,-2.56438 8.970703,-2.07031 4.614845,5.70011 9.501659,7.57705 14.28125,10.97071 -16.754083,-4.13703 -34.608927,-5.10149 -47.00586,-21.78711 1.668376,-9.13124 9.910287,-13.39231 16.164063,-19.12696 z"
       transform="scale(0.26458333)"
       sodipodi:nodetypes="cccccccccccccccccccccccccccccccccccccccccccccccccccccccccccccccccccccccccccccccccccccccccccc" />
    <path
       style="fill:#000000;fill-opacity:1;stroke:none;stroke-width:0.303023px;stroke-linecap:butt;stroke-linejoin:miter;stroke-opacity:1"
       d="m 12.217998,12.36334 c -2.705874,-0.576109 -1.889327,3.069414 -0.256835,2.480681 4.531043,-3.080806 5.008039,-7.4043664 6.897983,-8.7882278 1.548044,-1.239815 1.703579,0.2905306 0.601503,1.9329833 2.540004,-0.8964519 1.161215,-4.62402 -1.243337,-2.2471608 -1.877739,2.8178967 -4.170263,7.5345763 -6.013355,8.3805803 -1.419472,0.479173 -1.654817,-1.333256 0.01404,-1.758856 z"
       id="path14947"
       sodipodi:nodetypes="ccccccc" />
    <path
       style="fill:#000000;fill-opacity:1;stroke:none;stroke-width:0.303023px;stroke-linecap:butt;stroke-linejoin:miter;stroke-opacity:1"
       d="m 18.887227,12.600322 c -2.705874,-0.576109 -1.889327,3.069414 -0.256835,2.480681 4.531043,-3.080806 5.008039,-7.4043666 6.897983,-8.788228 1.548044,-1.239815 1.703579,0.2905306 0.601503,1.9329833 2.540004,-0.8964519 1.161215,-4.62402 -1.243337,-2.2471608 -1.877739,2.8178967 -4.170263,7.5345765 -6.013355,8.3805805 -1.419472,0.479173 -1.654817,-1.333256 0.01404,-1.758856 z"
       id="path14947-6"
       sodipodi:nodetypes="ccccccc" />
    <path
       style="fill:#000000;fill-opacity:1;stroke:none;stroke-width:0.303023px;stroke-linecap:butt;stroke-linejoin:miter;stroke-opacity:1"
       d="m 26.554908,12.858492 c -2.705873,-0.576109 -1.889326,3.069414 -0.256835,2.480681 4.531043,-3.080806 5.008039,-7.4043655 6.897983,-8.7882269 1.548045,-1.239815 1.70358,0.2905306 0.601503,1.9329833 2.540005,-0.8964519 1.161215,-4.62402 -1.243336,-2.2471608 -1.877739,2.8178967 -4.170264,7.5345754 -6.013356,8.3805794 -1.419472,0.479173 -1.654817,-1.333256 0.01404,-1.758856 z"
       id="path14947-7"
       sodipodi:nodetypes="ccccccc" />
    <path
       style="fill:#000000;fill-opacity:1;stroke:none;stroke-width:0.303023px;stroke-linecap:butt;stroke-linejoin:miter;stroke-opacity:1"
       d="m 33.767501,13.333895 c -2.705874,-0.576109 -1.889327,3.069414 -0.256835,2.480681 4.531043,-3.080806 5.008039,-7.4043668 6.897983,-8.7882282 1.548044,-1.239815 1.703579,0.2905306 0.601503,1.9329833 2.540004,-0.8964519 1.161215,-4.62402 -1.243337,-2.2471608 -1.877739,2.8178967 -4.170263,7.5345767 -6.013355,8.3805807 -1.419472,0.479173 -1.654817,-1.333256 0.01404,-1.758856 z"
       id="path14947-2"
       sodipodi:nodetypes="ccccccc" />
    <path
       style="fill:#000000;fill-opacity:1;stroke:none;stroke-width:0.264583px;stroke-linecap:butt;stroke-linejoin:miter;stroke-opacity:1"
       d="M 12.12162,7.1378813 C 12.79828,4.452166 17.306613,6.2432793 14.147975,8.5070403 15.745596,5.861391 13.320819,5.9386291 12.12162,7.1378813 Z"
       id="path18959"
       sodipodi:nodetypes="ccc" />
    <path
       style="fill:#000000;fill-opacity:1;stroke:none;stroke-width:0.264583px;stroke-linecap:butt;stroke-linejoin:miter;stroke-opacity:1"
       d="m 40.958438,13.842841 c -0.67666,2.685716 -5.184993,0.894602 -2.026355,-1.369159 -1.597621,2.64565 0.827156,2.568412 2.026355,1.369159 z"
       id="path18959-4"
       sodipodi:nodetypes="ccc" />
    <path
       style="fill:#000000;fill-opacity:1;stroke:none;stroke-width:0.264583px;stroke-linecap:butt;stroke-linejoin:miter;stroke-opacity:1"
       d="m 11.583022,9.6657543 3.227138,0.077452 -0.516342,0.9035977 -3.459492,-0.05163 z"
       id="path19775"
       sodipodi:nodetypes="ccccc" />
    <path
       style="fill:#000000;fill-opacity:1;stroke:none;stroke-width:0.264583px;stroke-linecap:butt;stroke-linejoin:miter;stroke-opacity:1"
       d="m 39.119942,10.565462 3.227138,0.07745 -0.516342,0.903598 -3.459492,-0.05163 z"
       id="path19775-4"
       sodipodi:nodetypes="ccccc" />
    <path
       style="fill:#000000;fill-opacity:1;stroke:none;stroke-width:0.29448px;stroke-linecap:butt;stroke-linejoin:miter;stroke-opacity:1"
       d="M 17.322779,9.7690389 21.95938,9.8830018 21.356266,10.877876 16.833453,10.734969 Z"
       id="path19775-7"
       sodipodi:nodetypes="ccccc" />
    <path
       style="fill:#000000;fill-opacity:1;stroke:none;stroke-width:0.29448px;stroke-linecap:butt;stroke-linejoin:miter;stroke-opacity:1"
       d="m 24.232468,9.9607215 4.636601,0.1139625 -0.603114,0.994875 -4.522813,-0.142907 z"
       id="path19775-7-6"
       sodipodi:nodetypes="ccccc" />
    <path
       style="fill:#000000;fill-opacity:1;stroke:none;stroke-width:0.29448px;stroke-linecap:butt;stroke-linejoin:miter;stroke-opacity:1"
       d="m 31.875858,10.185498 4.636601,0.113963 -0.603114,0.994874 -4.522813,-0.142907 z"
       id="path19775-7-7"
       sodipodi:nodetypes="ccccc" />
    <path
       style="fill:#000000;fill-opacity:1;stroke:none;stroke-width:0.303023px;stroke-linecap:butt;stroke-linejoin:miter;stroke-opacity:1"
       d="m 124.77618,12.988896 c 2.70588,-0.576109 1.88933,3.069414 0.25684,2.480681 -4.53104,-3.080806 -5.00804,-7.4043663 -6.89798,-8.7882283 -1.54805,-1.239815 -1.70358,0.290531 -0.60151,1.932983 -2.54,-0.896451 -1.16121,-4.62402 1.24334,-2.24716 1.87774,2.817896 4.17026,7.5345763 6.01335,8.3805803 1.41948,0.479173 1.65482,-1.333256 -0.014,-1.758856 z"
       id="path14947-0"
       sodipodi:nodetypes="ccccccc" />
    <path
       style="fill:#000000;fill-opacity:1;stroke:none;stroke-width:0.303023px;stroke-linecap:butt;stroke-linejoin:miter;stroke-opacity:1"
       d="m 118.10695,13.225878 c 2.70588,-0.576109 1.88933,3.069414 0.25684,2.480681 -4.53104,-3.080806 -5.00804,-7.4043673 -6.89798,-8.7882283 -1.54805,-1.239815 -1.70358,0.290531 -0.60151,1.932983 -2.54,-0.896452 -1.16121,-4.62402 1.24334,-2.247161 1.87774,2.817897 4.17026,7.5345773 6.01336,8.3805813 1.41947,0.479173 1.65481,-1.333256 -0.014,-1.758856 z"
       id="path14947-6-2"
       sodipodi:nodetypes="ccccccc" />
    <path
       style="fill:#000000;fill-opacity:1;stroke:none;stroke-width:0.303023px;stroke-linecap:butt;stroke-linejoin:miter;stroke-opacity:1"
       d="m 110.43927,13.484048 c 2.70588,-0.576109 1.88933,3.069414 0.25684,2.480681 -4.53104,-3.080806 -5.00804,-7.4043663 -6.89798,-8.7882273 -1.54805,-1.239815 -1.70358,0.290531 -0.60151,1.932983 -2.54,-0.896452 -1.16121,-4.62402 1.24334,-2.24716 1.87774,2.817896 4.17026,7.5345753 6.01335,8.3805793 1.41948,0.479173 1.65482,-1.333256 -0.014,-1.758856 z"
       id="path14947-7-5"
       sodipodi:nodetypes="ccccccc" />
    <path
       style="fill:#000000;fill-opacity:1;stroke:none;stroke-width:0.303023px;stroke-linecap:butt;stroke-linejoin:miter;stroke-opacity:1"
       d="m 103.22668,13.959451 c 2.70587,-0.576109 1.88933,3.069414 0.25684,2.480681 -4.531048,-3.080806 -5.008044,-7.4043673 -6.897988,-8.7882283 -1.548044,-1.239815 -1.703579,0.29053 -0.601503,1.932983 -2.540004,-0.896452 -1.161215,-4.62402 1.243337,-2.247161 1.877739,2.8178973 4.170264,7.5345773 6.013354,8.3805813 1.41947,0.479173 1.65482,-1.333256 -0.014,-1.758856 z"
       id="path14947-2-6"
       sodipodi:nodetypes="ccccccc" />
    <path
       style="fill:#000000;fill-opacity:1;stroke:none;stroke-width:0.264583px;stroke-linecap:butt;stroke-linejoin:miter;stroke-opacity:1"
       d="m 124.87256,7.7634367 c -0.67666,-2.685715 -5.18499,-0.894602 -2.02635,1.369159 -1.59762,-2.645649 0.82715,-2.568411 2.02635,-1.369159 z"
       id="path18959-8"
       sodipodi:nodetypes="ccc" />
    <path
       style="fill:#000000;fill-opacity:1;stroke:none;stroke-width:0.264583px;stroke-linecap:butt;stroke-linejoin:miter;stroke-opacity:1"
       d="m 96.035743,14.468397 c 0.67666,2.685716 5.184997,0.894602 2.026355,-1.369159 1.597621,2.64565 -0.827156,2.568412 -2.026355,1.369159 z"
       id="path18959-4-6"
       sodipodi:nodetypes="ccc" />
    <path
       style="fill:#000000;fill-opacity:1;stroke:none;stroke-width:0.264583px;stroke-linecap:butt;stroke-linejoin:miter;stroke-opacity:1"
       d="m 125.41116,10.29131 -3.22714,0.07745 0.51634,0.903598 3.4595,-0.05163 z"
       id="path19775-49"
       sodipodi:nodetypes="ccccc" />
    <path
       style="fill:#000000;fill-opacity:1;stroke:none;stroke-width:0.264583px;stroke-linecap:butt;stroke-linejoin:miter;stroke-opacity:1"
       d="m 97.874239,11.191018 -3.227138,0.07745 0.516342,0.903598 3.459492,-0.05163 z"
       id="path19775-4-8"
       sodipodi:nodetypes="ccccc" />
    <path
       style="fill:#000000;fill-opacity:1;stroke:none;stroke-width:0.29448px;stroke-linecap:butt;stroke-linejoin:miter;stroke-opacity:1"
       d="m 119.6714,10.394595 -4.6366,0.113963 0.60312,0.994874 4.52281,-0.142907 z"
       id="path19775-7-8"
       sodipodi:nodetypes="ccccc" />
    <path
       style="fill:#000000;fill-opacity:1;stroke:none;stroke-width:0.29448px;stroke-linecap:butt;stroke-linejoin:miter;stroke-opacity:1"
       d="m 112.76171,10.586277 -4.6366,0.113963 0.60312,0.994875 4.52281,-0.142907 z"
       id="path19775-7-6-3"
       sodipodi:nodetypes="ccccc" />
    <path
       style="fill:#000000;fill-opacity:1;stroke:none;stroke-width:0.29448px;stroke-linecap:butt;stroke-linejoin:miter;stroke-opacity:1"
       d="m 105.11832,10.811054 -4.6366,0.113963 0.60312,0.994874 4.52281,-0.142907 z"
       id="path19775-7-7-9"
       sodipodi:nodetypes="ccccc" />
    <path
       style="opacity:1;fill:#000000;fill-opacity:1;stroke:none;stroke-width:0.264583px;stroke-linecap:butt;stroke-linejoin:miter;stroke-opacity:1"
       d="m 36.040681,20.963491 c 3.575193,1.154442 61.272154,1.186094 66.504869,0 z"
       id="path20702-2"
       sodipodi:nodetypes="ccc" />
    <path
       style="opacity:1;fill:#000000;fill-opacity:1;stroke:none;stroke-width:0.264583px;stroke-linecap:butt;stroke-linejoin:miter;stroke-opacity:1"
       d="m 35.834144,29.792563 c 2.232703,0.947905 65.557796,0.979557 66.504866,0 z"
       id="path20702-9"
       sodipodi:nodetypes="ccc" />
    <path
       id="path28119"
       style="display:inline;opacity:1;fill:#000000;fill-opacity:1;stroke:none;stroke-width:0.999999px;stroke-linecap:butt;stroke-linejoin:miter;stroke-opacity:1"
       d="m 452.28711,124.44531 c -7.76033,0.0644 -14.74708,3.47438 -21.11914,9.55469 -24.45763,0.76383 -26.92479,15.27133 -25.2793,32.34961 -0.61085,3.36308 0.0216,6.47743 1.76758,9.36914 -2.59661,3.29912 -2.58883,7.07057 0,11.3125 6.87088,4.67164 5.50923,8.24634 5.65625,12.02148 -2.42638,3.30629 0.31577,6.8463 9.63477,18.97657 1.32036,4.82249 7.42215,12.86912 20.07617,11.95898 1.24062,-0.0892 16.14474,3.01884 19.25586,2.47461 8.76865,-0.48699 15.27716,-2.80266 21.39074,-7.06936 8.21295,-5.29521 22.18855,-7.80049 24.21863,-13.79001 1.59309,-5.98712 4.87895,-15.09775 3.18164,-22.09571 -0.94118,-3.85115 -1.00451,-8.43335 -4.5957,-10.07617 -0.53182,-5.95501 -2.14099,-10.86526 -6.01172,-16.79492 -2.61914,-6.88963 0.13134,-11.31733 -3.18164,-16.9707 -1.5408,-8.17448 -5.34634,-9.09762 -9.19141,-9.89844 -2.89988,-8.20344 -8.77144,-11.05809 -18.73828,-6.54102 -6.08217,-3.30331 -11.75475,-4.82534 -17.06445,-4.78125 z m -1.90625,3.91211 c 5.26175,-0.0662 10.31467,2.37969 14.49414,3.89258 -9.87005,-1.8259 -19.43646,-3.19635 -25.375,0.875 3.58289,-3.50087 7.28072,-4.72226 10.88086,-4.76758 z m 26.56445,1.44336 c 2.40743,-0.006 4.43935,1.86964 6.67969,2.69922 -3.2643,-0.64523 -5.78634,-2.40383 -10.25,-1.25 1.30473,-1.05487 2.47603,-1.44654 3.57031,-1.44922 z m -52.0332,8.06836 c -7.34956,4.81712 -13.80276,10.53058 -16.25,20.25 -0.17991,-12.77719 7.34385,-17.25789 16.25,-20.25 z M 444.875,140.125 c -7.84513,2.40488 -13.64539,6.85463 -18.5,12.25 3.47066,-6.94785 9.69616,-10.96868 18.5,-12.25 z m 55.75586,54.85938 c -4.00101,11.9597 -20.13837,36.77639 -41.01172,28.10742 10.95587,0.85833 31.73396,-8.05899 41.01172,-28.10742 z"
       transform="scale(0.26458333)"
       sodipodi:nodetypes="sccccccscccccccccssccssccsccccccccc" />
  </g>
  <g
     inkscape:groupmode="layer"
     id="layer4"
     inkscape:label="Слой 2"
     style="display:inline"
     transform="translate(-2.3368082,-0.54777018)">
    <g
       inkscape:label="Слой 1"
       id="layer1-0"
       transform="matrix(0.27431612,-0.05317355,0.05317355,0.27431612,79.527043,26.071687)">
      <path
         style="fill:#ffffff;fill-opacity:1;stroke:none;stroke-width:0.264583px;stroke-linecap:butt;stroke-linejoin:miter;stroke-opacity:1"
         d="m 115.72198,121.13543 31.80668,-31.60014 c 0.41307,0 1.10064,0.23052 1.10064,0.23052 l -0.51562,0.96164 -31.68708,31.32394 z"
         id="path19222"
         sodipodi:nodetypes="cccccc" />
      <path
         style="fill:#ffffff;fill-opacity:1;stroke:none;stroke-width:0.264583px;stroke-linecap:butt;stroke-linejoin:miter;stroke-opacity:1"
         d="m 131.46911,89.15619 v 32.93284 h 1.16835 V 88.8641 Z"
         id="path19884" />
      <path
         style="fill:#ffffff;fill-opacity:1;stroke:none;stroke-width:0.264583px;stroke-linecap:butt;stroke-linejoin:miter;stroke-opacity:1"
         d="m 148.81951,104.87066 h -32.94263 v 1.29085 h 33.0459 z"
         id="path19954" />
      <path
         id="path20022"
         style="fill:#ffffff;fill-opacity:1;stroke:none;stroke-width:0.319426px;stroke-linecap:butt;stroke-linejoin:miter;stroke-opacity:1"
         d="m 131.49005,99.13431 -6.03105,6.03105 6.71669,6.81028 6.46776,-6.46777 v -6.37356 z m 0.60766,1.16853 h 5.48764 v 5.11332 l -5.22312,5.22312 -5.24558,-5.35538 z" />
      <path
         id="rect18339"
         style="display:inline;fill:#ffffff;fill-opacity:1;fill-rule:evenodd;stroke-width:0.264999"
         d="M 114.89336,88.206938 V 123.0384 h 34.83095 V 88.206938 Z m 1.27507,1.361355 32.04506,0.09036 0.0645,32.057117 -32.17414,0.1549 z"
         sodipodi:nodetypes="cccccccccc" />
      <path
         id="circle18559"
         style="display:inline;fill:#ffffff;fill-opacity:1;fill-rule:evenodd;stroke-width:0.296761"
         d="m 115.6562,101.05856 a 4.5391031,4.5391031 0 0 0 -4.53935,4.53934 4.5391031,4.5391031 0 0 0 4.53935,4.53876 4.5391031,4.5391031 0 0 0 4.53876,-4.53876 4.5391031,4.5391031 0 0 0 -4.53876,-4.53934 z m -0.0145,0.96412 a 3.585024,3.585024 0 0 1 3.58506,3.58506 3.585024,3.585024 0 0 1 -3.58506,3.58506 3.585024,3.585024 0 0 1 -3.58507,-3.58506 3.585024,3.585024 0 0 1 3.58507,-3.58506 z" />
      <path
         id="circle18559-9"
         style="display:inline;fill:#ffffff;fill-opacity:1;fill-rule:evenodd;stroke-width:0.296761"
         d="m 131.90681,84.55553 a 4.5391031,4.5391031 0 0 0 -4.53934,4.53934 4.5391031,4.5391031 0 0 0 4.53934,4.53876 4.5391031,4.5391031 0 0 0 4.53876,-4.53876 4.5391031,4.5391031 0 0 0 -4.53876,-4.53934 z m -0.0145,0.96412 a 3.585024,3.585024 0 0 1 3.58506,3.58506 3.585024,3.585024 0 0 1 -3.58506,3.58506 3.585024,3.585024 0 0 1 -3.58506,-3.58506 3.585024,3.585024 0 0 1 3.58506,-3.58506 z" />
      <path
         id="circle18559-2"
         style="display:inline;fill:#ffffff;fill-opacity:1;fill-rule:evenodd;stroke-width:0.296761"
         d="m 148.57215,85.15067 a 4.5391031,4.5391031 0 0 0 -4.53934,4.53934 4.5391031,4.5391031 0 0 0 4.53934,4.53876 4.5391031,4.5391031 0 0 0 4.53876,-4.53876 4.5391031,4.5391031 0 0 0 -4.53876,-4.53934 z m -0.0145,0.96411 a 3.585024,3.585024 0 0 1 3.58506,3.58506 3.585024,3.585024 0 0 1 -3.58506,3.58507 3.585024,3.585024 0 0 1 -3.58506,-3.58507 3.585024,3.585024 0 0 1 3.58506,-3.58506 z" />
      <path
         id="circle18559-1"
         style="display:inline;fill:#ffffff;fill-opacity:1;fill-rule:evenodd;stroke-width:0.296761"
         d="m 148.73362,101.03164 a 4.5391031,4.5391031 0 0 0 -4.53934,4.53934 4.5391031,4.5391031 0 0 0 4.53934,4.53876 4.5391031,4.5391031 0 0 0 4.53877,-4.53876 4.5391031,4.5391031 0 0 0 -4.53877,-4.53934 z m -0.0145,0.96411 a 3.585024,3.585024 0 0 1 3.58507,3.58506 3.585024,3.585024 0 0 1 -3.58507,3.58507 3.585024,3.585024 0 0 1 -3.58506,-3.58507 3.585024,3.585024 0 0 1 3.58506,-3.58506 z" />
      <path
         id="circle18559-8"
         style="display:inline;fill:#ffffff;fill-opacity:1;fill-rule:evenodd;stroke-width:0.296761"
         d="m 131.9841,117.86012 a 4.5391031,4.5391031 0 0 0 -4.53934,4.53934 4.5391031,4.5391031 0 0 0 4.53934,4.53876 4.5391031,4.5391031 0 0 0 4.53876,-4.53876 4.5391031,4.5391031 0 0 0 -4.53876,-4.53934 z m -0.0145,0.96411 a 3.585024,3.585024 0 0 1 3.58506,3.58506 3.585024,3.585024 0 0 1 -3.58506,3.58507 3.585024,3.585024 0 0 1 -3.58506,-3.58507 3.585024,3.585024 0 0 1 3.58506,-3.58506 z" />
      <path
         id="circle18559-6"
         style="display:inline;fill:#ffffff;fill-opacity:1;fill-rule:evenodd;stroke-width:0.296761"
         d="m 115.63413,117.5045 a 4.5391031,4.5391031 0 0 0 -4.53934,4.53934 4.5391031,4.5391031 0 0 0 4.53934,4.53876 4.5391031,4.5391031 0 0 0 4.53877,-4.53876 4.5391031,4.5391031 0 0 0 -4.53877,-4.53934 z m -0.0145,0.96411 a 3.585024,3.585024 0 0 1 3.58507,3.58506 3.585024,3.585024 0 0 1 -3.58507,3.58507 3.585024,3.585024 0 0 1 -3.58506,-3.58507 3.585024,3.585024 0 0 1 3.58506,-3.58506 z" />
    </g>
  </g>
</svg>
