<?xml version="1.0" encoding="UTF-8" standalone="no"?>
<!-- Created with Inkscape (http://www.inkscape.org/) -->

<svg
   width="118.32137mm"
   height="183.02228mm"
   viewBox="0 0 118.32137 183.02228"
   version="1.1"
   id="svg11419"
   inkscape:version="1.1.2 (b8e25be833, 2022-02-05)"
   sodipodi:docname="new_portrait.svg"
   xmlns:inkscape="http://www.inkscape.org/namespaces/inkscape"
   xmlns:sodipodi="http://sodipodi.sourceforge.net/DTD/sodipodi-0.dtd"
   xmlns="http://www.w3.org/2000/svg"
   xmlns:svg="http://www.w3.org/2000/svg">
  <sodipodi:namedview
     id="namedview11421"
     pagecolor="#ffffff"
     bordercolor="#999999"
     borderopacity="1"
     inkscape:pageshadow="0"
     inkscape:pageopacity="0"
     inkscape:pagecheckerboard="0"
     inkscape:document-units="mm"
     showgrid="false"
     inkscape:zoom="0.70710678"
     inkscape:cx="79.903066"
     inkscape:cy="390.32294"
     inkscape:window-width="1920"
     inkscape:window-height="1017"
     inkscape:window-x="-8"
     inkscape:window-y="-8"
     inkscape:window-maximized="1"
     inkscape:current-layer="layer1" />
  <defs
     id="defs11416" />
  <g
     inkscape:groupmode="layer"
     id="layer3"
     inkscape:label="Слой 2"
     style="display:inline">
    <ellipse
       style="fill:#ffffff;fill-rule:evenodd;stroke-width:0.264999"
       id="path1704"
       cx="53.214321"
       cy="3.786849"
       rx="2.5466146"
       ry="2.960026" />
    <path
       style="fill:#ffffff;fill-rule:evenodd;stroke-width:0.70822"
       d="m 148.3014,386.592 c -0.10722,-1.17983 -7.51326,-8.00261 -8.6353,-8.00261 -0.46214,0 -1.90276,1.33563 -4.22708,2.05858 l -4.12719,3.16475 -0.0551,-22.75963 c -0.028,-11.58122 -0.16232,-32.97872 0.0254,-47.65489 l 0.33846,-26.4566 2.39488,-4.14611 c 1.40269,-2.42837 4.02857,-5.0791 7.94484,-6.12008 l 4.59977,-1.22266 -1.73562,-0.66858 c -7.26557,-2.79877 -8.47325,-3.12431 -6.95921,-6.05213 0.58215,-1.12576 1.77549,-3.02287 2.38449,-3.5283 1.84138,-1.52821 1.89039,-1.09752 -1.34418,-1.09752 -3.00973,0 -8.20371,-1.33157 -9.3818,-2.38793 -0.98641,-0.8845 -2.36242,-12.07538 -2.36637,-18.95358 l -0.005,-8.71288 3.05207,-1.76872 c 1.5764,-0.91354 -0.12875,-0.0562 7.69118,-3.24182 2.29437,-0.93467 3.46906,-0.64608 3.6623,-0.8193 0.19325,-0.17322 -2.59976,-1.84954 -6.32851,-5.87126 l -7.25855,-7.82885 -2.43933,-23.89226 c -1.40558,-13.76711 -2.5611,-30.54576 -2.97664,-37.35166 -0.41553,-6.8059 -0.25173,-14.63614 -0.43809,-16.06372 -0.31471,-2.41094 -0.064,-4.03477 1.89273,-4.46453 3.3497,-0.73571 10.052,0.82103 31.23019,7.74253 0.73828,0.24129 0.35342,0.90383 0.37565,-3.81557 l 0.0325,-6.89933 3.09759,-0.52332 c 7.80962,-1.31939 20.12131,-3.59125 38.66278,-2.50454 l 21.44398,1.25684 2.2187,1.73705 c 3.79187,2.96871 15.6311,13.40156 17.34962,13.40156 0.68162,0 0.8004,-6.1559 1.50962,-8.95962 l 1.21337,-4.79671 5.26418,3.777 c 7.58366,5.44122 6.16051,5.03052 22.627,2.12116 15.53285,-2.74441 31.24285,-4.2021 41.50475,-4.96627 5.85018,-0.43564 8.78672,-1.28824 9.27593,-0.10311 0.29616,0.71746 1.01916,13.40783 0.59456,26.08197 l -0.8152,24.33292 -1.84073,3.81968 c -0.83117,1.72475 -2.32228,6.01784 -2.78275,8.49387 -0.6755,3.63235 -0.5457,5.04322 -2.19999,6.2604 -2.46799,1.81589 -5.93114,6.64785 -5.93114,8.85829 0,2.38097 6.30538,10.9075 8.27252,14.66443 l 2.8118,3.1448 -0.79805,15.68717 c -1.2966,25.48733 -0.89985,101.94895 0.13207,117.87031 0.50414,7.77817 1.66979,17.65048 1.86894,18.68267 0.35307,1.82987 -1.37864,0.1564 -5.19955,0.80883 l -3.81166,0.65085 -2.71837,-3.63077 c -2.66355,-3.55756 -7.55063,-10.0757 -8.78282,-10.0757 -1.29318,0 -2.57384,7.02871 -2.57384,9.60209 0,1.92779 -1.20237,1.41436 -6.33517,2.62443 -5.69879,1.34349 -12.45083,5.45811 -15.28226,7.31334 -1.86156,1.21974 -1.12417,-0.11479 -27.31207,-2.3161 -17.09141,-1.43667 -52.25212,-1.82394 -65.64508,-0.55685 -8.71832,0.82483 -28.00125,4.15813 -30.98548,5.10508 -0.74817,0.23742 -2.06249,0.24302 -2.11347,-0.31789 z"
       id="path1858"
       transform="scale(0.26458333)"
       sodipodi:nodetypes="ssscsscsscsssssscsssscsssssscsscssscssssscssssscsssscssssssssss" />
  </g>
  <g
     inkscape:label="Слой 1"
     inkscape:groupmode="layer"
     id="layer1"
     transform="translate(-0.29896446,-0.35440174)">
    <path
       id="path10201"
       style="display:inline;fill:#000000;fill-opacity:1;fill-rule:evenodd;stroke:none;stroke-width:0.264999;stroke-miterlimit:4;stroke-dasharray:none;stroke-opacity:1"
       d="m 53.708525,0.35440174 a 3.2826647,3.666029 0 0 0 -3.28249,3.66592726 3.2826647,3.666029 0 0 0 3.28249,3.665926 3.2826647,3.666029 0 0 0 3.28249,-3.665926 3.2826647,3.666029 0 0 0 -3.28249,-3.66592726 z m -0.27234,0.87694806 a 2.3142817,2.6529247 0 0 1 2.31459,2.6525512 2.3142817,2.6529247 0 0 1 -2.31459,2.65307 2.3142817,2.6529247 0 0 1 -2.31407,-2.65307 2.3142817,2.6529247 0 0 1 2.31407,-2.6525512 z" />
    <path
       style="display:inline;fill:#000000;fill-opacity:1;stroke:none;stroke-width:0.264583px;stroke-linecap:butt;stroke-linejoin:miter;stroke-opacity:1"
       d="m 56.582025,5.113169 2.01374,1.807197 -1.08432,0.361439 -1.57484,-0.981049 z"
       id="path10604" />
    <path
       style="display:inline;fill:#000000;fill-opacity:1;stroke:none;stroke-width:0.264583px;stroke-linecap:butt;stroke-linejoin:miter;stroke-opacity:1"
       d="m 51.487245,6.049302 4.1805,-3.8519002 0.29209,0.638943 -4.12573,3.5780662 0.78498,0.200811 3.34075,-3.158194 0.073,0.693708 -2.73832,2.939127 z"
       id="path11247" />
    <path
       id="path1639"
       style="fill:#000000;fill-opacity:1;stroke:none;stroke-width:0.544071px;stroke-linecap:butt;stroke-linejoin:miter;stroke-opacity:1"
       d="m 54.066731,33.36638 c -4.556602,-0.03339 -9.206266,-0.245503 -13.762866,0.235983 l 0.63731,3.141841 -6.256739,-2.176437 c -1.079132,-0.163334 -2.193235,0.08218 -3.024221,0.415141 l 1.421507,22.64654 4.051033,3.053489 -4.3463,1.079468 1.354217,8.170044 c 0.997464,0.25587 1.737371,0.431331 2.734836,0.678234 -0.17627,0.412346 -0.488698,0.335423 -0.856747,1.151216 -0.03135,0.798654 0.674835,1.187077 1.533456,1.451739 -2.160002,0.541004 -2.487791,2.043424 -3.297729,3.306277 l -0.03777,26.606585 c 1.117507,-0.49035 2.088888,-2.10941 3.14115,-1.94838 1.368524,0.90782 1.458648,1.80198 1.857781,2.58864 6.796804,-0.45954 13.220203,-1.99285 20.495743,-1.73429 l 12.692503,1.16713 c 2.260391,-1.15252 4.579302,-2.09574 6.575394,-2.19107 -0.148693,-0.81611 0.198916,-1.702369 0.684768,-2.518476 1.260843,0.961077 1.628905,2.154076 2.284618,3.288046 0.865196,-0.15431 1.914104,-0.61234 3.296102,-0.16371 C 84.06964,87.93395 85.025608,73.697213 85.108834,59.902371 84.001737,58.562204 82.685572,57.16912 82.018829,55.51442 c 0.568375,-1.122112 1.429063,-1.312957 2.188635,-1.98895 0.125682,-1.654212 0.856521,-3.268845 1.546342,-4.54697 -0.21018,-4.68091 0.268586,-9.962366 -0.309295,-15.153625 -5.965233,0.259602 -12.112315,0.40558 -17.8215,1.689342 -1.454328,-0.748015 -3.119477,-1.31975 -4.144824,-2.225808 -0.09521,1.364258 -0.22515,2.7072 -0.544457,3.824958 -1.001078,-0.484068 -1.651344,-1.057251 -2.406004,-1.698129 -0.851124,-0.754289 -1.358388,-1.094075 -1.903867,-1.935689 -1.518868,-0.06389 -3.038262,-0.102038 -4.557128,-0.113169 z m -4.020268,0.723178 c 2.719018,-0.02755 5.370073,0.06729 8.157152,0.133181 1.524156,1.633378 3.184269,3.161152 5.235455,4.384616 0.45425,-1.132133 0.736649,-2.417023 0.662455,-4.018887 1.026583,1.011813 2.128871,1.957388 3.621414,2.561489 5.587951,-1.05706 11.180489,-2.049855 16.826326,-2.296507 0.452292,4.518391 0.294048,8.884148 0.309145,13.29324 -0.920888,1.17767 -1.367224,2.702126 -1.523644,4.43844 -0.977192,0.743786 -1.874688,1.555003 -2.09777,2.936878 0.864084,1.728355 1.664243,3.568578 2.981042,4.504687 -0.468117,13.570417 -0.901573,27.13588 0.2429,40.475925 -0.660539,-0.22848 -1.330211,-0.42043 -2.164016,0.0442 -0.748693,-1.368849 -1.646839,-2.648031 -2.981043,-3.665577 -0.472291,1.005731 -1.355468,1.987298 -0.905353,3.047288 -2.165973,0.333059 -4.281168,0.936929 -6.271229,2.208179 -10.888706,-1.12775 -21.759703,-1.72414 -32.532,0.64037 0.540941,-0.27047 -1.965138,-2.16208 -2.003925,-2.61669 -0.02397,-0.280969 -2.561487,1.22799 -2.561487,1.74446 0.0774,-8.052106 0.155144,-16.34625 0.232547,-25.554845 0.633349,-1.4628 1.82803,-2.582683 3.958164,-3.130785 -0.904506,-0.360669 -2.065807,-0.537658 -2.435898,-1.280051 0.0037,-0.516329 0.514548,-1.177769 1.093048,-1.858323 -1.344473,0.203481 -2.205945,-0.269196 -3.154247,-0.62036 -0.426299,-2.314017 -0.726053,-4.649345 -0.655553,-7.046163 0.737814,-0.698163 2.354243,-1.145292 3.887776,-1.616112 -1.519892,-1.378278 -2.87605,-2.658301 -3.809798,-3.684896 -0.478836,-6.741886 -0.957862,-13.634831 -1.436699,-21.250967 1.761103,-0.794655 5.757944,1.093275 8.962449,1.952168 0.06664,-0.929018 0.07973,-1.903122 -0.202876,-3.123193 3.059639,-0.424101 5.846647,-0.574177 8.565665,-0.601729 z"
       sodipodi:nodetypes="scccccccccccccccccccccccccccccccsccccccccccccccccscccccccccccccc" />
    <path
       style="fill:#000000;fill-opacity:1;stroke:none;stroke-width:0.547884px;stroke-linecap:butt;stroke-linejoin:miter;stroke-opacity:1"
       d="M 11.594537,48.494649 C 9.727645,78.585735 10.558803,108.20674 10.892931,137.91433 Z"
       id="path6525"
       sodipodi:nodetypes="ccc" />
    <path
       style="fill:#000000;fill-opacity:1;stroke:none;stroke-width:0.579157px;stroke-linecap:butt;stroke-linejoin:miter;stroke-opacity:1"
       d="m 104.71489,39.184833 c 2.08609,30.091088 1.15734,59.71209 0.78398,89.419677 z"
       id="path6525-2"
       sodipodi:nodetypes="ccc" />
    <path
       style="fill:#000000;fill-opacity:1;stroke:none;stroke-width:0.484323px;stroke-linecap:butt;stroke-linejoin:miter;stroke-opacity:1"
       d="m 19.897051,21.629132 c 2.193576,20.012218 1.216975,39.711804 0.824379,59.468984 z"
       id="path6525-0"
       sodipodi:nodetypes="ccc" />
    <path
       style="fill:#000000;fill-opacity:1;stroke:none;stroke-width:0.523965px;stroke-linecap:butt;stroke-linejoin:miter;stroke-opacity:1"
       d="m 22.637231,154.05799 78.468699,-2.96346 c -25.909302,0.34303 -50.985095,-1.49041 -78.468699,2.96346 z"
       id="path7100"
       sodipodi:nodetypes="ccc" />
  </g>
</svg>
