<?xml version="1.0" encoding="UTF-8" standalone="no"?>
<!-- Created with Inkscape (http://www.inkscape.org/) -->

<svg
   width="118.32137mm"
   height="183.02228mm"
   viewBox="0 0 118.32137 183.02228"
   version="1.1"
   id="svg11419"
   inkscape:version="1.1.2 (b8e25be833, 2022-02-05)"
   sodipodi:docname="portrait.svg"
   xmlns:inkscape="http://www.inkscape.org/namespaces/inkscape"
   xmlns:sodipodi="http://sodipodi.sourceforge.net/DTD/sodipodi-0.dtd"
   xmlns="http://www.w3.org/2000/svg"
   xmlns:svg="http://www.w3.org/2000/svg">
  <sodipodi:namedview
     id="namedview11421"
     pagecolor="#ffffff"
     bordercolor="#999999"
     borderopacity="1"
     inkscape:pageshadow="0"
     inkscape:pageopacity="0"
     inkscape:pagecheckerboard="0"
     inkscape:document-units="mm"
     showgrid="false"
     inkscape:zoom="11.313708"
     inkscape:cx="206.43099"
     inkscape:cy="23.334524"
     inkscape:window-width="1920"
     inkscape:window-height="1017"
     inkscape:window-x="-8"
     inkscape:window-y="-8"
     inkscape:window-maximized="1"
     inkscape:current-layer="layer2" />
  <defs
     id="defs11416" />
  <g
     inkscape:groupmode="layer"
     id="layer2"
     inkscape:label="Слой 2">
    <path
       style="fill:#ffffff;fill-opacity:1;stroke:none;stroke-width:0.264583px;stroke-linecap:butt;stroke-linejoin:miter;stroke-opacity:1"
       d="M 0.89296874,12.203906 H 116.15208 l 0.29766,130.571874 -23.127876,1.2224 -3.244205,0.0955 -61.702888,-0.6196 -3.717663,0.15485 -22.8797657,-1.20769 z"
       id="path944" />
    <path
       style="fill:#ffffff;fill-opacity:1;stroke:none;stroke-width:0.264583px;stroke-linecap:butt;stroke-linejoin:miter;stroke-opacity:1"
       d="m 2.1166666,150.54791 23.0052144,-0.67129 3.429645,-0.0549 60.906514,0.0808 3.614213,0.0775 22.699487,0.96479 1.30638,10.35182 -0.7184,9.44026 -3.77951,1.24229 -111.738311,-0.76964 z"
       id="path1306" />
    <ellipse
       style="fill:#ffffff;fill-opacity:1;fill-rule:evenodd;stroke:none;stroke-width:0.291824"
       id="path1540"
       cx="53.285191"
       cy="3.6482291"
       rx="2.5373902"
       ry="2.8764882" />
  </g>
  <g
     inkscape:label="Слой 1"
     inkscape:groupmode="layer"
     id="layer1"
     transform="translate(-0.29896446,-0.35440174)">
    <path
       style="display:inline;fill:#000000;fill-opacity:0.995984;stroke:none;stroke-width:0.264583px;stroke-linecap:butt;stroke-linejoin:miter;stroke-opacity:1"
       d="m 0.29896446,11.781515 117.09046554,-0.07302 0.3286,132.571085 -24.097201,0.073 -0.43813,-2.11763 22.709791,0.10953 L 115.30831,15.834208 112.49697,13.132399 2.0697425,13.314953 3.0717106,138.356 l 4.638535,3.92344 17.5556314,0.0516 -0.309804,1.6523 -23.8550075,-0.36144 z"
       id="path839"
       sodipodi:nodetypes="ccccccccccccccc" />
    <path
       id="path841"
       style="display:inline;fill:#000000;fill-opacity:1;stroke:none;stroke-width:0.264583px;stroke-linecap:butt;stroke-linejoin:miter;stroke-opacity:1"
       d="m 8.5882816,18.305762 -0.0016,117.028518 100.0166384,-0.54157 0.15503,-116.331921 z m 1.6050684,1.507916 h 97.06746 V 133.83721 H 10.292053 Z" />
    <path
       style="display:inline;fill:#000000;fill-opacity:1;stroke:none;stroke-width:0.264583px;stroke-linecap:butt;stroke-linejoin:miter;stroke-opacity:1"
       d="m 29.190079,142.27946 h 60.721837 l 0.46471,2.16863 -61.70289,-0.6196 z"
       id="path847" />
    <path
       style="display:inline;fill:#000000;fill-opacity:1;stroke:none;stroke-width:0.264583px;stroke-linecap:butt;stroke-linejoin:miter;stroke-opacity:1"
       d="m 31.255447,140.36899 c -6.214551,-6.60196 -7.025128,18.85285 0.774513,12.70202 l -1.394124,-0.20654 c -4.456227,1.5251 -3.291557,-15.3571 -0.361439,-11.56606 0.530537,-0.005 0.70652,-0.54088 0.98105,-0.92942 z"
       id="path849"
       sodipodi:nodetypes="ccccc" />
    <path
       style="display:inline;fill:#000000;fill-opacity:1;stroke:none;stroke-width:0.264583px;stroke-linecap:butt;stroke-linejoin:miter;stroke-opacity:1"
       d="m 31.643573,145.24712 1.551715,-0.0548 0.03651,3.97969 h -1.569969 z"
       id="path1873" />
    <path
       style="display:inline;fill:#000000;fill-opacity:1;stroke:none;stroke-width:0.264583px;stroke-linecap:butt;stroke-linejoin:miter;stroke-opacity:1"
       d="m 85.652086,145.30006 1.72975,0.0516 -0.18072,3.7693 h -1.65229 z"
       id="path1875" />
    <path
       style="display:inline;fill:#000000;fill-opacity:1;stroke:none;stroke-width:0.264583px;stroke-linecap:butt;stroke-linejoin:miter;stroke-opacity:1"
       d="m 87.199286,140.86945 c 7.881223,-7.81983 7.618453,19.09847 -0.4425,12.09973 l 1.09532,-0.073 c 5.130603,1.5505 4.830413,-14.66889 0.47464,-11.64698 z"
       id="path1877"
       sodipodi:nodetypes="ccccc" />
    <path
       id="path3246"
       style="display:inline;fill:#000000;fill-opacity:1;fill-rule:nonzero;stroke:none;stroke-width:0.264583px;stroke-linecap:butt;stroke-linejoin:miter;stroke-opacity:1"
       d="m 9.5913196,150.0879 c -2.609371,0.001 -5.265505,0.0374 -8.0144961,0.14314 -1.32687004,6.67877 -0.75638604,15.06502 -1.13171604,22.60017 2.38194814,2.91311 5.94761114,4.77357 10.07690554,6.13348 0.745022,1.73805 0.79379,3.01214 0.985985,4.38164 2.400867,0.19156 3.999667,-0.53349 5.038453,-1.89859 0.53054,-0.85436 -1.514208,-3.90971 -1.555978,-8.85889 l 88.451967,1.00872 c 1.43266,0.97505 1.836,2.37926 2.1177,3.83388 1.01691,2.49378 3.89672,0.93257 5.95106,1.1684 -0.17528,-1.04564 -0.37301,-2.10059 0.2558,-2.8112 5.04107,-0.1159 6.459,-1.61726 6.85333,-3.50986 -0.44178,-8.51688 -0.48923,-19.03411 -2.11667,-21.5315 -7.60638,-0.32028 -15.2539,-0.56891 -23.132441,-0.41289 l -0.41289,1.03249 c 7.627191,-0.10835 15.089861,0.11229 22.512321,0.41341 1.68706,4.91802 1.40569,12.63562 1.18804,19.31097 L 2.0822165,171.03957 c 0.5375971,-6.59948 -0.148902,-13.89799 1.6520961,-19.77554 7.6607084,-0.39858 14.8070804,0.0597 22.2027804,0.10284 l -0.516247,-1.13585 c -4.967486,-5e-5 -9.767337,-0.12579 -14.713831,-0.14159 -0.370988,-0.001 -0.7429264,-0.002 -1.1156954,-0.002 z m 1.0619504,22.6043 3.330546,0.0259 c 0.318413,4.11345 0.636571,4.2278 0.954982,6.14433 -2.316269,-0.26592 -4.594,-1.30057 -6.8414434,-2.94297 0.295167,-1.2348 0.830223,-2.40112 2.5559154,-3.2272 z m 94.41388,0.57723 c 2.29738,0.13938 3.68796,0.92006 4.61832,1.84381 -1.37015,0.14453 -2.66356,0.40681 -3.50469,1.36891 -0.0283,-1.07098 -0.40376,-2.14173 -1.11363,-3.21272 z m 5.71386,2.82928 c -0.21212,0.6253 -0.3906,1.24818 0.0181,1.82573 -1.96623,0.10123 -3.36404,-0.0956 -4.30826,-0.52968 1.26855,-0.87031 2.68104,-1.35017 4.29017,-1.29605 z m -99.172242,3.17655 c 1.58442,0.5256 2.829531,0.82523 3.588411,0.80047 -0.39498,1.49011 -1.310264,2.19971 -2.530078,2.45257 -0.110175,-1.32699 -0.620821,-2.2534 -1.058333,-3.25304 z" />
    <path
       style="display:inline;fill:#000000;fill-opacity:1;stroke:none;stroke-width:0.264583px;stroke-linecap:butt;stroke-linejoin:miter;stroke-opacity:1"
       d="m 28.850491,150.17609 60.906515,0.0808 -0.51634,1.16177 -59.779509,-0.25817 z"
       id="path4746" />
    <path
       id="path10201"
       style="display:inline;fill:#000000;fill-opacity:1;fill-rule:evenodd;stroke:none;stroke-width:0.264999;stroke-miterlimit:4;stroke-dasharray:none;stroke-opacity:1"
       d="m 53.708525,0.35440174 a 3.2826647,3.666029 0 0 0 -3.28249,3.66592726 3.2826647,3.666029 0 0 0 3.28249,3.665926 3.2826647,3.666029 0 0 0 3.28249,-3.665926 3.2826647,3.666029 0 0 0 -3.28249,-3.66592726 z m -0.27234,0.87694806 a 2.3142817,2.6529247 0 0 1 2.31459,2.6525512 2.3142817,2.6529247 0 0 1 -2.31459,2.65307 2.3142817,2.6529247 0 0 1 -2.31407,-2.65307 2.3142817,2.6529247 0 0 1 2.31407,-2.6525512 z" />
    <path
       style="display:inline;fill:#000000;fill-opacity:1;stroke:none;stroke-width:0.264583px;stroke-linecap:butt;stroke-linejoin:miter;stroke-opacity:1"
       d="m 56.582025,5.113169 2.01374,1.807197 -1.08432,0.361439 -1.57484,-0.981049 z"
       id="path10604" />
    <path
       style="display:inline;fill:#000000;fill-opacity:1;stroke:none;stroke-width:0.264583px;stroke-linecap:butt;stroke-linejoin:miter;stroke-opacity:1"
       d="M 38.909245,12.183133 57.630205,6.387028 74.565096,11.785973 72.433726,11.9547 58.595765,6.920365 h -1.41994 l -17.22001,5.834665 z"
       id="path10672"
       sodipodi:nodetypes="cccccccc" />
    <path
       style="display:inline;fill:#000000;fill-opacity:1;stroke:none;stroke-width:0.264583px;stroke-linecap:butt;stroke-linejoin:miter;stroke-opacity:1"
       d="m 51.487245,6.049302 4.1805,-3.8519002 0.29209,0.638943 -4.12573,3.5780662 0.78498,0.200811 3.34075,-3.158194 0.073,0.693708 -2.73832,2.939127 z"
       id="path11247" />
  </g>
</svg>
