<?xml version="1.0" encoding="UTF-8" standalone="no"?>
<svg
   width="193.8804mm"
   height="36.757462mm"
   viewBox="0 0 549.65059 104.20743"
   version="1.1"
   id="svg7"
   sodipodi:docname="search_window.svg"
   inkscape:version="1.1.2 (b8e25be833, 2022-02-05)"
   xmlns:inkscape="http://www.inkscape.org/namespaces/inkscape"
   xmlns:sodipodi="http://sodipodi.sourceforge.net/DTD/sodipodi-0.dtd"
   xmlns="http://www.w3.org/2000/svg"
   xmlns:svg="http://www.w3.org/2000/svg">
  <defs
     id="defs11" />
  <sodipodi:namedview
     id="namedview9"
     pagecolor="#ffffff"
     bordercolor="#999999"
     borderopacity="1"
     inkscape:pageshadow="0"
     inkscape:pageopacity="0"
     inkscape:pagecheckerboard="0"
     inkscape:document-units="mm"
     showgrid="false"
     units="mm"
     inkscape:zoom="1.4427479"
     inkscape:cx="324.03444"
     inkscape:cy="107.43388"
     inkscape:window-width="1920"
     inkscape:window-height="1017"
     inkscape:window-x="-8"
     inkscape:window-y="-8"
     inkscape:window-maximized="1"
     inkscape:current-layer="layer1" />
  <g
     inkscape:groupmode="layer"
     id="layer2"
     inkscape:label="Layer 2"
     style="display:inline"
     transform="translate(-0.16124397,0.1760672)">
    <path
       style="fill:#ffffff;fill-opacity:1;stroke:none;stroke-width:0.750094px;stroke-linecap:butt;stroke-linejoin:miter;stroke-opacity:1"
       d="M 38.187477,79.959356 292.44725,75.386403 547.65623,73.956662 543.30201,54.460178 542.71264,36.808876 547.85945,16.910944 106.42,15.29739 l -0.74906,0.137327 -0.38993,10.170665 -6.498834,11.69789 -8.70843,11.177984 -12.087819,9.748242 -17.026929,8.968383 -13.387585,1.559718 -7.538641,7.408661 z"
       id="path1013" />
  </g>
  <g
     inkscape:groupmode="layer"
     id="layer1"
     inkscape:label="Layer 1"
     style="display:inline"
     transform="translate(-0.16124397,0.1760672)">
    <path
       id="Path"
       fill="#000000"
       stroke="#000000"
       stroke-width="0"
       d="m 106.58124,15.121322 c 71.44981,-5.8898125 440.5282,-0.327315 443.2282,0.122685 -12.07,29.91 0.003,61.834895 0.003,61.834895 0,0 -42.73016,2.11 -49.36016,3.3 0,0 -3.35,2.2 -3.46,7.45 0,0 -15.85005,-1.13335 -17.95005,-1.58335 -0.11,-0.02 -4.95995,-3.32665 -4.95995,-3.32665 l 0.16702,-6.247487 c 0,0 -156.59552,0.591688 -192.05516,0.968307 0,0 -244.342525,4.9316 -242.092525,2.0516 7.253508,-5.450399 506.260825,-7.31242 506.260825,-7.31242 0,0 -11,-30.46 0.76,-54.8 0,0 -402.38082,-3.80758 -439.93083,0.77242 0,-0.05 -0.61,-1.6 -0.61,-3.23 z"
       sodipodi:nodetypes="cccccccccccccc" />
    <path
       id="Unnamed"
       fill="#000000"
       stroke="#000000"
       stroke-width="0"
       d="m 4.1612449,103.06132 c 0,0 -1.25,-0.57 -1.86,-1.23 -1.18,-1.29 -2.14000037,-3.109998 -2.14000037,-3.109998 0,0 5.41000037,-11.67 14.06000047,-19.42 10.17,-9.12 23.82,-14.55 23.82,-14.55 0,0 3.63,-5.45 3.63,-5.45 0,0 -14.8,-13.91 11.82,-44 28.12,-25.909999 46.729995,-11.4599997 46.729995,-11.4599997 0,0 4.39,-3.20000005 7.27,0.3 1.88,4.4999998 -2.91,6.6099997 -2.91,6.6099997 0,0 10.53001,14.76 -13.969995,38.52 -23.12,23.62 -38.76,20.03 -38.76,20.03 0,0 -8.36,4 -8.36,4 0,0 -5.29,10.68 -14.55,18.54 -8.82,7.5 -21.6300001,12.189998 -21.6300001,12.189998 0,0 -2.13,-0.14 -3.15,-0.97 z" />
    <path
       id="path4"
       fill="#ffffff"
       stroke="#000000"
       stroke-width="0"
       d="m 44.491245,57.891322 c -12.69,-18.12 34.75,-63.4999998 54,-52.4999998 12.620005,4.6199998 -36.69,65.4399998 -54,52.4999998 z m 9.45,-19.41 c -0.71,-0.32 -3.77,8.27 -1.81,9.15 1.89,0.75 6.3,-7.02 5.8,-7.22 0.12,0.25 -3.87,5.81 -4.51,4.4 -0.86,-0.71 0.06,-6.71 0.52,-6.33 z m 12.29,-19.05 c -0.47,-0.88 -10.83,11.13 -9.13,14.31 5.85,2.72 15.8,-14.52 14.56,-15.09 0.75,0.1 -7.95,14.56 -13.28,13.87 -1.87,-1.39 7.58,-13.29 7.85,-13.09 z m 411.870605,63.69422 c 0.73,-1.63 18.17,-3.19999 18.04,-2.91 -0.33,-0.27 -2.64,5.15 -2.25,5.88 -0.15,0.59 -16.02,-1.43 -15.72,-2.6 z"
       sodipodi:nodetypes="cccccccccccccccccc" />
    <path
       id="Unnamed #1"
       fill="#ffffff"
       stroke="#000000"
       stroke-width="0"
       d="m 55.851245,21.941322 c -17.09,17 -14.51,30.97 -14.72,30.54 -7.64,-21.54 27.91,-54.7299998 48,-50.7299998 0,0 -15.55,1 -33.28,20.1899998 z m -8.39,40.89 c 34.67,-3.99 55.299995,-46.89 55.279995,-50 0,0 1.3,0.739999 2.2,2.74 1.55,15 -22.179995,49.64 -54.089995,50.73 -1.36,-1.18 -2,-2.18 -3.39,-3.47 z M 101.77124,5.5813222 c 5.4,-1.9099999 4.06,2.9499999 2.6,3.4699999 -0.52,0.39 -3.82,-2.5499999 -2.6,-3.4699999 z M 38.971245,65.911322 c 0,0 4.74,-4.22 4.74,-4.22 0,0 3.95,4.18 3.91,4.18 -0.04,0 -5.35,3.48 -5.35,3.52 0,0.04 -3.3,-3.48 -3.3,-3.48 z m -37.0300001,32.84 c 6.37,-14.45 27.5500001,-29.18 35.3700001,-31 0,0 1.73,1.46 4,4.46 -10.64,12.18 -28,24.63 -36.2700001,29.539998 -1.46,-0.72 -2.73,-1.909998 -3.1,-2.999998 z" />
  </g>
</svg>
