<?xml version="1.0" encoding="UTF-8" standalone="no"?>
<!-- Created with Inkscape (http://www.inkscape.org/) -->

<svg
   width="87.642418mm"
   height="5.395771mm"
   viewBox="0 0 87.642418 5.395771"
   version="1.1"
   id="svg5"
   inkscape:version="1.1.2 (b8e25be833, 2022-02-05)"
   sodipodi:docname="separator.svg"
   xmlns:inkscape="http://www.inkscape.org/namespaces/inkscape"
   xmlns:sodipodi="http://sodipodi.sourceforge.net/DTD/sodipodi-0.dtd"
   xmlns="http://www.w3.org/2000/svg"
   xmlns:svg="http://www.w3.org/2000/svg">
  <sodipodi:namedview
     id="namedview7"
     pagecolor="#ffffff"
     bordercolor="#999999"
     borderopacity="1"
     inkscape:pageshadow="0"
     inkscape:pageopacity="0"
     inkscape:pagecheckerboard="0"
     inkscape:document-units="mm"
     showgrid="false"
     inkscape:zoom="5.6568543"
     inkscape:cx="222.11992"
     inkscape:cy="13.965359"
     inkscape:window-width="1920"
     inkscape:window-height="1017"
     inkscape:window-x="-8"
     inkscape:window-y="-8"
     inkscape:window-maximized="1"
     inkscape:current-layer="layer1" />
  <defs
     id="defs2" />
  <g
     inkscape:groupmode="layer"
     id="layer1"
     inkscape:label="Слой 3">
    <path
       style="fill:#ffffff;fill-opacity:1;stroke:none;stroke-width:0.264583px;stroke-linecap:butt;stroke-linejoin:miter;stroke-opacity:1"
       d="m -0.01347,3.982836 0.03927,0.0217 0.449585,0.401009 1.08728,-0.11989 2.70784,-1.39733 0.64568,0.749505 1.02314,-0.228014 1.54933,0.67235 0.61388,0.608038 4.05164,0.06431 1.06991,-1.584408 0.88867,-2.11644 0.86529,2.350301 1.6838,0.140317 0.65481,1.157611 13.45283,-0.05846 12.35956,-2.069669 10.52373,2.519851 5.68136,-0.038 -1.46601,-3.136658 3.42606,2.467232 1.14591,-0.970523 2.59585,1.134225 5.18195,-0.152611 17.39636,-0.114721 0.0157,-0.303 V -0.022088 H -0.011402 Z"
       id="path7529" />
  </g>
  <g
     inkscape:groupmode="layer"
     id="layer2"
     inkscape:label="Слой 2"
     transform="translate(-98.725399,-67.937721)">
    <path
       style="display:inline;fill:#000000;fill-opacity:1;stroke:none;stroke-width:0.264583px;stroke-linecap:butt;stroke-linejoin:miter;stroke-opacity:1"
       d="m 98.751199,71.942257 c 0.29037,-0.03596 0.592951,0.285373 1.051846,0.255283 1.970865,-0.601789 2.695775,-1.494302 3.691855,-2.323542 -0.12273,0.554386 -0.18024,1.087027 0.20654,1.471576 0.31841,-0.08697 0.63682,-0.152627 0.95523,-0.438891 0.093,0.184326 0.21393,0.365864 0.64543,0.516342 l 0.41307,-0.361439 c 0.19493,0.578726 0.72085,0.921032 1.13595,1.34249 1.38478,-0.162027 2.68399,-0.152922 3.89839,0.02582 1.34851,-1.266007 1.46297,-2.994783 2.19445,-4.492175 0.1298,1.186111 0.38901,2.27877 0.95523,3.149687 0.56829,-0.224338 1.23412,-0.09755 1.88465,-0.02582 -0.2102,0.507522 0.15672,0.856194 0.23236,1.213403 4.57823,0.376209 9.15646,0.325071 13.7347,-0.07745 4.07449,-0.876228 8.18065,-1.467459 12.28894,-2.039554 3.38338,1.403482 7.55529,2.039054 10.81737,2.633345 1.68947,-0.02487 3.37848,-0.04814 5.00852,0.129087 -0.92839,-1.328112 -1.40598,-2.78881 -1.93628,-4.234005 1.07859,1.181843 2.25937,2.312593 3.82093,3.252954 0.5285,-0.357883 1.17175,-0.601022 1.54903,-1.110136 0.0815,0.242483 0.12779,0.496692 0.49052,0.645427 0.39646,0.03298 0.7501,0.03265 0.92941,-0.103267 0.001,0.152149 -0.0693,0.309839 0.23236,0.438891 0.59117,0.261964 1.16267,0.228751 1.72974,0.129085 5.69106,0.399662 11.31526,0.182494 16.96184,0.09284 1.47846,0.0568 3.00477,-0.02899 4.72454,-0.09284 l -0.0258,0.542161 c -6.95386,0.08349 -13.43532,-0.147954 -20.91186,0.283987 -0.73432,-0.01473 -1.48206,0.104765 -2.19446,-0.129085 l -2.07449,-0.891878 c -0.42833,0.08131 -0.7077,0.572263 -1.04937,0.891878 -1.05224,-0.76472 -2.35776,-1.299185 -3.15363,-2.296963 0.25876,0.898037 0.89743,1.872056 1.37224,2.813303 -2.00292,-0.157241 -3.98485,-0.01026 -5.96375,0.180721 -3.48542,-0.799351 -7.16143,-1.38905 -10.43011,-2.426808 -4.17373,0.378768 -8.27773,0.966708 -12.21149,2.065369 -4.68841,0.166114 -9.22869,0.184102 -13.52817,-0.03872 -0.29396,-0.125218 -0.68023,-0.135059 -0.85196,-0.413075 0.0556,-0.218493 -0.19728,-0.307608 -0.12909,-0.632518 -0.45588,-0.193728 -0.88756,-0.427337 -1.62647,-0.154903 l -0.78742,-1.9621 c -0.61091,1.09286 -0.72674,1.867458 -1.83302,3.278772 -1.42855,-0.04733 -2.01039,-0.406605 -4.28564,-0.141994 -0.37283,-0.324144 -0.30527,-0.626269 -1.29085,-0.981051 -0.28775,-0.07292 -0.4148,-0.260628 -0.91651,-0.180718 -0.3098,-0.140981 -0.61961,-0.02583 -0.92941,0.103267 -0.0483,-0.249851 -0.19836,-0.454458 -0.55559,-0.566993 -2.31322,1.171338 -2.87857,1.168674 -4.265571,1.202398 z"
       id="path2377-4"
       sodipodi:nodetypes="ccccccccccccccccccccccccccccccccccccccccccccccccc" />
  </g>
</svg>
