<?xml version="1.0" encoding="UTF-8" standalone="no"?>
<!-- Created with Inkscape (http://www.inkscape.org/) -->

<svg
   width="155.91367mm"
   height="38.621048mm"
   viewBox="0 0 155.91367 38.621048"
   version="1.1"
   id="svg3484"
   inkscape:version="1.1.2 (b8e25be833, 2022-02-05)"
   sodipodi:docname="list_book_field.svg"
   xmlns:inkscape="http://www.inkscape.org/namespaces/inkscape"
   xmlns:sodipodi="http://sodipodi.sourceforge.net/DTD/sodipodi-0.dtd"
   xmlns="http://www.w3.org/2000/svg"
   xmlns:svg="http://www.w3.org/2000/svg">
  <sodipodi:namedview
     id="namedview3486"
     pagecolor="#ffffff"
     bordercolor="#999999"
     borderopacity="1"
     inkscape:pageshadow="0"
     inkscape:pageopacity="0"
     inkscape:pagecheckerboard="0"
     inkscape:document-units="mm"
     showgrid="false"
     inkscape:zoom="0.64052329"
     inkscape:cx="119.4336"
     inkscape:cy="-31.22447"
     inkscape:window-width="1920"
     inkscape:window-height="1017"
     inkscape:window-x="-8"
     inkscape:window-y="-8"
     inkscape:window-maximized="1"
     inkscape:current-layer="layer1" />
  <defs
     id="defs3481" />
  <g
     inkscape:label="Слой 1"
     inkscape:groupmode="layer"
     id="layer1"
     transform="translate(-73.64122,-156.65888)">
    <path
       style="fill:#000000;fill-opacity:1;stroke:none;stroke-width:0.339504px;stroke-linecap:butt;stroke-linejoin:miter;stroke-opacity:1"
       d="m 92.30694,159.1217 c 39.70199,-3.33013 78.09584,-3.23705 115.28826,0 1.02495,3.09152 1.11824,6.34926 0.47057,9.73922 9.72742,0.68243 14.99831,4.16595 21.48912,9.17949 -5.0825,1.05516 -6.65302,3.59604 -9.88184,5.70919 0.42565,3.93321 -0.26524,7.33201 1.88223,11.53033 -12.40718,-2.89844 -24.80093,-6.32002 -36.39028,-5.4853 -3.58788,-2.16134 -5.39967,-4.66838 -4.39196,-7.72421 -18.73212,-1.42603 -37.48248,-2.6701 -56.62456,0 0.48639,2.42548 0.99026,4.85096 -2.196,7.27643 -13.28848,-1.14874 -26.92314,1.25408 -40.62536,3.91807 2.36524,-3.75342 6.14353,-7.17068 5.01935,-11.75422 -3.66052,-3.38584 -7.40402,-6.69763 -12.70525,-8.61976 5.71525,-1.44488 9.17753,-4.33688 18.66572,-3.35835 -0.49416,-3.91592 -0.36004,-7.67219 0,-10.41089 z"
       id="path32064-6-7"
       sodipodi:nodetypes="ccccccccccccccc" />
    <path
       style="fill:#ffffff;fill-opacity:1;stroke:none;stroke-width:0.339504px;stroke-linecap:butt;stroke-linejoin:miter;stroke-opacity:1"
       d="m 96.19027,161.16154 c 34.79651,-2.48604 70.38611,-2.36834 106.66127,0 0.088,6.02045 -0.0613,11.95624 -1.72542,17.35148 -34.06068,-1.97976 -68.12138,-1.63309 -102.18208,-0.24707 -2.22425,-5.16872 -2.56383,-11.10605 -2.75377,-17.10441 z"
       id="path33538-8-4"
       sodipodi:nodetypes="ccccc" />
    <path
       style="fill:#ffffff;fill-opacity:1;stroke:none;stroke-width:0.339504px;stroke-linecap:butt;stroke-linejoin:miter;stroke-opacity:1"
       d="m 83.26412,173.45571 c 3.09538,-0.65775 6.15802,-1.47913 9.53853,-0.71242 1.18308,3.14909 2.36615,5.80029 3.54921,8.54897 2.43969,2.48048 8.02261,3.27848 12.64409,4.59111 -7.03075,0.70124 -14.16463,1.21848 -20.62981,2.92881 1.90468,-1.78692 2.03614,-5.47211 2.88375,-8.39065 -2.23026,-2.78405 -5.20196,-4.77437 -7.98577,-6.96582 z"
       id="path33995-0-0"
       sodipodi:nodetypes="ccccccc" />
    <path
       style="fill:#ffffff;fill-opacity:1;stroke:none;stroke-width:0.339504px;stroke-linecap:butt;stroke-linejoin:miter;stroke-opacity:1"
       d="m 222.29028,176.90939 c -1.19932,-1.67266 -10.6021,-5.86831 -14.19691,-4.98691 -1.18307,3.14909 -1.3679,6.19608 -2.55098,8.94476 -2.43968,2.48047 -5.58251,3.83257 -10.20399,5.1452 7.03074,0.70124 14.60828,1.9309 21.07346,3.64123 -1.90467,-1.78692 -1.5925,-4.83885 -2.4401,-7.75739 2.23025,-2.78406 5.5347,-2.79544 8.31852,-4.98689 z"
       id="path33995-1-3-1"
       sodipodi:nodetypes="ccccccc" />
  </g>
</svg>
