<?xml version="1.0" encoding="UTF-8" standalone="no"?>
<!-- Created with Inkscape (http://www.inkscape.org/) -->

<svg
   width="316.59784mm"
   height="360.74951mm"
   viewBox="0 0 316.59784 360.74951"
   version="1.1"
   id="svg19026"
   inkscape:version="1.1.2 (b8e25be833, 2022-02-05)"
   sodipodi:docname="list_saving_throws.svg"
   xmlns:inkscape="http://www.inkscape.org/namespaces/inkscape"
   xmlns:sodipodi="http://sodipodi.sourceforge.net/DTD/sodipodi-0.dtd"
   xmlns="http://www.w3.org/2000/svg"
   xmlns:svg="http://www.w3.org/2000/svg">
  <sodipodi:namedview
     id="namedview19028"
     pagecolor="#ffffff"
     bordercolor="#999999"
     borderopacity="1"
     inkscape:pageshadow="0"
     inkscape:pageopacity="0"
     inkscape:pagecheckerboard="0"
     inkscape:document-units="mm"
     showgrid="false"
     inkscape:zoom="0.32026164"
     inkscape:cx="919.56064"
     inkscape:cy="690.06079"
     inkscape:window-width="1920"
     inkscape:window-height="1017"
     inkscape:window-x="-8"
     inkscape:window-y="-8"
     inkscape:window-maximized="1"
     inkscape:current-layer="layer1" />
  <defs
     id="defs19023" />
  <g
     inkscape:label="Слой 1"
     inkscape:groupmode="layer"
     id="layer1"
     transform="translate(79.814915,36.21203)">
    <path
       style="display:inline;fill:#000000;fill-opacity:1;stroke:none;stroke-width:0.451486px;stroke-linecap:butt;stroke-linejoin:miter;stroke-opacity:1"
       d="m -0.15282,-23.00838 c 50.97863,-4.58654 100.27761,-4.45834 148.03393,0 1.31606,4.2579 1.43585,8.74472 0.60422,13.41365 12.49033,0.9399 19.25833,5.73769 27.59275,12.64275 -6.5261,1.45326 -8.5427,4.95277 -12.68861,7.86318 0.54654,5.41714 -0.34058,10.09825 2.41684,15.88052 -15.93123,-3.99197 -31.84522,-8.70445 -46.72634,-7.5548 -4.60695,-2.97678 -6.93335,-6.42968 -5.63941,-10.63843 -24.05267,-1.96405 -48.12876,-3.67748 -72.70783,0 0.62454,3.34057 1.27153,6.68115 -2.81974,10.0217 -17.06285,-1.58214 -34.57019,1.72723 -52.16421,5.3963 3.03702,-5.16952 7.88847,-9.87605 6.44496,-16.18889 -4.70018,-4.66326 -9.50698,-9.22453 -16.31391,-11.87184 7.33855,-1.99002 11.78426,-5.97312 23.96735,-4.6254 -0.63464,-5.39333 -0.46246,-10.56678 0,-14.33874 z"
       id="path32064-6-7-7-8-3"
       sodipodi:nodetypes="ccccccccccccccc" />
    <path
       style="display:inline;fill:#ffffff;fill-opacity:1;stroke:none;stroke-width:0.466018px;stroke-linecap:butt;stroke-linejoin:miter;stroke-opacity:1"
       d="m 3.62696,-20.70129 c 45.46694,-3.58479 91.97016,-3.41508 139.36916,0 0.11499,8.68132 -0.0801,17.24057 -2.25453,25.02035 C 96.23616,1.4643 51.73067,1.96419 7.22519,3.96279 4.31888,-3.49036 3.87522,-12.05182 3.62696,-20.70129 Z"
       id="path33538-8-4-6-4-1"
       sodipodi:nodetypes="ccccc" />
    <path
       style="display:inline;fill:#ffffff;fill-opacity:1;stroke:none;stroke-width:0.512362px;stroke-linecap:butt;stroke-linejoin:miter;stroke-opacity:1"
       d="m -14.74987,-4.16191 c 4.69279,-0.98809 9.33616,-2.22198 14.46125,-1.07021 1.79371,4.73063 3.5873,8.71333 5.38102,12.84247 3.69885,3.72623 12.16317,4.925 19.16984,6.89686 -10.65939,1.05343 -21.47508,1.83043 -31.27705,4.39973 2.88789,-2.68435 3.08702,-8.22033 4.37206,-12.60462 -3.38128,-4.18226 -7.88661,-7.17218 -12.10712,-10.46423 z"
       id="path33995-0-0-8-5-4"
       sodipodi:nodetypes="ccccccc" />
    <path
       style="display:inline;fill:#ffffff;fill-opacity:1;stroke:none;stroke-width:0.489442px;stroke-linecap:butt;stroke-linejoin:miter;stroke-opacity:1"
       d="m 169.3094,1.36523 c -1.76774,-2.3585 -15.62697,-8.27451 -20.92556,-7.03171 -1.74379,4.44033 -2.01621,8.73668 -3.76002,12.61241 -3.59596,3.49755 -8.22833,5.40406 -15.04018,7.25491 10.36297,0.98878 21.53189,2.72264 31.06125,5.13426 -2.80738,-2.51962 -2.34727,-6.82294 -3.59659,-10.93818 3.28729,-3.92562 8.15788,-3.94167 12.2611,-7.03169 z"
       id="path33995-1-3-1-1-3-9"
       sodipodi:nodetypes="ccccccc" />
    <path
       style="display:inline;fill:#000000;fill-opacity:1;stroke:none;stroke-width:0.40038px;stroke-linecap:butt;stroke-linejoin:miter;stroke-opacity:1"
       d="m 29.685604,84.205852 c 24.921,4.95882 142.453966,4.86259 164.143876,1.22294 z"
       id="path20193-8-7-4-4-73-7"
       sodipodi:nodetypes="ccc" />
    <path
       style="display:inline;fill:#000000;fill-opacity:1;stroke:none;stroke-width:0.40038px;stroke-linecap:butt;stroke-linejoin:miter;stroke-opacity:1"
       d="m -35.440201,163.37537 c 24.921,4.95882 142.453971,4.86259 164.143881,1.22294 z"
       id="path20193-8-7-4-4-73-39"
       sodipodi:nodetypes="ccc" />
    <path
       style="display:inline;fill:#000000;fill-opacity:1;stroke:none;stroke-width:0.40038px;stroke-linecap:butt;stroke-linejoin:miter;stroke-opacity:1"
       d="m 49.856305,255.0006 c 24.921,4.95882 142.453965,4.86259 164.143875,1.22294 z"
       id="path20193-8-7-4-4-73-6"
       sodipodi:nodetypes="ccc" />
    <path
       id="path1034-6"
       style="display:inline;fill:#000000;fill-opacity:1;stroke:none;stroke-width:0.25038px;stroke-linecap:butt;stroke-linejoin:miter;stroke-opacity:1"
       d="m -78.72985,-36.21201 c -0.10094,8.64112 -0.19374,16.87553 -0.27888,24.72578 -0.0105,0.97075 3.28636,2.86581 3.27606,3.82486 -0.0157,1.46063 -3.33837,1.97756 -3.35351,3.41128 -2.62302,248.39331 2.201294,48.136555 -0.139546,277.37053 -0.0187,1.82706 3.7622,-0.12161 3.74211,1.75487 -0.008,0.72699 -3.81589,1.45771 -3.82383,2.1922 -0.10418,9.63866 -0.22153,19.92522 -0.3531,30.91228 99.94826,-1.1883 207.742496,2.2129 315.711976,0.5234 -0.52378,-68.12803 0.7315,-109.70726 0.7315,-109.70726 -8.11481,-5.34991 -7.18264,-7.88014 -8.14914,-12.2011 2.52769,-15.61588 4.53257,-28.2496 6.19657,-47.49295 0,0 0.54111,-106.80267 1.18117,-175.27811 -86.9066,2.57904 -223.69326,0.98533 -314.74138,-0.0358 z m 311.30716,4.38936 -0.32385,171.031 c -0.94784,19.10115 -3.35622,31.60444 -6.31102,47.96884 -1.48564,1.3592 7.52913,14.06121 7.52536,14.58264 l -0.7469,103.19296 c -112.82325,5.2832 -210.863566,-3.51069 -309.392456,0.57964 0.0903,-9.77121 0.17668,-19.00408 0.2593,-27.73577 0.0149,-1.57564 7.63017,-2.69648 7.64484,-4.23971 0.0107,-1.12813 -7.72545,-0.0552 -7.71521,-1.16624 2.04041,-221.413815 2.419276,-54.56788 2.314986,-274.88222 -7.1e-4,-1.50002 2.89233,-3.53253 2.89136,-5.06423 -5.6e-4,-0.89039 -2.99836,-6.54034 -2.99892,-7.44141 -0.004,-5.74003 -0.007,-11.69751 -0.0104,-17.88319 103.33494,1.57716 218.52454,2.47688 306.86296,1.05769 z"
       sodipodi:nodetypes="csssssscccccccccccsccssssssccc" />
    <path
       id="path12003"
       style="display:inline;fill:#000000;fill-opacity:1;stroke:none;stroke-width:0.264583px;stroke-linecap:butt;stroke-linejoin:miter;stroke-opacity:1"
       d="m 8.0987124,37.034958 -54.8850604,-0.01746 1.023196,49.830036 54.1042227,-1.187 z m -3.6091018,2.495444 0.1462352,41.071902 -45.6757618,2.41123 -2.630858,-43.191164 z"
       sodipodi:nodetypes="cccccccccc" />
    <path
       style="display:inline;fill:#000000;fill-opacity:1;stroke:none;stroke-width:0.456795px;stroke-linecap:butt;stroke-linejoin:miter;stroke-opacity:1"
       d="m -37.712246,40.770814 -3.15433,2.90197 5.04692,0.75705 z"
       id="path12135" />
    <path
       style="display:inline;fill:#000000;fill-opacity:1;stroke:none;stroke-width:0.456795px;stroke-linecap:butt;stroke-linejoin:miter;stroke-opacity:1"
       d="m -1.0912355,40.477844 -3.15433,2.90197 5.04691996,0.75705 z"
       id="path12135-0" />
    <path
       style="display:inline;fill:#000000;fill-opacity:1;stroke:none;stroke-width:0.456795px;stroke-linecap:butt;stroke-linejoin:miter;stroke-opacity:1"
       d="m -28.771676,42.605264 3.53177,2.42856 -0.38633,-5.08874 z"
       id="path12135-1" />
    <path
       style="display:inline;fill:#000000;fill-opacity:1;stroke:none;stroke-width:0.456795px;stroke-linecap:butt;stroke-linejoin:miter;stroke-opacity:1"
       d="m -14.314296,44.325344 1.91645,-3.83386 -4.98631,1.0868 z"
       id="path12135-18" />
    <path
       style="display:inline;fill:#000000;fill-opacity:1;stroke:none;stroke-width:0.456795px;stroke-linecap:butt;stroke-linejoin:miter;stroke-opacity:1"
       d="m -1.2631155,73.560784 3.06495,2.99621 0.48871,-5.07993 z"
       id="path12135-4" />
    <path
       style="display:inline;fill:#000000;fill-opacity:1;stroke:none;stroke-width:0.456795px;stroke-linecap:butt;stroke-linejoin:miter;stroke-opacity:1"
       d="m 0.11850446,64.973484 2.23811004,-3.65543 -5.06114,0.65528 z"
       id="path12135-1-2" />
    <path
       style="display:inline;fill:#000000;fill-opacity:1;stroke:none;stroke-width:0.456795px;stroke-linecap:butt;stroke-linejoin:miter;stroke-opacity:1"
       d="m 1.0859945,50.737214 -3.92997,-1.71072 1.34935,4.92176 z"
       id="path12135-18-9" />
    <path
       id="path12753"
       style="display:inline;fill:#000000;fill-opacity:1;stroke:none;stroke-width:0.284779px;stroke-linecap:butt;stroke-linejoin:miter;stroke-opacity:1"
       d="m 206.76426,91.720689 -61.85048,64.742791 20.91346,1.77975 -8.89921,43.38444 64.29788,-68.08009 -18.02111,-2.00247 z m -5.19451,10.927471 -2.89388,32.65953 15.29622,1.24021 -51.26302,53.5368 8.47492,-36.79362 h -17.77666 z" />
    <path
       id="path16120"
       style="display:inline;fill:#000000;fill-opacity:1;stroke:none;stroke-width:0.264583px;stroke-linecap:butt;stroke-linejoin:miter;stroke-opacity:1"
       d="M -6.8814892,194.79488 C -32.983904,194.4751 -59.785719,221.254 -32.057704,250.65556 c -0.01402,10.22951 -0.704823,19.34932 -4.134114,23.97786 l 35.34666632,10.1286 c 2.22781778,-6.53688 5.07957628,-12.54578 9.09505158,-17.57 5.8595421,1.41737 11.7021231,2.73854 17.1565621,1.86036 -1.733339,-6.63694 -0.689213,-13.62104 -0.361712,-20.51555 2.518621,-0.0496 3.715967,0.21066 6.769602,-0.77515 -2.942828,-5.29579 -5.101272,-11.11448 -7.234713,-16.94987 1.24198,-0.43818 1.920531,-1.77784 2.480469,-3.30729 -3.885433,-23.2147 -18.7957354,-32.52407 -33.9415972,-32.70964 z m -2.649431,4.38165 c 13.7937875,0.0196 28.0103522,8.27199 33.6971472,27.9921 -0.863309,1.23965 -1.675474,2.8058 -3.074723,3.15227 2.194904,6.89372 4.504929,9.80541 6.872949,15.14118 -1.685792,0.28371 -3.679401,1.29789 -5.411126,1.07635 -0.616373,6.97368 -1.618085,13.91026 -0.495432,20.21509 -4.847986,-0.14062 -13.4802292,-1.71894 -19.4242525,-3.50361 -3.54147418,5.73188 -2.91816888,12.97395 -4.8009707,19.07442 l -29.3146158,-9.44271 c 2.167546,-7.57344 1.564455,-15.13816 1.904709,-23.15623 -22.392137,-29.21198 -2.192682,-50.58039 20.0463148,-50.54886 z"
       sodipodi:nodetypes="scccccccccsscccccccccs" />
  </g>
</svg>
