<?xml version="1.0" encoding="UTF-8" standalone="no"?>
<!-- Created with Inkscape (http://www.inkscape.org/) -->

<svg
   width="318.74023mm"
   height="158.23875mm"
   viewBox="0 0 318.74023 158.23875"
   version="1.1"
   id="svg12406"
   inkscape:version="1.1.2 (b8e25be833, 2022-02-05)"
   sodipodi:docname="list_status.svg"
   xmlns:inkscape="http://www.inkscape.org/namespaces/inkscape"
   xmlns:sodipodi="http://sodipodi.sourceforge.net/DTD/sodipodi-0.dtd"
   xmlns="http://www.w3.org/2000/svg"
   xmlns:svg="http://www.w3.org/2000/svg">
  <sodipodi:namedview
     id="namedview12408"
     pagecolor="#ffffff"
     bordercolor="#999999"
     borderopacity="1"
     inkscape:pageshadow="0"
     inkscape:pageopacity="0"
     inkscape:pagecheckerboard="0"
     inkscape:document-units="mm"
     showgrid="false"
     inkscape:zoom="0.64052329"
     inkscape:cx="714.25974"
     inkscape:cy="496.46907"
     inkscape:window-width="1920"
     inkscape:window-height="1017"
     inkscape:window-x="-8"
     inkscape:window-y="-8"
     inkscape:window-maximized="1"
     inkscape:current-layer="layer1" />
  <defs
     id="defs12403" />
  <g
     inkscape:label="Слой 1"
     inkscape:groupmode="layer"
     id="layer1"
     transform="translate(83.777622,-17.1268)">
    <path
       style="display:inline;fill:#000000;fill-opacity:1;stroke:none;stroke-width:0.451486px;stroke-linecap:butt;stroke-linejoin:miter;stroke-opacity:1"
       d="m 4.433972,38.8437 c 50.978629,-4.5865 100.277608,-4.4583 148.033928,0 1.31606,4.258 1.43585,8.7448 0.60422,13.4137 12.49033,0.9399 19.25833,5.7377 27.59275,12.6427 -6.5261,1.4533 -8.5427,4.9528 -12.68861,7.8632 0.54654,5.4172 -0.34058,10.0983 2.41684,15.8805 -15.93123,-3.9919 -31.84522,-8.7044 -46.72634,-7.5548 -4.60695,-2.9767 -6.93335,-6.4296 -5.63941,-10.6384 -24.052669,-1.964 -48.128759,-3.6775 -72.707829,0 0.62454,3.3406 1.27153,6.6812 -2.81974,10.0217 -17.062849,-1.5821 -34.570189,1.7272 -52.164209,5.3963 3.03702,-5.1695 7.88847,-9.876 6.44496,-16.1889 -4.70018,-4.6632 -9.50698,-9.2245 -16.31391,-11.8718 7.33855,-1.99 11.78426,-5.9731 23.96735,-4.6254 -0.63464,-5.3933 -0.46246,-10.5668 0,-14.3388 z"
       id="path32064-6-7-7-8-3-6-0"
       sodipodi:nodetypes="ccccccccccccccc" />
    <path
       style="display:inline;fill:#ffffff;fill-opacity:1;stroke:none;stroke-width:0.466018px;stroke-linecap:butt;stroke-linejoin:miter;stroke-opacity:1"
       d="m 8.213752,41.1508 c 45.466939,-3.5847 91.970158,-3.415 139.369158,0 0.11499,8.6814 -0.0801,17.2406 -2.25453,25.0204 C 100.82295,63.3164 56.317461,63.8163 11.811982,65.8149 8.905672,58.3618 8.462012,49.8003 8.213752,41.1508 Z"
       id="path33538-8-4-6-4-1-6-2"
       sodipodi:nodetypes="ccccc" />
    <path
       style="display:inline;fill:#ffffff;fill-opacity:1;stroke:none;stroke-width:0.512362px;stroke-linecap:butt;stroke-linejoin:miter;stroke-opacity:1"
       d="m -10.163078,57.6902 c 4.69279,-0.9881 9.33616,-2.222 14.46125,-1.0702 1.79371,4.7306 3.5873,8.7133 5.38102,12.8425 3.69885,3.7262 12.16317,4.925 19.16984,6.8968 -10.65939,1.0535 -21.47508,1.8305 -31.27705,4.3998 2.88789,-2.6844 3.08702,-8.2204 4.37206,-12.6046 -3.38128,-4.1823 -7.88661,-7.1722 -12.10712,-10.4643 z"
       id="path33995-0-0-8-5-4-1-81"
       sodipodi:nodetypes="ccccccc" />
    <path
       style="display:inline;fill:#ffffff;fill-opacity:1;stroke:none;stroke-width:0.489442px;stroke-linecap:butt;stroke-linejoin:miter;stroke-opacity:1"
       d="m 173.89619,63.2174 c -1.76774,-2.3585 -15.62697,-8.2745 -20.92556,-7.0317 -1.74379,4.4403 -2.01621,8.7366 -3.76002,12.6124 -3.59596,3.4975 -8.22833,5.404 -15.04018,7.2549 10.36297,0.9888 21.53189,2.7226 31.06125,5.1342 -2.80738,-2.5196 -2.34727,-6.8229 -3.59659,-10.9381 3.28729,-3.9257 8.15788,-3.9417 12.2611,-7.0317 z"
       id="path33995-1-3-1-1-3-9-0-5"
       sodipodi:nodetypes="ccccccc" />
    <path
       style="display:inline;fill:#000000;fill-opacity:1;stroke:none;stroke-width:0.304843px;stroke-linecap:butt;stroke-linejoin:miter;stroke-opacity:1"
       d="m 33.355101,119.604 c 14.44682,4.9588 82.581199,4.8626 95.154939,1.2229 z"
       id="path20193-8-7-4-4-73-6-4-4-1"
       sodipodi:nodetypes="ccc" />
    <path
       id="path1034-0-8"
       style="display:inline;fill:#000000;fill-opacity:1;stroke:none;stroke-width:0.25038px;stroke-linecap:butt;stroke-linejoin:miter;stroke-opacity:1"
       d="m -70.548452,175.36556 c 102.05858,-1.2389 203.999442,-1.9507 305.511052,-0.7404 -1.15694,-123.78296 0.94211,-39.78477 -2.22164,-156.97496 -17.2282,0.6128 -34.466,1.2686 -51.1571,-0.5234 -6.3762,4.6619 -12.7711,9.3171 -17.24696,14.6598 3.64156,-4.9548 6.85966,-9.8779 8.18506,-14.6598 -85.925629,2.4997 -171.218928,2.9233 -255.492978,0 l -0.806604,148.98326 c 2.71198,-1.1995 5.30344,-3.3163 8.26823,-2.5915 2.78196,1.126 3.64461,3.7253 4.54753,6.2937 1.82811,1.6619 0.59383,3.6666 0.41341,5.5533 z m 4.41833,-3.7485 c 0.88688,-1.5966 0.25559,-3.3291 -0.18087,-5.0442 -1.35972,-3.3018 -3.60222,-6.0765 -7.02799,-8.1448 -1.83076,0.5687 -6.158478,0.45979 -7.619978,2.35129 0,0 1.315467,-1.02314 1.318492,-140.10215 82.68988,2.3331 165.379739,2.1936 248.069618,-1.3906 0.54321,4.6517 -4.92529,11.098 -7.52721,16.6885 7.15653,-5.5734 13.33632,-11.7299 22.07052,-16.3613 15.9212,1.1562 31.7172,0.6295 47.503,-0.033 0,0 2.31572,144.17058 2.3167,151.29934 -98.56154,-2.0499 -199.813019,-0.89138 -298.922282,0.73732 z"
       sodipodi:nodetypes="ccccccccccccccccccccccc" />
  </g>
</svg>
