<?xml version="1.0" encoding="UTF-8" standalone="no"?>
<!-- Created with Inkscape (http://www.inkscape.org/) -->

<svg
   width="205.80016mm"
   height="114.02018mm"
   viewBox="0 0 205.80016 114.02018"
   version="1.1"
   id="svg25957"
   inkscape:version="1.1.2 (b8e25be833, 2022-02-05)"
   sodipodi:docname="list_perception.svg"
   xmlns:inkscape="http://www.inkscape.org/namespaces/inkscape"
   xmlns:sodipodi="http://sodipodi.sourceforge.net/DTD/sodipodi-0.dtd"
   xmlns="http://www.w3.org/2000/svg"
   xmlns:svg="http://www.w3.org/2000/svg">
  <sodipodi:namedview
     id="namedview25959"
     pagecolor="#ffffff"
     bordercolor="#999999"
     borderopacity="1"
     inkscape:pageshadow="0"
     inkscape:pageopacity="0"
     inkscape:pagecheckerboard="0"
     inkscape:document-units="mm"
     showgrid="false"
     inkscape:zoom="0.64052329"
     inkscape:cx="501.93335"
     inkscape:cy="349.71406"
     inkscape:window-width="1920"
     inkscape:window-height="1017"
     inkscape:window-x="-8"
     inkscape:window-y="-8"
     inkscape:window-maximized="1"
     inkscape:current-layer="layer1" />
  <defs
     id="defs25954" />
  <g
     inkscape:label="Слой 1"
     inkscape:groupmode="layer"
     id="layer1"
     transform="translate(27.72066,-55.75903)">
    <path
       style="display:inline;fill:#000000;fill-opacity:1;stroke:none;stroke-width:0.457759px;stroke-linecap:butt;stroke-linejoin:miter;stroke-opacity:1"
       d="m -3.0827,59.15103 c 52.40514,-4.58654 103.0836,-4.45834 152.17622,0 1.35289,4.2579 1.47603,8.74472 0.62113,13.41365 12.83983,0.9399 19.79721,5.73769 28.36484,12.64275 -6.70871,1.45326 -8.78174,4.95277 -13.04366,7.86318 0.56184,5.41714 -0.35011,10.09825 2.48447,15.88052 -16.37701,-3.99197 -32.7363,-8.70445 -48.03382,-7.5548 -4.73587,-2.97678 -7.12736,-6.42968 -5.79722,-10.63843 -24.7257,-1.96405 -49.47548,-3.67748 -74.74232,0 0.64202,3.34057 1.30711,6.68115 -2.89864,10.0217 -17.5403,-1.58214 -35.53753,1.72723 -53.62386,5.3963 3.122,-5.16952 8.10918,-9.87605 6.62528,-16.18889 -4.83168,-4.66326 -9.77298,-9.22453 -16.77038,-11.87184 7.5439,-1.99002 12.114,-5.97312 24.63796,-4.6254 -0.65232,-5.39333 -0.47532,-10.56678 0,-14.33874 z"
       id="path32064-6-7-7-8-4"
       sodipodi:nodetypes="ccccccccccccccc" />
    <path
       style="display:inline;fill:#ffffff;fill-opacity:1;stroke:none;stroke-width:0.472493px;stroke-linecap:butt;stroke-linejoin:miter;stroke-opacity:1"
       d="m 0.80288,61.45812 c 46.73919,-3.58479 94.54365,-3.41508 143.26896,0 0.11821,8.68132 -0.0823,17.24057 -2.31761,25.02035 C 96.00345,83.62371 50.25262,84.1236 4.5018,86.1222 1.51417,78.66905 1.05809,70.10759 0.80288,61.45812 Z"
       id="path33538-8-4-6-4-3"
       sodipodi:nodetypes="ccccc" />
    <path
       style="display:inline;fill:#ffffff;fill-opacity:1;stroke:none;stroke-width:0.519481px;stroke-linecap:butt;stroke-linejoin:miter;stroke-opacity:1"
       d="m -18.08816,77.9975 c 4.8241,-0.98809 9.59737,-2.22198 14.86594,-1.07021 1.8439,4.73063 3.68764,8.71333 5.53155,12.84247 3.80235,3.72623 12.50352,4.925 19.70625,6.89686 -10.95766,1.05343 -22.076,1.83043 -32.15221,4.39973 2.96862,-2.68435 3.17336,-8.22033 4.49432,-12.60462 -3.47581,-4.18226 -8.10725,-7.17218 -12.44585,-10.46423 z"
       id="path33995-0-0-8-5-43"
       sodipodi:nodetypes="ccccccc" />
    <path
       style="display:inline;fill:#ffffff;fill-opacity:1;stroke:none;stroke-width:0.496242px;stroke-linecap:butt;stroke-linejoin:miter;stroke-opacity:1"
       d="m 171.12141,83.52464 c -1.8172,-2.3585 -16.06424,-8.27451 -21.51109,-7.03171 -1.79258,4.44033 -2.07263,8.73668 -3.86523,12.61241 -3.69658,3.49755 -8.45858,5.40406 -15.46103,7.25491 10.65294,0.98878 22.13439,2.72264 31.9304,5.13426 -2.88594,-2.51962 -2.41295,-6.82294 -3.69723,-10.93818 3.37927,-3.92562 8.38615,-3.94167 12.60418,-7.03169 z"
       id="path33995-1-3-1-1-3-5"
       sodipodi:nodetypes="ccccccc" />
    <path
       style="display:inline;fill:#000000;fill-opacity:1;stroke:none;stroke-width:0.264583px;stroke-linecap:butt;stroke-linejoin:miter;stroke-opacity:1"
       d="m 37.3752,142.51933 c 0.77801,-25.22647 -4.27609,-41.4509 -12.40234,-38.44726 -8.34811,4.18477 2.24882,23.5761 12.40234,38.44726 z"
       id="path20215"
       sodipodi:nodetypes="ccc" />
    <circle
       style="display:inline;fill:#000000;fill-opacity:1;fill-rule:evenodd;stroke:none;stroke-width:0.264999"
       id="path20600"
       cx="39.648987"
       cy="150.16745"
       r="3.7207031" />
    <path
       style="display:inline;fill:#000000;fill-opacity:1;stroke:none;stroke-width:0.264583px;stroke-linecap:butt;stroke-linejoin:miter;stroke-opacity:1"
       d="m 123.50068,142.68008 c -0.77801,-25.22647 4.27609,-41.4509 12.40234,-38.44726 8.34811,4.18477 -2.24882,23.5761 -12.40234,38.44726 z"
       id="path20215-7"
       sodipodi:nodetypes="ccc" />
    <circle
       style="display:inline;fill:#000000;fill-opacity:1;fill-rule:evenodd;stroke:none;stroke-width:0.264999"
       id="path20600-0"
       cx="-121.2269"
       cy="150.32816"
       r="3.7207031"
       transform="scale(-1,1)" />
    <path
       id="path20881"
       style="display:inline;fill:#000000;fill-opacity:1;stroke:none;stroke-width:0.273614px;stroke-linecap:butt;stroke-linejoin:miter;stroke-opacity:1"
       d="m 109.91785,86.26825 -55.98448,0.58706 52.56306,1.29863 c -1.79852,27.15723 -2.8223,42.50759 -0.13093,68.90147 -18.23761,0.52252 -36.31129,0.68815 -53.92698,-0.14627 1.64067,-12.77819 1.08228,-18.82048 1.73152,-30.21163 0.0952,-1.6711 3.13586,-2.4226 3.1153,-4.12233 -0.0146,-1.20319 -3.03381,-3.23547 -3.06313,-4.44463 -0.24023,-9.90925 -0.9705,-20.06643 -2.09986,-31.25611 l -3.76405,0.0393 c 0.88035,11.57605 1.8068,22.39242 2.25643,32.97088 0.0367,0.86282 3.17076,1.93077 3.20081,2.79071 0.0434,1.24345 -3.02093,2.27747 -2.99279,3.51634 0.27568,12.13869 0.39543,18.31091 -1.68794,30.89735 -3.52962,-0.0351 -5.95222,0.4654 -8.33551,-0.10025 0.64319,5.66341 2.36787,10.7946 10.83181,12.60904 l 57.58051,0.1814 c 5.25799,-1.00579 10.50878,-2.17006 9.94759,-12.60907 -3.34566,0.40376 -5.35946,0.36468 -9.21976,0.0651 -4.24163,-26.41198 -0.0216,-43.98287 -0.0216,-70.96697 z m -65.2169,73.41799 c 25.05802,1.01994 47.91647,0.24032 71.43419,0 -0.94059,2.91317 -0.40255,6.01112 -7.26837,8.18554 l -56.50672,-0.58496 c -5.18772,-1.82962 -6.80424,-4.61338 -7.6591,-7.60058 z"
       sodipodi:nodetypes="cccccsssccsssccccccscccccc" />
  </g>
</svg>
