<?xml version="1.0" encoding="UTF-8" standalone="no"?>
<!-- Created with Inkscape (http://www.inkscape.org/) -->

<svg
   width="205.80016mm"
   height="108.4366mm"
   viewBox="0 0 205.80016 108.4366"
   version="1.1"
   id="svg26092"
   inkscape:version="1.1.2 (b8e25be833, 2022-02-05)"
   sodipodi:docname="list_dc.svg"
   xmlns:inkscape="http://www.inkscape.org/namespaces/inkscape"
   xmlns:sodipodi="http://sodipodi.sourceforge.net/DTD/sodipodi-0.dtd"
   xmlns="http://www.w3.org/2000/svg"
   xmlns:svg="http://www.w3.org/2000/svg">
  <sodipodi:namedview
     id="namedview26094"
     pagecolor="#ffffff"
     bordercolor="#999999"
     borderopacity="1"
     inkscape:pageshadow="0"
     inkscape:pageopacity="0"
     inkscape:pagecheckerboard="0"
     inkscape:document-units="mm"
     showgrid="false"
     inkscape:zoom="0.64052329"
     inkscape:cx="534.71904"
     inkscape:cy="321.61204"
     inkscape:window-width="1920"
     inkscape:window-height="1017"
     inkscape:window-x="-8"
     inkscape:window-y="-8"
     inkscape:window-maximized="1"
     inkscape:current-layer="layer1" />
  <defs
     id="defs26089" />
  <g
     inkscape:label="Слой 1"
     inkscape:groupmode="layer"
     id="layer1"
     transform="translate(36.39521,-63.09463)">
    <path
       style="display:inline;fill:#000000;fill-opacity:1;stroke:none;stroke-width:0.457759px;stroke-linecap:butt;stroke-linejoin:miter;stroke-opacity:1"
       d="m -11.75725,66.48663 c 52.40514,-4.58654 103.0836,-4.45834 152.17622,0 1.35289,4.2579 1.47603,8.74472 0.62113,13.41365 12.83983,0.9399 19.79721,5.73769 28.36484,12.64275 -6.70871,1.45326 -8.78174,4.95277 -13.04366,7.86318 0.56184,5.41714 -0.35011,10.09825 2.48447,15.88052 -16.37701,-3.99197 -32.7363,-8.70445 -48.03382,-7.5548 -4.73587,-2.97678 -7.12736,-6.42968 -5.79722,-10.63843 -24.7257,-1.96405 -49.47548,-3.67748 -74.74232,0 0.64202,3.34057 1.30711,6.68115 -2.89864,10.0217 -17.5403,-1.58214 -35.53753,1.72723 -53.62386,5.3963 3.122,-5.16952 8.10918,-9.87605 6.62528,-16.18889 -4.83168,-4.66326 -9.77298,-9.22453 -16.77038,-11.87184 7.5439,-1.99002 12.114,-5.97312 24.63796,-4.6254 -0.65232,-5.39333 -0.47532,-10.56678 0,-14.33874 z"
       id="path32064-6-7-7-8-4-2"
       sodipodi:nodetypes="ccccccccccccccc" />
    <path
       style="display:inline;fill:#ffffff;fill-opacity:1;stroke:none;stroke-width:0.472493px;stroke-linecap:butt;stroke-linejoin:miter;stroke-opacity:1"
       d="m -7.87167,68.79372 c 46.73919,-3.58479 94.54365,-3.41508 143.26896,0 0.11821,8.68132 -0.0823,17.24057 -2.31761,25.02035 C 87.3289,90.95931 41.57807,91.4592 -4.17275,93.4578 -7.16038,86.00465 -7.61646,77.44319 -7.87167,68.79372 Z"
       id="path33538-8-4-6-4-3-2"
       sodipodi:nodetypes="ccccc" />
    <path
       style="display:inline;fill:#ffffff;fill-opacity:1;stroke:none;stroke-width:0.519481px;stroke-linecap:butt;stroke-linejoin:miter;stroke-opacity:1"
       d="m -26.76271,85.3331 c 4.8241,-0.98809 9.59737,-2.22198 14.86594,-1.07021 1.8439,4.73063 3.68764,8.71333 5.53155,12.84247 3.80235,3.72623 12.50352,4.925 19.70625,6.89686 -10.95766,1.05343 -22.076,1.83043 -32.15221,4.39973 2.96862,-2.68435 3.17336,-8.22033 4.49432,-12.60462 -3.47581,-4.18226 -8.10725,-7.17218 -12.44585,-10.46423 z"
       id="path33995-0-0-8-5-43-2"
       sodipodi:nodetypes="ccccccc" />
    <path
       style="display:inline;fill:#ffffff;fill-opacity:1;stroke:none;stroke-width:0.496242px;stroke-linecap:butt;stroke-linejoin:miter;stroke-opacity:1"
       d="m 162.44686,90.86024 c -1.8172,-2.3585 -16.06424,-8.27451 -21.51109,-7.03171 -1.79258,4.44033 -2.07263,8.73668 -3.86523,12.61241 -3.69658,3.49755 -8.45858,5.40406 -15.46103,7.25491 10.65294,0.98878 22.13439,2.72264 31.9304,5.13426 -2.88594,-2.51962 -2.41295,-6.82294 -3.69723,-10.93818 3.37927,-3.92562 8.38615,-3.94167 12.60418,-7.03169 z"
       id="path33995-1-3-1-1-3-5-8"
       sodipodi:nodetypes="ccccccc" />
    <path
       id="path20881-4"
       style="display:inline;fill:#000000;fill-opacity:1;stroke:none;stroke-width:0.273614px;stroke-linecap:butt;stroke-linejoin:miter;stroke-opacity:1"
       d="m 101.2433,93.60385 -55.98448,0.58706 52.56306,1.29863 c -0.37891,5.72144 -0.75096,11.17572 -1.07705,16.46828 -0.12443,2.01961 -3.89625,3.72335 -4.00513,5.70173 -0.11238,2.04196 3.43877,4.3574 3.34766,6.36811 -0.68724,15.16791 -0.9079,18.25853 0.77676,34.77977 -0.27438,0.008 -0.8045,1.00224 -1.0788,1.00994 -1.18261,0.0332 -2.72993,0.5764 -3.91105,0.60633 -1.42544,0.0361 -2.22854,-1.42844 -3.65154,-1.39764 -15.30281,0.33127 -30.45647,0.33753 -45.28559,-0.3649 3.44802,-26.85454 3.29953,-36.81899 0.51066,-64.45112 l -3.76405,0.0393 c 2.07331,27.2627 4.19559,38.94056 -0.0503,64.5917 -3.52962,-0.0351 -5.95222,0.4654 -8.33551,-0.10025 0.64319,5.66341 2.36787,10.7946 10.83181,12.60904 l 57.58051,0.1814 c 5.25799,-1.00579 10.50878,-2.17006 9.94759,-12.60907 -3.34566,0.40376 -5.35946,0.36468 -9.21976,0.0651 -2.65957,-16.56076 -1.54193,-20.54977 -0.49242,-36.3561 0.0983,-1.47995 -3.31016,-3.18305 -3.21229,-4.67217 0.0785,-1.19442 3.6639,-2.17297 3.7389,-3.37485 0.42551,-6.81954 0.77104,-13.7705 0.77104,-20.98027 z m -66.04373,67.83441 c 18.12369,0.73769 35.09675,0.534 52.00083,0.27385 1.40066,-0.0216 2.72777,1.49121 4.1281,1.46938 1.29108,-0.0201 3.56888,-0.6248 4.86068,-0.64434 1.02263,-0.0155 1.24174,-1.05376 2.26536,-1.06841 2.75692,-0.0394 5.40868,-0.002 8.17922,-0.0305 -0.94059,2.91317 -0.40255,6.01112 -7.26837,8.18554 l -56.50672,-0.58496 c -5.18772,-1.82962 -6.80424,-4.61338 -7.6591,-7.60058 z"
       sodipodi:nodetypes="cccssscssscccccccccssssccssssccccc" />
  </g>
</svg>
