<?xml version="1.0" encoding="UTF-8" standalone="no"?>
<!-- Created with Inkscape (http://www.inkscape.org/) -->

<svg
   width="318.74023mm"
   height="369.29816mm"
   viewBox="0 0 318.74023 369.29816"
   version="1.1"
   id="svg1517"
   inkscape:version="1.1.2 (b8e25be833, 2022-02-05)"
   sodipodi:docname="list_attacks.svg"
   xmlns:inkscape="http://www.inkscape.org/namespaces/inkscape"
   xmlns:sodipodi="http://sodipodi.sourceforge.net/DTD/sodipodi-0.dtd"
   xmlns="http://www.w3.org/2000/svg"
   xmlns:svg="http://www.w3.org/2000/svg">
  <sodipodi:namedview
     id="namedview1519"
     pagecolor="#ffffff"
     bordercolor="#999999"
     borderopacity="1"
     inkscape:pageshadow="0"
     inkscape:pageopacity="0"
     inkscape:pagecheckerboard="0"
     inkscape:document-units="mm"
     showgrid="false"
     inkscape:zoom="0.45291836"
     inkscape:cx="725.29627"
     inkscape:cy="582.8865"
     inkscape:window-width="1920"
     inkscape:window-height="1017"
     inkscape:window-x="-8"
     inkscape:window-y="-8"
     inkscape:window-maximized="1"
     inkscape:current-layer="layer1" />
  <defs
     id="defs1514" />
  <g
     inkscape:label="Слой 1"
     inkscape:groupmode="layer"
     id="layer1"
     transform="translate(108.14897,83.85909)">
    <path
       style="display:inline;fill:#000000;fill-opacity:1;stroke:none;stroke-width:0.451486px;stroke-linecap:butt;stroke-linejoin:miter;stroke-opacity:1"
       d="m -18.18342,-62.14213 c 50.97863,-4.58654 100.27761,-4.45834 148.03393,0 1.31606,4.2579 1.43585,8.74472 0.60422,13.41365 12.49033,0.9399 19.25833,5.73769 27.59275,12.64275 -6.5261,1.45326 -8.5427,4.95277 -12.68861,7.86318 0.54654,5.41714 -0.34058,10.09825 2.41684,15.88052 -15.93123,-3.99197 -31.84522,-8.70445 -46.72634,-7.5548 -4.60695,-2.97678 -6.93335,-6.42968 -5.63941,-10.63843 -24.05267,-1.96405 -48.12876,-3.67748 -72.70783,0 0.62454,3.34057 1.27153,6.68115 -2.81974,10.0217 -17.06285,-1.58214 -34.57019,1.72723 -52.16421,5.3963 3.03702,-5.16952 7.88847,-9.87605 6.44496,-16.18889 -4.70018,-4.66326 -9.50698,-9.22453 -16.31391,-11.87184 7.33855,-1.99002 11.78426,-5.97312 23.96735,-4.6254 -0.63464,-5.39333 -0.46246,-10.56678 0,-14.33874 z"
       id="path32064-6-7-7-8-3-6"
       sodipodi:nodetypes="ccccccccccccccc" />
    <path
       style="display:inline;fill:#ffffff;fill-opacity:1;stroke:none;stroke-width:0.466018px;stroke-linecap:butt;stroke-linejoin:miter;stroke-opacity:1"
       d="m -14.40364,-59.83504 c 45.46694,-3.58479 91.97016,-3.41508 139.36916,0 0.11499,8.68132 -0.0801,17.24057 -2.25453,25.02035 -44.50543,-2.85476 -89.01092,-2.35487 -133.5164,-0.35627 -2.90631,-7.45315 -3.34997,-16.01461 -3.59823,-24.66408 z"
       id="path33538-8-4-6-4-1-6"
       sodipodi:nodetypes="ccccc" />
    <path
       style="display:inline;fill:#ffffff;fill-opacity:1;stroke:none;stroke-width:0.512362px;stroke-linecap:butt;stroke-linejoin:miter;stroke-opacity:1"
       d="m -32.78047,-43.29566 c 4.69279,-0.98809 9.33616,-2.22198 14.46125,-1.07021 1.79371,4.73063 3.5873,8.71333 5.38102,12.84247 3.69885,3.72623 12.16317,4.925 19.16984,6.89686 -10.65939,1.05343 -21.47508,1.83043 -31.27705,4.39973 2.88789,-2.68435 3.08702,-8.22033 4.37206,-12.60462 -3.38128,-4.18226 -7.88661,-7.17218 -12.10712,-10.46423 z"
       id="path33995-0-0-8-5-4-1"
       sodipodi:nodetypes="ccccccc" />
    <path
       style="display:inline;fill:#ffffff;fill-opacity:1;stroke:none;stroke-width:0.489442px;stroke-linecap:butt;stroke-linejoin:miter;stroke-opacity:1"
       d="m 151.2788,-37.76852 c -1.76774,-2.3585 -15.62697,-8.27451 -20.92556,-7.03171 -1.74379,4.44033 -2.01621,8.73668 -3.76002,12.61241 -3.59596,3.49755 -8.22833,5.40406 -15.04018,7.25491 10.36297,0.98878 21.53189,2.72264 31.06125,5.13426 -2.80738,-2.51962 -2.34727,-6.82294 -3.59659,-10.93818 3.28729,-3.92562 8.15788,-3.94167 12.2611,-7.03169 z"
       id="path33995-1-3-1-1-3-9-0"
       sodipodi:nodetypes="ccccccc" />
    <path
       style="display:inline;fill:#000000;fill-opacity:1;stroke:none;stroke-width:0.370595px;stroke-linecap:butt;stroke-linejoin:miter;stroke-opacity:1"
       d="m -74.90331,188.88487 c 21.35106,4.9588 122.04738,4.8626 140.6302,1.2229 z"
       id="path20193-8-7-4-4-73-6-4"
       sodipodi:nodetypes="ccc" />
    <path
       style="display:inline;fill:#000000;fill-opacity:1;stroke:none;stroke-width:0.275043px;stroke-linecap:butt;stroke-linejoin:miter;stroke-opacity:1"
       d="m 91.27074,190.18387 c 11.76036,4.9588 67.22485,4.8626 77.46044,1.2229 z"
       id="path20193-8-7-4-4-73-6-4-8"
       sodipodi:nodetypes="ccc" />
    <path
       style="display:inline;fill:#000000;fill-opacity:1;stroke:none;stroke-width:0.304843px;stroke-linecap:butt;stroke-linejoin:miter;stroke-opacity:1"
       d="m 10.73771,18.61811 c 14.44682,4.95882 82.5812,4.86259 95.15494,1.22294 z"
       id="path20193-8-7-4-4-73-6-4-4"
       sodipodi:nodetypes="ccc" />
    <path
       id="path28248"
       style="display:inline;fill:#000000;fill-opacity:1;stroke:none;stroke-width:0.276343px;stroke-linecap:butt;stroke-linejoin:miter;stroke-opacity:1"
       d="m -13.92847,22.75191 c -12.24762,16.8619 -11.71483,38.79996 -0.2067,56.14696 l -0.93019,-16.6186 c 53.02665,-1.9066 106.05307,-2.0014 159.07969,0 L 166.52151,48.10484 144.56316,35.09746 C 91.42255,36.6368 38.28197,36.9174 -14.85864,35.15386 Z m -0.76997,15.7392 c 53.12288,2.14946 105.84146,1.21249 158.5867,0.47802 l 16.07809,9.24789 -16.80879,10.04505 C 90.53067,57.04917 37.87342,56.07087 -15.13667,57.78397 Z"
       sodipodi:nodetypes="cccccccccccccc" />
    <path
       style="display:inline;fill:#000000;fill-opacity:1;stroke:none;stroke-width:0.264583px;stroke-linecap:butt;stroke-linejoin:miter;stroke-opacity:1"
       d="m -22.50675,44.52085 c -14.42412,-0.55872 -28.04638,-0.31249 -42.06095,1.44954 l 0.0997,8.57568 c 13.94477,1.5776 27.77932,2.3175 41.8579,1.0852 z"
       id="path29117"
       sodipodi:nodetypes="ccccc" />
    <circle
       style="display:inline;fill:#000000;fill-opacity:1;fill-rule:evenodd;stroke:none;stroke-width:0.264999"
       id="path29942"
       cx="-70.255745"
       cy="50.308651"
       r="7.4414062" />
    <circle
       style="display:inline;fill:#000000;fill-opacity:1;fill-rule:evenodd;stroke:none;stroke-width:0.155692"
       id="path29942-6"
       cx="-12.944466"
       cy="24.171383"
       r="4.3719826" />
    <circle
       style="display:inline;fill:#000000;fill-opacity:1;fill-rule:evenodd;stroke:none;stroke-width:0.155692"
       id="path29942-6-5"
       cx="-12.505989"
       cy="77.374626"
       r="4.3719826" />
    <path
       style="display:inline;fill:#ffffff;fill-opacity:1;stroke:none;stroke-width:0.264583px;stroke-linecap:butt;stroke-linejoin:miter;stroke-opacity:1"
       d="m -63.44374,48.6536 c 13.63596,-2.06031 27.19209,-2.73208 40.63331,-1.09622 -13.3294,1.6556 -26.91506,1.7737 -40.63331,1.09622 z"
       id="path30114"
       sodipodi:nodetypes="ccc" />
    <ellipse
       style="display:inline;fill:#ffffff;fill-opacity:1;fill-rule:evenodd;stroke:none;stroke-width:0.264999"
       id="path30918"
       ry="1.7539563"
       rx="2.521312"
       cy="46.680416"
       cx="-70.56916" />
    <ellipse
       style="display:inline;fill:#ffffff;fill-opacity:1;fill-rule:evenodd;stroke:none;stroke-width:0.185017"
       id="path30918-4"
       ry="1.1338391"
       rx="1.9011948"
       cy="22.403378"
       cx="-12.99836" />
    <ellipse
       style="display:inline;fill:#ffffff;fill-opacity:1;fill-rule:evenodd;stroke:none;stroke-width:0.185017"
       id="path30918-4-1"
       ry="1.1338391"
       rx="1.9011948"
       cy="75.526787"
       cx="-12.584908" />
    <path
       id="path31425"
       style="display:inline;fill:#000000;fill-opacity:1;stroke:none;stroke-width:0.264583px;stroke-linecap:butt;stroke-linejoin:miter;stroke-opacity:1"
       d="m 107.45222,97.354841 c -13.253504,0.01429 -26.463699,1.189091 -39.628572,3.596669 -0.813197,2.301 -1.813878,4.22688 -1.033542,9.71518 -9.2329,-2.4121 -17.776534,-2.47991 -25.63151,-0.20669 -0.321522,-2.63163 -0.500168,-4.70202 -1.446927,-7.02802 -33.8905845,-7.542295 -68.715148,-10.885465 -107.280259,-2.06706 -1.241557,4.0667 -1.243092,8.13308 -0.146235,12.19978 -7.033419,1.2514 -11.786976,6.08541 -16.123047,11.57552 4.350862,2.33018 8.160279,5.63544 14.346396,4.66225 -2.235094,5.1649 -0.615156,10.32975 0.07699,15.49466 8.819621,-8.78351 18.962079,-15.03185 32.43834,-14.89006 l -0.413412,-2.99723 c 20.409429,-4.65069 39.9639629,-1.07508 60.564765,0.20672 l -0.826823,2.68719 c 18.974858,-2.74183 38.599401,-1.80216 58.394361,0.10334 l -0.363273,-1.56271 c 20.797948,-2.5709 40.591268,-3.70956 60.618008,1.04593 l 0.31006,1.65365 c 11.4772,0.7425 22.42061,3.88786 32.7954,9.59114 -0.37312,-4.54099 -1.52586,-8.88778 -4.09949,-12.87878 4.93835,-1.13321 6.9972,-3.86601 9.57565,-6.3102 -8.20293,-5.1648 -14.34495,-12.02479 -25.87128,-12.58787 0.0555,-2.00642 -0.0841,-2.41737 -1.03148,-7.68327 -14.23739,-2.693137 -28.4294,-4.158134 -42.57259,-4.30773 -0.88395,-0.0093 -1.76795,-0.01323 -2.65153,-0.01243 z m -3.93308,3.680409 c 15.25913,0.0385 30.51844,1.43306 45.77757,3.08713 l 1.31517,24.11688 c -22.84561,-3.9556 -47.981,-5.51715 -76.881621,-3.14243 -2.960343,-7.0848 -3.943562,-14.26385 -4.019391,-21.48605 10.777246,-1.81012 21.554122,-2.5396 32.331372,-2.57503 0.49223,-0.003 0.98467,-0.003 1.4769,0 z M -13.529006,99.923654 c 17.052343,-0.04866 34.104739,3.322006 51.157081,6.391356 1.593348,7.3928 0.881936,12.73418 1.023197,18.85519 -33.9124921,-3.96121 -65.172642,-5.43264 -96.749631,3.45146 -2.846969,-7.8854 -6.426782,-15.51414 -5.554186,-24.70134 17.052343,-3.16696 33.071197,-3.947982 50.123539,-3.996666 z m 66.787659,11.415876 c 4.568693,0.013 9.161912,0.52358 13.69269,1.65621 0.350335,4.631 1.643618,9.03091 3.095943,13.24882 -8.941462,-1.54982 -18.755149,-2.37204 -28.107323,-0.63613 0.04059,-4.27943 -0.147584,-8.67283 -0.65786,-13.22764 3.933296,-0.67677 7.945332,-1.05277 11.97655,-1.04126 z m 100.715287,1.26036 c 7.99153,1.2795 14.17386,5.95133 20.68195,10.01231 -2.48931,1.60243 -4.76935,3.45533 -8.18505,3.94603 1.40952,3.11121 2.68185,6.18844 2.55749,8.91624 -4.49765,-2.64908 -9.48748,-4.59457 -15.34686,-5.29838 1.10215,-5.52368 0.59388,-11.58457 0.29247,-17.5762 z m -221.025772,3.07941 c 1.446265,5.2211 2.68478,10.51774 6.201172,14.98616 l 3.152272,2.1704 c -3.203945,1.58491 -6.407891,3.35643 -9.61181,6.09783 -0.943319,-3.78341 0.530728,-7.29824 1.188535,-10.90375 -5.550006,0.0209 -9.223428,-2.00522 -12.660709,-4.28913 2.750873,-3.63569 6.839029,-6.17723 11.73054,-8.06151 z"
       sodipodi:nodetypes="sccccccccccccccccccccccsssccccsssccccssccccsccccccccccccc" />
    <path
       id="path1034-0"
       style="display:inline;fill:#000000;fill-opacity:1;stroke:none;stroke-width:0.25038px;stroke-linecap:butt;stroke-linejoin:miter;stroke-opacity:1"
       d="m -94.9198,285.43907 c 102.05858,-1.2389 203.99944,-1.9507 305.51105,-0.7404 -0.616,-138.0025 -0.6475,-116.9579 -0.6475,-116.9579 -3.7365,-3.9753 -3.65608,-7.1091 -4.26948,-12.0166 -0.3751,-7.0388 2.11123,-14.7354 3.36063,-21.7742 1.9274,-8.9283 -4.27155,-18.7225 0.42365,-26.4115 -0.055,-117.91938 -0.86168,-72.95466 0.66502,-190.87416 -17.2282,0.6128 -34.466,1.2686 -51.1571,-0.5234 -6.3762,4.6619 -12.7711,9.3171 -17.24696,14.6598 3.64156,-4.9548 6.85966,-9.8779 8.18506,-14.6598 -85.92563,2.4997 -171.21893,2.9233 -255.49298,0 2.0951,272.51206 -3.2e-4,86.14098 -2.56056,360.04266 2.71198,-1.1995 5.30344,-3.3163 8.26823,-2.5915 2.78196,1.126 3.64461,3.7253 4.54753,6.2937 1.82811,1.6619 0.59383,3.6666 0.41341,5.5533 z m 4.41833,-3.7485 c 0.88688,-1.5966 0.25559,-3.3291 -0.18087,-5.0442 -1.35972,-3.3018 -3.60222,-6.0765 -7.02799,-8.1448 -1.83076,0.5687 -3.70613,-0.8734 -5.16763,1.0181 1.99191,-270.57278 3.28469,-79.9506 0.6201,-349.82836 82.68988,2.3331 165.37974,2.1936 248.06962,-1.3906 0.54321,4.6517 -4.92529,11.098 -7.52721,16.6885 7.15653,-5.5734 13.33632,-11.7299 22.07052,-16.3613 15.9212,1.1562 31.7172,0.6295 47.503,-0.033 -1.285,117.0925 -1.00312,71.30088 -1.09082,188.39336 -3.7605,7.558 2.09839,17.944 -0.27941,27.6689 -0.8903,6.6309 -3.76022,14.9995 -3.27252,21.8772 1.309,5.0554 0.47063,8.3436 3.60353,12.4656 -1.5075,136.2652 -0.6605,-24.1215 -0.6718,112.3671 -98.56154,-2.0499 -197.53926,-1.3048 -296.64852,0.3239 z"
       sodipodi:nodetypes="ccccccccccccccccccccccccccccccc" />
  </g>
</svg>
