<?xml version="1.0" encoding="UTF-8" standalone="no"?>
<!-- Created with Inkscape (http://www.inkscape.org/) -->

<svg
   width="318.74023mm"
   height="829.18555mm"
   viewBox="0 0 318.74023 829.18555"
   version="1.1"
   id="svg19243"
   inkscape:version="1.1.2 (b8e25be833, 2022-02-05)"
   sodipodi:docname="list_skills.svg"
   xmlns:inkscape="http://www.inkscape.org/namespaces/inkscape"
   xmlns:sodipodi="http://sodipodi.sourceforge.net/DTD/sodipodi-0.dtd"
   xmlns="http://www.w3.org/2000/svg"
   xmlns:svg="http://www.w3.org/2000/svg">
  <sodipodi:namedview
     id="namedview19245"
     pagecolor="#ffffff"
     bordercolor="#999999"
     borderopacity="1"
     inkscape:pageshadow="0"
     inkscape:pageopacity="0"
     inkscape:pagecheckerboard="0"
     inkscape:document-units="mm"
     showgrid="false"
     inkscape:zoom="0.32026164"
     inkscape:cx="1300.4992"
     inkscape:cy="2223.1822"
     inkscape:window-width="1920"
     inkscape:window-height="1017"
     inkscape:window-x="-8"
     inkscape:window-y="-8"
     inkscape:window-maximized="1"
     inkscape:current-layer="layer1" />
  <defs
     id="defs19240" />
  <g
     inkscape:label="Слой 1"
     inkscape:groupmode="layer"
     id="layer1"
     transform="translate(145.3256,350.97943)">
    <path
       style="display:inline;fill:#000000;fill-opacity:1;stroke:none;stroke-width:0.457759px;stroke-linecap:butt;stroke-linejoin:miter;stroke-opacity:1"
       d="m -69.94984,-339.27669 c 52.40514,-4.58654 103.0836,-4.45834 152.17622,0 1.35289,4.2579 1.47603,8.74472 0.62113,13.41365 12.83983,0.9399 19.79721,5.73769 28.36484,12.64275 -6.70871,1.45326 -8.78174,4.95277 -13.04366,7.86318 0.56184,5.41714 -0.35011,10.09825 2.48447,15.88052 -16.37701,-3.99197 -32.7363,-8.70445 -48.03382,-7.5548 -4.73587,-2.97678 -7.12736,-6.42968 -5.79722,-10.63843 -24.7257,-1.96405 -49.47548,-3.67748 -74.74232,0 0.64202,3.34057 1.30711,6.68115 -2.89864,10.0217 -17.5403,-1.58214 -35.53753,1.72723 -53.62386,5.3963 3.122,-5.16952 8.10918,-9.87605 6.62528,-16.18889 -4.83168,-4.66326 -9.77298,-9.22453 -16.77038,-11.87184 7.5439,-1.99002 12.114,-5.97312 24.63796,-4.6254 -0.65232,-5.39333 -0.47532,-10.56678 0,-14.33874 z"
       id="path32064-6-7-7-8"
       sodipodi:nodetypes="ccccccccccccccc" />
    <path
       style="display:inline;fill:#ffffff;fill-opacity:1;stroke:none;stroke-width:0.472493px;stroke-linecap:butt;stroke-linejoin:miter;stroke-opacity:1"
       d="m -66.06426,-336.9696 c 46.73919,-3.58479 94.54365,-3.41508 143.26896,0 0.11821,8.68132 -0.0823,17.24057 -2.31761,25.02035 -45.75078,-2.85476 -91.50161,-2.35487 -137.25243,-0.35627 -2.98763,-7.45315 -3.44371,-16.01461 -3.69892,-24.66408 z"
       id="path33538-8-4-6-4"
       sodipodi:nodetypes="ccccc" />
    <path
       style="display:inline;fill:#ffffff;fill-opacity:1;stroke:none;stroke-width:0.519481px;stroke-linecap:butt;stroke-linejoin:miter;stroke-opacity:1"
       d="m -84.9553,-320.43022 c 4.8241,-0.98809 9.59737,-2.22198 14.86594,-1.07021 1.8439,4.73063 3.68764,8.71333 5.53155,12.84247 3.80235,3.72623 12.50352,4.925 19.70625,6.89686 -10.95766,1.05343 -22.076,1.83043 -32.15221,4.39973 2.96862,-2.68435 3.17336,-8.22033 4.49432,-12.60462 -3.47581,-4.18226 -8.10725,-7.17218 -12.44585,-10.46423 z"
       id="path33995-0-0-8-5"
       sodipodi:nodetypes="ccccccc" />
    <path
       style="display:inline;fill:#ffffff;fill-opacity:1;stroke:none;stroke-width:0.496242px;stroke-linecap:butt;stroke-linejoin:miter;stroke-opacity:1"
       d="m 104.25427,-314.90308 c -1.8172,-2.3585 -16.06424,-8.27451 -21.51109,-7.03171 -1.79258,4.44033 -2.07263,8.73668 -3.86523,12.61241 -3.69658,3.49755 -8.45858,5.40406 -15.46103,7.25491 10.65294,0.98878 22.13439,2.72264 31.9304,5.13426 -2.88594,-2.51962 -2.41295,-6.82294 -3.69723,-10.93818 3.37927,-3.92562 8.38615,-3.94167 12.60418,-7.03169 z"
       id="path33995-1-3-1-1-3"
       sodipodi:nodetypes="ccccccc" />
    <path
       id="path2057-2-4"
       style="display:inline;fill:#000000;fill-opacity:1;fill-rule:evenodd;stroke:none;stroke-width:0.260941"
       d="m -73.22792,-281.0701 a 22.065187,19.839011 0 0 0 -22.06488,19.83928 22.065187,19.839011 0 0 0 22.06488,19.83883 22.065187,19.839011 0 0 0 22.06541,-19.83883 22.065187,19.839011 0 0 0 -22.06541,-19.83928 z m -0.0376,3.27773 a 18.356438,16.906288 0 0 1 18.35649,16.90632 18.356438,16.906288 0 0 1 -18.35649,16.90633 18.356438,16.906288 0 0 1 -18.35598,-16.90633 18.356438,16.906288 0 0 1 18.35598,-16.90632 z" />
    <path
       style="display:inline;fill:#000000;fill-opacity:1;stroke:none;stroke-width:0.40038px;stroke-linecap:butt;stroke-linejoin:miter;stroke-opacity:1"
       d="m -46.77708,-245.29432 c 24.921,4.95882 142.454,4.86259 164.14391,1.22294 z"
       id="path20193-8-7-4-4"
       sodipodi:nodetypes="ccc" />
    <path
       id="path2057-2-4-3"
       style="display:inline;fill:#000000;fill-opacity:1;fill-rule:evenodd;stroke:none;stroke-width:0.260941"
       d="m -72.90766,-236.45819 a 22.065187,19.839011 0 0 0 -22.06484,19.83928 22.065187,19.839011 0 0 0 22.06484,19.83883 22.065187,19.839011 0 0 0 22.0654,-19.83883 22.065187,19.839011 0 0 0 -22.0654,-19.83928 z m -0.038,3.27773 a 18.356438,16.906288 0 0 1 18.3565,16.90632 18.356438,16.906288 0 0 1 -18.3565,16.90634 18.356438,16.906288 0 0 1 -18.35594,-16.90634 18.356438,16.906288 0 0 1 18.35594,-16.90632 z" />
    <path
       style="display:inline;fill:#000000;fill-opacity:1;stroke:none;stroke-width:0.40038px;stroke-linecap:butt;stroke-linejoin:miter;stroke-opacity:1"
       d="m -46.45676,-200.68241 c 24.921,4.95882 142.45398,4.86259 164.14389,1.22294 z"
       id="path20193-8-7-4-4-7"
       sodipodi:nodetypes="ccc" />
    <path
       id="path2057-2-4-0"
       style="display:inline;fill:#000000;fill-opacity:1;fill-rule:evenodd;stroke:none;stroke-width:0.260941"
       d="m -72.90765,-190.07065 a 22.065187,19.839011 0 0 0 -22.06485,19.83928 22.065187,19.839011 0 0 0 22.06485,19.83883 22.065187,19.839011 0 0 0 22.0654,-19.83883 22.065187,19.839011 0 0 0 -22.0654,-19.83928 z m -0.038,3.27773 a 18.356438,16.906288 0 0 1 18.3565,16.90632 18.356438,16.906288 0 0 1 -18.3565,16.90634 18.356438,16.906288 0 0 1 -18.35595,-16.90634 18.356438,16.906288 0 0 1 18.35595,-16.90632 z" />
    <path
       style="display:inline;fill:#000000;fill-opacity:1;stroke:none;stroke-width:0.40038px;stroke-linecap:butt;stroke-linejoin:miter;stroke-opacity:1"
       d="m -46.45675,-154.29487 c 24.921,4.95882 142.45397,4.86259 164.14388,1.22294 z"
       id="path20193-8-7-4-4-73"
       sodipodi:nodetypes="ccc" />
    <path
       id="path2057-2-4-5"
       style="display:inline;fill:#000000;fill-opacity:1;fill-rule:evenodd;stroke:none;stroke-width:0.260941"
       d="m -73.8946,-143.88005 a 22.065187,19.839011 0 0 0 -22.0649,19.83928 22.065187,19.839011 0 0 0 22.0649,19.83883 22.065187,19.839011 0 0 0 22.0654,-19.83883 22.065187,19.839011 0 0 0 -22.0654,-19.83928 z m -0.038,3.27773 a 18.356438,16.906288 0 0 1 18.3565,16.90632 18.356438,16.906288 0 0 1 -18.3565,16.90633 18.356438,16.906288 0 0 1 -18.356,-16.90633 18.356438,16.906288 0 0 1 18.356,-16.90632 z" />
    <path
       style="display:inline;fill:#000000;fill-opacity:1;stroke:none;stroke-width:0.40038px;stroke-linecap:butt;stroke-linejoin:miter;stroke-opacity:1"
       d="m -47.4438,-108.10427 c 24.921,4.95882 142.45404,4.86259 164.14395,1.22294 z"
       id="path20193-8-7-4-4-2"
       sodipodi:nodetypes="ccc" />
    <path
       id="path2057-2-4-3-3"
       style="display:inline;fill:#000000;fill-opacity:1;fill-rule:evenodd;stroke:none;stroke-width:0.260941"
       d="m -73.5743,-99.26814 a 22.065187,19.839011 0 0 0 -22.0649,19.83928 22.065187,19.839011 0 0 0 22.0649,19.83883 22.065187,19.839011 0 0 0 22.0654,-19.83883 22.065187,19.839011 0 0 0 -22.0654,-19.83928 z m -0.038,3.27773 a 18.356438,16.906288 0 0 1 18.3565,16.90632 18.356438,16.906288 0 0 1 -18.3565,16.90634 18.356438,16.906288 0 0 1 -18.356,-16.90634 18.356438,16.906288 0 0 1 18.356,-16.90632 z" />
    <path
       style="display:inline;fill:#000000;fill-opacity:1;stroke:none;stroke-width:0.40038px;stroke-linecap:butt;stroke-linejoin:miter;stroke-opacity:1"
       d="m -47.1234,-63.49236 c 24.921,4.95882 142.45394,4.86259 164.14385,1.22294 z"
       id="path20193-8-7-4-4-7-3"
       sodipodi:nodetypes="ccc" />
    <path
       id="path2057-2-4-0-8"
       style="display:inline;fill:#000000;fill-opacity:1;fill-rule:evenodd;stroke:none;stroke-width:0.260941"
       d="m -73.5743,-52.8806 a 22.065187,19.839011 0 0 0 -22.0649,19.83928 22.065187,19.839011 0 0 0 22.0649,19.83883 22.065187,19.839011 0 0 0 22.0654,-19.83883 22.065187,19.839011 0 0 0 -22.0654,-19.83928 z m -0.038,3.27773 a 18.356438,16.906288 0 0 1 18.3565,16.90632 18.356438,16.906288 0 0 1 -18.3565,16.90634 18.356438,16.906288 0 0 1 -18.356,-16.90634 18.356438,16.906288 0 0 1 18.356,-16.90632 z" />
    <path
       style="display:inline;fill:#000000;fill-opacity:1;stroke:none;stroke-width:0.40038px;stroke-linecap:butt;stroke-linejoin:miter;stroke-opacity:1"
       d="m -47.1234,-17.10482 c 24.921,4.95882 142.45394,4.86259 164.14385,1.22294 z"
       id="path20193-8-7-4-4-73-3"
       sodipodi:nodetypes="ccc" />
    <path
       id="path2057-2-4-2"
       style="display:inline;fill:#000000;fill-opacity:1;fill-rule:evenodd;stroke:none;stroke-width:0.260941"
       d="m -74.38808,-9.07664 a 22.065187,19.839011 0 0 0 -22.06492,19.83928 22.065187,19.839011 0 0 0 22.06492,19.83883 22.065187,19.839011 0 0 0 22.0654,-19.83883 22.065187,19.839011 0 0 0 -22.0654,-19.83928 z m -0.038,3.27773 a 18.356438,16.906288 0 0 1 18.3565,16.90632 18.356438,16.906288 0 0 1 -18.3565,16.90633 18.356438,16.906288 0 0 1 -18.35602,-16.90633 18.356438,16.906288 0 0 1 18.35602,-16.90632 z" />
    <path
       style="display:inline;fill:#000000;fill-opacity:1;stroke:none;stroke-width:0.40038px;stroke-linecap:butt;stroke-linejoin:miter;stroke-opacity:1"
       d="m -47.93718,26.69914 c 24.921,4.95882 142.45395,4.86259 164.14386,1.22294 z"
       id="path20193-8-7-4-4-21"
       sodipodi:nodetypes="ccc" />
    <path
       id="path2057-2-4-3-0"
       style="display:inline;fill:#000000;fill-opacity:1;fill-rule:evenodd;stroke:none;stroke-width:0.260941"
       d="m -74.06778,35.53527 a 22.065187,19.839011 0 0 0 -22.06492,19.83928 22.065187,19.839011 0 0 0 22.06492,19.83883 22.065187,19.839011 0 0 0 22.0654,-19.83883 22.065187,19.839011 0 0 0 -22.0654,-19.83928 z m -0.038,3.27773 a 18.356438,16.906288 0 0 1 18.3565,16.90632 18.356438,16.906288 0 0 1 -18.3565,16.90634 A 18.356438,16.906288 0 0 1 -92.4618,55.71932 18.356438,16.906288 0 0 1 -74.10578,38.813 Z" />
    <path
       style="display:inline;fill:#000000;fill-opacity:1;stroke:none;stroke-width:0.40038px;stroke-linecap:butt;stroke-linejoin:miter;stroke-opacity:1"
       d="m -47.61688,71.31105 c 24.921,4.95882 142.45395,4.86259 164.14386,1.22294 z"
       id="path20193-8-7-4-4-7-8"
       sodipodi:nodetypes="ccc" />
    <path
       id="path2057-2-4-0-1"
       style="display:inline;fill:#000000;fill-opacity:1;fill-rule:evenodd;stroke:none;stroke-width:0.260941"
       d="m -74.06778,81.92281 a 22.065187,19.839011 0 0 0 -22.06492,19.83928 22.065187,19.839011 0 0 0 22.06492,19.83883 22.065187,19.839011 0 0 0 22.0654,-19.83883 22.065187,19.839011 0 0 0 -22.0654,-19.83928 z m -0.038,3.27773 a 18.356438,16.906288 0 0 1 18.3565,16.90632 18.356438,16.906288 0 0 1 -18.3565,16.90634 18.356438,16.906288 0 0 1 -18.35602,-16.90634 18.356438,16.906288 0 0 1 18.35602,-16.90632 z" />
    <path
       style="display:inline;fill:#000000;fill-opacity:1;stroke:none;stroke-width:0.40038px;stroke-linecap:butt;stroke-linejoin:miter;stroke-opacity:1"
       d="m -47.61688,117.69859 c 24.921,4.95882 142.45395,4.86259 164.14386,1.22294 z"
       id="path20193-8-7-4-4-73-1"
       sodipodi:nodetypes="ccc" />
    <path
       id="path2057-2-4-5-3"
       style="display:inline;fill:#000000;fill-opacity:1;fill-rule:evenodd;stroke:none;stroke-width:0.260941"
       d="m -75.05478,128.11341 a 22.065187,19.839011 0 0 0 -22.06492,19.83928 22.065187,19.839011 0 0 0 22.06492,19.83883 22.065187,19.839011 0 0 0 22.0654,-19.83883 22.065187,19.839011 0 0 0 -22.0654,-19.83928 z m -0.038,3.27773 a 18.356438,16.906288 0 0 1 18.3565,16.90632 18.356438,16.906288 0 0 1 -18.3565,16.90633 18.356438,16.906288 0 0 1 -18.35602,-16.90633 18.356438,16.906288 0 0 1 18.35602,-16.90632 z" />
    <path
       style="display:inline;fill:#000000;fill-opacity:1;stroke:none;stroke-width:0.40038px;stroke-linecap:butt;stroke-linejoin:miter;stroke-opacity:1"
       d="m -48.60398,163.88919 c 24.921,4.95882 142.45407,4.86259 164.14398,1.22294 z"
       id="path20193-8-7-4-4-2-3"
       sodipodi:nodetypes="ccc" />
    <path
       id="path2057-2-4-3-3-3"
       style="display:inline;fill:#000000;fill-opacity:1;fill-rule:evenodd;stroke:none;stroke-width:0.260941"
       d="m -74.73448,172.72532 a 22.065187,19.839011 0 0 0 -22.06492,19.83928 22.065187,19.839011 0 0 0 22.06492,19.83883 22.065187,19.839011 0 0 0 22.0654,-19.83883 22.065187,19.839011 0 0 0 -22.0654,-19.83928 z m -0.038,3.27773 a 18.356438,16.906288 0 0 1 18.3565,16.90632 18.356438,16.906288 0 0 1 -18.3565,16.90636 18.356438,16.906288 0 0 1 -18.35602,-16.90636 18.356438,16.906288 0 0 1 18.35602,-16.90632 z" />
    <path
       style="display:inline;fill:#000000;fill-opacity:1;stroke:none;stroke-width:0.40038px;stroke-linecap:butt;stroke-linejoin:miter;stroke-opacity:1"
       d="m -48.28358,208.50113 c 24.921,4.9588 142.45397,4.8626 164.14388,1.2229 z"
       id="path20193-8-7-4-4-7-3-4"
       sodipodi:nodetypes="ccc" />
    <path
       id="path2057-2-4-0-8-9"
       style="display:inline;fill:#000000;fill-opacity:1;fill-rule:evenodd;stroke:none;stroke-width:0.260941"
       d="m -74.73448,219.11283 a 22.065187,19.839011 0 0 0 -22.06492,19.8393 22.065187,19.839011 0 0 0 22.06492,19.8388 22.065187,19.839011 0 0 0 22.0654,-19.8388 22.065187,19.839011 0 0 0 -22.0654,-19.8393 z m -0.038,3.2778 a 18.356438,16.906288 0 0 1 18.3565,16.9063 18.356438,16.906288 0 0 1 -18.3565,16.9063 18.356438,16.906288 0 0 1 -18.35602,-16.9063 18.356438,16.906288 0 0 1 18.35602,-16.9063 z" />
    <path
       style="display:inline;fill:#000000;fill-opacity:1;stroke:none;stroke-width:0.40038px;stroke-linecap:butt;stroke-linejoin:miter;stroke-opacity:1"
       d="m -48.28358,254.88863 c 24.921,4.9588 142.45397,4.8626 164.14388,1.223 z"
       id="path20193-8-7-4-4-73-3-6"
       sodipodi:nodetypes="ccc" />
    <path
       id="path2057-2-4-0-1-2"
       style="display:inline;fill:#000000;fill-opacity:1;fill-rule:evenodd;stroke:none;stroke-width:0.260941"
       d="m -74.0678,264.62623 a 22.065187,19.839011 0 0 0 -22.0649,19.8393 22.065187,19.839011 0 0 0 22.0649,19.8388 22.065187,19.839011 0 0 0 22.0654,-19.8388 22.065187,19.839011 0 0 0 -22.0654,-19.8393 z m -0.038,3.2777 a 18.356438,16.906288 0 0 1 18.3565,16.9064 18.356438,16.906288 0 0 1 -18.3565,16.9063 18.356438,16.906288 0 0 1 -18.356,-16.9063 18.356438,16.906288 0 0 1 18.356,-16.9064 z" />
    <path
       style="display:inline;fill:#000000;fill-opacity:1;stroke:none;stroke-width:0.40038px;stroke-linecap:butt;stroke-linejoin:miter;stroke-opacity:1"
       d="m -47.6169,300.40203 c 24.921,4.9588 142.45399,4.8626 164.1439,1.2229 z"
       id="path20193-8-7-4-4-73-1-2"
       sodipodi:nodetypes="ccc" />
    <path
       id="path2057-2-4-5-3-2"
       style="display:inline;fill:#000000;fill-opacity:1;fill-rule:evenodd;stroke:none;stroke-width:0.260941"
       d="m -75.0548,310.81683 a 22.065187,19.839011 0 0 0 -22.0649,19.8393 22.065187,19.839011 0 0 0 22.0649,19.8388 22.065187,19.839011 0 0 0 22.0654,-19.8388 22.065187,19.839011 0 0 0 -22.0654,-19.8393 z m -0.038,3.2777 a 18.356438,16.906288 0 0 1 18.3565,16.9064 18.356438,16.906288 0 0 1 -18.3565,16.9063 18.356438,16.906288 0 0 1 -18.356,-16.9063 18.356438,16.906288 0 0 1 18.356,-16.9064 z" />
    <path
       style="display:inline;fill:#000000;fill-opacity:1;stroke:none;stroke-width:0.40038px;stroke-linecap:butt;stroke-linejoin:miter;stroke-opacity:1"
       d="m -48.604,346.59263 c 24.921,4.9588 142.45411,4.8626 164.14402,1.2229 z"
       id="path20193-8-7-4-4-2-3-1"
       sodipodi:nodetypes="ccc" />
    <path
       id="path2057-2-4-3-3-3-5"
       style="display:inline;fill:#000000;fill-opacity:1;fill-rule:evenodd;stroke:none;stroke-width:0.260941"
       d="m -74.7345,355.42873 a 22.065187,19.839011 0 0 0 -22.0649,19.8393 22.065187,19.839011 0 0 0 22.0649,19.8388 22.065187,19.839011 0 0 0 22.0654,-19.8388 22.065187,19.839011 0 0 0 -22.0654,-19.8393 z m -0.038,3.2777 a 18.356438,16.906288 0 0 1 18.3565,16.9064 18.356438,16.906288 0 0 1 -18.3565,16.9063 18.356438,16.906288 0 0 1 -18.356,-16.9063 18.356438,16.906288 0 0 1 18.356,-16.9064 z" />
    <path
       style="display:inline;fill:#000000;fill-opacity:1;stroke:none;stroke-width:0.40038px;stroke-linecap:butt;stroke-linejoin:miter;stroke-opacity:1"
       d="m -48.2836,391.20453 c 24.921,4.9588 142.45401,4.8626 164.14392,1.2229 z"
       id="path20193-8-7-4-4-7-3-4-6"
       sodipodi:nodetypes="ccc" />
    <path
       id="path2057-2-4-0-8-9-1"
       style="display:inline;fill:#000000;fill-opacity:1;fill-rule:evenodd;stroke:none;stroke-width:0.260941"
       d="m -74.7345,401.81623 a 22.065187,19.839011 0 0 0 -22.0649,19.8393 22.065187,19.839011 0 0 0 22.0649,19.8388 22.065187,19.839011 0 0 0 22.0654,-19.8388 22.065187,19.839011 0 0 0 -22.0654,-19.8393 z m -0.038,3.2778 a 18.356438,16.906288 0 0 1 18.3565,16.9063 18.356438,16.906288 0 0 1 -18.3565,16.9063 18.356438,16.906288 0 0 1 -18.356,-16.9063 18.356438,16.906288 0 0 1 18.356,-16.9063 z" />
    <path
       style="display:inline;fill:#000000;fill-opacity:1;stroke:none;stroke-width:0.40038px;stroke-linecap:butt;stroke-linejoin:miter;stroke-opacity:1"
       d="m -48.2836,437.59203 c 24.921,4.9588 142.45401,4.8626 164.14392,1.223 z"
       id="path20193-8-7-4-4-73-3-6-5"
       sodipodi:nodetypes="ccc" />
    <path
       id="path1034"
       style="display:inline;fill:#000000;fill-opacity:1;stroke:none;stroke-width:0.25038px;stroke-linecap:butt;stroke-linejoin:miter;stroke-opacity:1"
       d="m 160.18545,-350.97943 c -102.05858,1.23889 -203.99944,1.95066 -305.51105,0.74044 0.616,138.00242 2.8965,276.07014 0.6475,413.96108 3.7365,3.97529 8.3333,7.69379 8.9467,12.60134 0.3751,7.03879 -0.2842,14.0776 -1.5336,21.11638 -1.9274,8.92829 -2.2327,18.7956 -6.9279,26.48457 0.055,117.91945 1.6885,235.83885 0.1618,353.75835 17.2282,-0.6128 34.466,-1.2686 51.1571,0.5234 6.3762,-4.6619 12.7711,-9.3171 17.24696,-14.6598 -3.64156,4.9548 -6.85966,9.8779 -8.18506,14.6598 85.92563,-2.4997 171.21893,-2.9233 255.49298,0 -2.0951,-272.5121 -0.8265,-546.02832 1.73374,-819.93008 -2.71198,1.19949 -5.30344,3.31636 -8.26823,2.59154 -2.78196,-1.12606 -3.64461,-3.72534 -4.54753,-6.29373 -1.82811,-1.66188 -0.59383,-3.66658 -0.41341,-5.55329 z m -4.41833,3.74847 c -0.88688,1.5966 -0.25559,3.32915 0.18087,5.04424 1.35972,3.30177 3.60222,6.07653 7.02799,8.14483 1.83076,-0.56875 3.70613,0.87336 5.16763,-1.01811 -1.99191,270.57277 -2.45787,539.83793 0.20672,809.71573 -82.68988,-2.3331 -165.37974,-2.1936 -248.06962,1.3906 -0.54321,-4.6517 4.92529,-11.098 7.52721,-16.6885 -7.15653,5.5734 -13.33632,11.7299 -22.07052,16.3613 -15.9212,-1.1562 -31.7172,-0.6295 -47.503,0.033 1.285,-117.0925 0.1763,-234.185 0.264,-351.27745 3.7605,-7.55802 5.0636,-18.96712 7.4414,-28.692 0.8903,-6.63099 1.0562,-13.3917 0.5685,-20.26949 -1.309,-5.05533 -4.9286,-8.92826 -8.0615,-13.05024 1.5075,-136.2652 0.6605,-272.88183 0.6718,-409.37037 98.56154,2.04984 197.53926,1.30474 296.64852,-0.32394 z"
       sodipodi:nodetypes="cccccccccccccccccccccccccccccc" />
  </g>
</svg>
