<?xml version="1.0" encoding="UTF-8" standalone="no"?>
<!-- Created with Inkscape (http://www.inkscape.org/) -->

<svg
   width="318.74023mm"
   height="369.29816mm"
   viewBox="0 0 318.74023 369.29816"
   version="1.1"
   id="svg9465"
   inkscape:version="1.1.2 (b8e25be833, 2022-02-05)"
   sodipodi:docname="list_notes.svg"
   xmlns:inkscape="http://www.inkscape.org/namespaces/inkscape"
   xmlns:sodipodi="http://sodipodi.sourceforge.net/DTD/sodipodi-0.dtd"
   xmlns="http://www.w3.org/2000/svg"
   xmlns:svg="http://www.w3.org/2000/svg">
  <sodipodi:namedview
     id="namedview9467"
     pagecolor="#ffffff"
     bordercolor="#999999"
     borderopacity="1"
     inkscape:pageshadow="0"
     inkscape:pageopacity="0"
     inkscape:pagecheckerboard="0"
     inkscape:document-units="mm"
     showgrid="false"
     inkscape:zoom="0.16013082"
     inkscape:cx="1882.8355"
     inkscape:cy="1336.4073"
     inkscape:window-width="1920"
     inkscape:window-height="1017"
     inkscape:window-x="-8"
     inkscape:window-y="-8"
     inkscape:window-maximized="1"
     inkscape:current-layer="layer1" />
  <defs
     id="defs9462" />
  <g
     inkscape:label="Слой 1"
     inkscape:groupmode="layer"
     id="layer1"
     transform="translate(300.22825,189.19286)">
    <path
       style="display:inline;fill:#000000;fill-opacity:1;stroke:none;stroke-width:0.451486px;stroke-linecap:butt;stroke-linejoin:miter;stroke-opacity:1"
       d="m -222.62401,-171.67823 c 50.97863,-4.58654 100.27761,-4.45834 148.033933,0 1.31606,4.2579 1.43585,8.74472 0.60422,13.41365 12.49033,0.9399 19.25833,5.73769 27.59275,12.64275 -6.5261,1.45326 -8.5427,4.95277 -12.68861,7.86318 0.54654,5.41714 -0.34058,10.09825 2.41684,15.88052 -15.93123,-3.99197 -31.84522,-8.70445 -46.726343,-7.5548 -4.60695,-2.97678 -6.93335,-6.42968 -5.63941,-10.63843 -24.05267,-1.96405 -48.12876,-3.67748 -72.70783,0 0.62454,3.34057 1.27153,6.68115 -2.81974,10.0217 -17.06285,-1.58214 -34.57019,1.72723 -52.16421,5.3963 3.03702,-5.16952 7.88847,-9.87605 6.44496,-16.18889 -4.70018,-4.66326 -9.50698,-9.22453 -16.31391,-11.87184 7.33855,-1.99002 11.78426,-5.97312 23.96735,-4.6254 -0.63464,-5.39333 -0.46246,-10.56678 0,-14.33874 z"
       id="path32064-6-7-7-8-3-6-8"
       sodipodi:nodetypes="ccccccccccccccc" />
    <path
       style="display:inline;fill:#ffffff;fill-opacity:1;stroke:none;stroke-width:0.466018px;stroke-linecap:butt;stroke-linejoin:miter;stroke-opacity:1"
       d="m -218.84423,-169.37114 c 45.46694,-3.58479 91.97016,-3.41508 139.369163,0 0.11499,8.68132 -0.0801,17.24057 -2.25453,25.02035 -44.505433,-2.85476 -89.010923,-2.35487 -133.516403,-0.35627 -2.90631,-7.45315 -3.34997,-16.01461 -3.59823,-24.66408 z"
       id="path33538-8-4-6-4-1-6-6"
       sodipodi:nodetypes="ccccc" />
    <path
       style="display:inline;fill:#ffffff;fill-opacity:1;stroke:none;stroke-width:0.512362px;stroke-linecap:butt;stroke-linejoin:miter;stroke-opacity:1"
       d="m -237.22106,-152.83176 c 4.69279,-0.98809 9.33616,-2.22198 14.46125,-1.07021 1.79371,4.73063 3.5873,8.71333 5.38102,12.84247 3.69885,3.72623 12.16317,4.925 19.16984,6.89686 -10.65939,1.05343 -21.47508,1.83043 -31.27705,4.39973 2.88789,-2.68435 3.08702,-8.22033 4.37206,-12.60462 -3.38128,-4.18226 -7.88661,-7.17218 -12.10712,-10.46423 z"
       id="path33995-0-0-8-5-4-1-8"
       sodipodi:nodetypes="ccccccc" />
    <path
       style="display:inline;fill:#ffffff;fill-opacity:1;stroke:none;stroke-width:0.489442px;stroke-linecap:butt;stroke-linejoin:miter;stroke-opacity:1"
       d="m -53.161787,-147.30462 c -1.76774,-2.3585 -15.62697,-8.27451 -20.92556,-7.03171 -1.74379,4.44033 -2.01621,8.73668 -3.76002,12.61241 -3.59596,3.49755 -8.22833,5.40406 -15.04018,7.25491 10.36297,0.98878 21.53189,2.72264 31.06125,5.13426 -2.80738,-2.51962 -2.34727,-6.82294 -3.59659,-10.93818 3.28729,-3.92562 8.15788,-3.94167 12.2611,-7.03169 z"
       id="path33995-1-3-1-1-3-9-0-4"
       sodipodi:nodetypes="ccccccc" />
    <path
       id="path1034-0-1"
       style="display:inline;fill:#000000;fill-opacity:1;stroke:none;stroke-width:0.25038px;stroke-linecap:butt;stroke-linejoin:miter;stroke-opacity:1"
       d="m 5.282804,-189.19286 c -102.058581,1.2389 -203.999444,1.9507 -305.511054,0.7404 0.616,138.00246 0.6475,116.95786 0.6475,116.95786 3.7365,3.9753 3.65608,7.1091 4.26948,12.0166 0.3751,7.0388 -2.11123,14.7354 -3.36063,21.7742 -1.9274,8.9283 4.27155,18.7225 -0.42365,26.4115 0.055,117.9194 0.86168,72.9547 -0.66502,190.8742 17.2282,-0.6128 34.466,-1.2686 51.1571,0.5234 6.3762,-4.6619 4.51289,-8.6594 1.82676,-15.0252 3.81276,5.3933 8.56054,10.2433 7.23514,15.0252 85.92563,-2.4997 171.218933,-2.9233 255.492984,0 -2.0951,-272.51206 3.2e-4,-86.141 2.56056,-360.04266 -2.71198,1.1995 -5.30344,3.3163 -8.26823,2.5915 -2.78196,-1.126 -3.64461,-3.7253 -4.54753,-6.2937 -1.82811,-1.6619 -0.59383,-3.6666 -0.41341,-5.5533 z m -4.052922,3.01768 c -0.88688,1.5966 0.694469,3.18294 1.130929,4.89804 1.35972,3.3018 2.286753,5.27261 5.712523,7.34091 1.83076,-0.5687 5.240842,1.09264 6.702342,-0.79886 -1.99191,270.57279 -5.404054,79.07362 -2.739464,348.95139 -82.689879,-2.3331 -164.795092,0.145 -247.484972,3.7292 -0.54321,-4.6517 -9.98334,-11.8288 -13.22794,-17.4924 -0.72536,8.1313 7.41883,12.5338 -1.31537,17.1652 -15.9212,-1.1562 -31.27871,-1.7988 -47.06451,-1.1363 1.285,-117.0925 0.56463,-70.1316 0.65233,-187.2241 3.7605,-7.558 -2.09839,-17.944 0.27941,-27.6689 0.8903,-6.6309 3.76022,-14.9995 3.27252,-21.8772 -1.309,-5.0554 -0.47063,-8.3436 -3.60353,-12.4656 1.5075,-136.26516 -0.17994,23.8657 -0.16864,-112.62285 98.56154,2.0499 198.745113,0.83017 297.854372,-0.79853 z"
       sodipodi:nodetypes="cccccccccccccccccccccccccccccc" />
    <path
       id="path8541"
       style="display:inline;fill:#000000;fill-opacity:1;stroke:none;stroke-width:0.270679px;stroke-linecap:butt;stroke-linejoin:miter;stroke-opacity:1"
       d="m -10.244773,-112.97087 -265.663147,-0.54245 0.30163,272.20382 265.926916,-0.649 z m -262.342567,3.41157 259.694726,0.11464 V 154.4384 H -272.58734 Z"
       sodipodi:nodetypes="cccccccccc" />
  </g>
</svg>
